<?xml version="1.0" encoding="UTF-8" standalone="no"?>
<!-- Created with Inkscape (http://www.inkscape.org/) -->

<svg
   width="282.33331mm"
   height="131.25063mm"
   viewBox="0 0 282.33332 131.25062"
   version="1.1"
   id="svg1"
   inkscape:version="1.4 (e7c3feb1, 2024-10-09)"
   sodipodi:docname="admixed_genome.svg"
   xml:space="preserve"
   xmlns:inkscape="http://www.inkscape.org/namespaces/inkscape"
   xmlns:sodipodi="http://sodipodi.sourceforge.net/DTD/sodipodi-0.dtd"
   xmlns:xlink="http://www.w3.org/1999/xlink"
   xmlns="http://www.w3.org/2000/svg"
   xmlns:svg="http://www.w3.org/2000/svg"><sodipodi:namedview
     id="namedview1"
     pagecolor="#ffffff"
     bordercolor="#666666"
     borderopacity="1.0"
     inkscape:showpageshadow="2"
     inkscape:pageopacity="0.0"
     inkscape:pagecheckerboard="0"
     inkscape:deskcolor="#d1d1d1"
     inkscape:document-units="mm"
     inkscape:zoom="0.50305218"
     inkscape:cx="149.0899"
     inkscape:cy="371.73082"
     inkscape:window-width="2560"
     inkscape:window-height="1387"
     inkscape:window-x="1440"
     inkscape:window-y="25"
     inkscape:window-maximized="0"
     inkscape:current-layer="layer4" /><defs
     id="defs1"><linearGradient
       id="linearGradient1"
       inkscape:collect="always"><stop
         style="stop-color:#a7117a;stop-opacity:1;"
         offset="0"
         id="stop1" /><stop
         style="stop-color:#007894;stop-opacity:1;"
         offset="1"
         id="stop2" /></linearGradient><linearGradient
       inkscape:collect="always"
       xlink:href="#linearGradient1"
       id="linearGradient2"
       x1="-14.869065"
       y1="150.5127"
       x2="-36.126789"
       y2="168.35004"
       gradientUnits="userSpaceOnUse"
       gradientTransform="matrix(1.7848303,0,0,1.7848303,25.532309,-192.51701)" /><clipPath
       clipPathUnits="userSpaceOnUse"
       id="clipPath4"><rect
         style="fill:none;stroke:#550000;stroke-width:1.098;stroke-dasharray:none;stroke-opacity:1;paint-order:fill markers stroke"
         id="rect5"
         width="105.62161"
         height="53.554619"
         x="203.3015"
         y="311.87186"
         ry="0.10749079" /></clipPath></defs><g
     inkscape:label="1"
     inkscape:groupmode="layer"
     id="layer1"
     transform="translate(49.341647,14.600734)"><path
       d="m -10.870139,14.228088 c 0.262095,-0.11127 0.129645,-0.43582 -0.411773,-1.0098 -0.698024,-0.73987 -0.782,-1.0636 -0.670253,-2.58423 0.07019,-0.9561277 0.306323,-2.6273767 0.524582,-3.7138867 0.378222,-1.882806 0.440226,-1.975466 1.321823,-1.975466 1.0142719,0 2.8798759,-1.601395 3.2596909,-2.798046 0.11856,-0.373305 0.337159,-0.678769 0.485958,-0.678769 0.560483,0 2.2154642,-1.66038599 2.2154642,-2.22270499 0,-0.32237101 0.320037,-0.81046901 0.7111785,-1.08466301 0.9622561,-0.674523 3.9943779,-0.338796 5.9949016,0.663757 1.503501,0.75351501 2.4600788,0.95022801 2.4600788,0.50603701 0,-0.132375 0.3083725,-0.38155501 0.6853126,-0.55313501 1.3664765,-0.622127 1.3629225,-1.162071 -0.021822,-3.304346 -0.7173913,-1.109914 -1.5083116,-2.704906 -1.7576035,-3.544416 -0.4401046,-1.482019 -0.4308121,-1.55058 0.3203341,-2.3610973 0.7459401,-0.804882 1.1156669,-2.571525 0.45239,-2.161602 -0.1766885,0.10935 -0.3164541,0.320787 -0.1988705,0.52606 0.1228515,0.32153 -0.5173866,0.199278 -0.8560227,0.430137 -0.7770929,0.544311 -2.1006637,0.615533 -2.1006637,0.11295 0,-0.192562 -0.2116519,-0.268653 -0.470325,-0.169302 -0.2586729,0.09929 -0.4364644,0.02567 -0.3950932,-0.163786 0.041295,-0.189447 -0.096162,-0.40719 -0.30526,-0.484191 -0.2208364,-0.0813 -0.4952049,0.300021 -0.6538403,0.908694 l -0.27333,1.048716 -2.1908506,-0.10863 c -3.2202973,-0.15971 -5.7066443,-0.550952 -8.1812682,-1.287345 -2.01067,-0.59829 -2.986037,-0.652559 -11.472564,-0.638073 -5.850617,0.0096 -10.115642,-0.125175 -11.551746,-0.365631 -1.946601,-0.32616 -2.577504,-0.305873 -4.351374,0.14004 -1.141095,0.286758 -2.287908,0.521407 -2.548497,0.521407 -0.260589,0 -0.891552,0.436278 -1.40214,0.969485 -0.918246,0.95898 -0.92873,1.011426 -0.963552,4.8201543 -0.03361,3.67144 -1.263179,6.18152801 -1.697223,6.88382201 -0.106935,0.173379 0.722799,-0.153955 0.816466,-0.153955 0.09365,0 0.716342,-1.387944 1.067558,-2.07637701 0.521647,-1.022529 0.638572,-1.864221 0.638572,-4.597447 0,-3.168473 0.0429,-3.388614 0.809346,-4.1550803 0.445134,-0.445149 0.881729,-0.736944 0.97019,-0.64848 0.08848,0.08825 -0.15477,0.894593 -0.540528,1.7913443 l -0.701415,1.630483 0.580938,2.543493 c 0.50628,2.216711 0.534981,2.90742 0.223377,5.37616701 -0.220452,1.74661899 -0.608234,3.25753599 -1.011423,3.94085999 -0.359609,0.609561 -0.590171,1.211328 -0.512283,1.337298 0.3193,0.516708 1.831401,7.2148047 1.810356,8.0193947 -0.02158,0.82169 0.05441,0.86922 1.386888,0.86922 1.569165,0 1.674631,-0.13933 0.821247,-1.08591 -0.761808,-0.84488 -1.308087,-2.49906 -1.308087,-3.9610757 0,-1.341134 0.896874,-4.59198 1.186869,-4.301984 0.349435,0.349421 1.304787,4.417043 1.323502,5.6350797 0.0087,0.65192 0.151436,1.18529 0.314286,1.18529 0.162827,0 0.340614,0.46225 0.395093,1.02725 0.08792,0.91225 0.218535,1.03865 1.166476,1.12927 1.447016,0.13837 1.931556,-0.38913 1.05549,-1.14893 -0.921045,-0.79884 -1.332745,-2.00827 -1.332745,-3.9152037 0,-2.213041 0.584698,-4.034025 1.314343,-4.093449 0.320169,-0.02614 0.759906,-0.06188 0.977208,-0.07914 0.217311,-0.01678 0.499601,-0.173859 0.627321,-0.34767 0.143805,-0.195919 0.23405,-0.165705 0.237047,0.07914 0.0028,0.217263 0.14703,0.395078 0.32091,0.395078 0.173835,0 0.320554,-0.177695 0.326013,-0.395078 0.0075,-0.217264 0.357573,-0.648025 0.782488,-0.957159 0.729291,-0.53064 0.862292,-0.53275 2.375895,-0.03789 1.208892,0.395414 2.163389,0.473399 3.879635,0.317022 5.878153,-0.535701 6.782623,-0.571264 6.966285,-0.274122 0.10575,0.170982 0.259939,2.466204 0.342678,5.100272 0.08274,2.6340197 0.237142,4.9295097 0.343165,5.1010597 0.26808,0.43371 2.281151,0.39194 2.556192,-0.053 0.12402,-0.20072 0.09144,-0.28211 -0.07226,-0.18082 -0.163836,0.10143 -0.488095,-0.24572 -0.720648,-0.77107 -0.555067,-1.25396 -0.291411,-5.0517057 0.468114,-6.7430997 l 0.567734,-1.2643 0.319099,1.580388 c 0.175488,0.869197 0.324756,2.611573 0.331718,3.8718917 0.0075,1.26039 0.132135,2.29158 0.278169,2.29158 0.14601,0 0.219782,0.39114 0.163882,0.86922 -0.09264,0.79265 -0.006,0.87462 1.004623,0.93076 0.60846,0.034 1.28007,-0.01 1.492474,-0.10239 z M -45.476296,3.4178663 c -0.11799,-0.307718 -0.0522,-0.393353 0.188175,-0.244794 0.224122,0.1386 0.369801,0.02711 0.369801,-0.282873 0,-0.281268 0.142155,-0.423473 0.316071,-0.316064 0.18369,0.11343 0.316069,-0.198798 0.316069,-0.745674 0,-0.517572 0.0972,-1.19425299 0.215921,-1.50374499 0.181701,-0.473496 0.05295,-0.446637 -0.81213,0.169302 -1.541687,1.09780299 -2.118153,3.39710199 -0.851688,3.39710199 0.260368,0 0.365394,-0.192802 0.257773,-0.473278 z"
       style="fill:none;fill-opacity:1;stroke:#a7117a;stroke-width:1.12059;stroke-dasharray:none;stroke-opacity:1"
       id="path150986" /><g
       id="g1"><rect
         style="fill:#c8c8c8;fill-opacity:1;stroke-width:0.548593;stroke-dasharray:1.09719, 1.09719;paint-order:fill markers stroke"
         id="rect1-9"
         width="221.39223"
         height="12.049138"
         x="11.599446"
         y="-5.3074408"
         ry="6.024569" /><rect
         style="fill:#a7117a;fill-opacity:1;stroke-width:0.0857498;stroke-dasharray:0.1715, 0.1715;paint-order:fill markers stroke"
         id="rect1-3-0"
         width="5.4091196"
         height="12.049138"
         x="82.143066"
         y="-5.3074408"
         ry="0" /><rect
         style="fill:#a7117a;fill-opacity:1;stroke-width:0.159048;stroke-dasharray:0.318096, 0.318096;paint-order:fill markers stroke"
         id="rect1-3-6-4"
         width="18.608664"
         height="12.049138"
         x="158.09338"
         y="-5.3074408"
         ry="0"
         inkscape:transform-center-x="4.0331941"
         inkscape:transform-center-y="0.36665401" /><rect
         style="fill:#a7117a;fill-opacity:1;stroke-width:0.0857498;stroke-dasharray:0.1715, 0.1715;paint-order:fill markers stroke"
         id="rect1-3-3-0"
         width="5.4091196"
         height="12.049138"
         x="213.74341"
         y="-5.3074408"
         ry="0" /></g><text
       xml:space="preserve"
       style="font-size:9.62006px;line-height:1.25;font-family:Calibri, Calibri_MSFontService, sans-serif;-inkscape-font-specification:'Calibri, Calibri_MSFontService, sans-serif, Normal';writing-mode:vertical-lr;stroke-width:0.264583"
       x="10.464108"
       y="106.87462"
       id="text5"
       transform="rotate(-90)"><tspan
         sodipodi:role="line"
         id="tspan5"
         x="10.464108"
         y="106.87462"
         style="font-style:normal;font-variant:normal;font-weight:normal;font-stretch:normal;font-family:'DIN Next W1G';-inkscape-font-specification:'DIN Next W1G';stroke-width:0.264583">Taurine</tspan></text><g
       id="g2"
       transform="translate(-2.2916667e-7,-1.1557587)"><rect
         style="fill:#c8c8c8;fill-opacity:1;stroke-width:0.548593;stroke-dasharray:1.09719, 1.09719;paint-order:fill markers stroke"
         id="rect1"
         width="221.39223"
         height="12.049138"
         x="11.599446"
         y="41.49316"
         ry="6.024569" /><rect
         style="fill:#007894;fill-opacity:1;stroke-width:0.129951;stroke-dasharray:0.259902, 0.259902;paint-order:fill markers stroke"
         id="rect1-3"
         width="12.422745"
         height="12.049138"
         x="37.917255"
         y="41.49316"
         ry="0" /><rect
         style="fill:#007894;fill-opacity:1;stroke-width:0.0857498;stroke-dasharray:0.1715, 0.1715;paint-order:fill markers stroke"
         id="rect1-3-6"
         width="5.4091196"
         height="12.049138"
         x="82.143066"
         y="41.49316"
         ry="0" /><rect
         style="fill:#007894;fill-opacity:1;stroke-width:0.0857498;stroke-dasharray:0.1715, 0.1715;paint-order:fill markers stroke"
         id="rect1-3-1"
         width="5.4091196"
         height="12.049138"
         x="109.13061"
         y="41.49316"
         ry="0" /><rect
         style="fill:#007894;fill-opacity:1;stroke-width:0.0857498;stroke-dasharray:0.1715, 0.1715;paint-order:fill markers stroke"
         id="rect1-3-3"
         width="5.4091196"
         height="12.049138"
         x="164.69316"
         y="41.49316"
         ry="0" /></g><path
       style="fill:none;fill-opacity:1;stroke:#007894;stroke-width:1.12059;stroke-dasharray:none;stroke-opacity:1"
       d="m -31.417584,61.863202 c 0.359388,0 0.954806,-0.333051 1.323204,-0.740115 0.626156,-0.691906 0.620565,-0.784683 -0.08613,-1.424134 -0.415698,-0.376208 -1.344547,-1.961225 -2.064073,-3.522291 -1.103028,-2.393048 -1.27989,-3.180444 -1.127378,-5.019318 0.09954,-1.199604 0.315924,-2.316122 0.480957,-2.481182 0.165083,-0.164914 0.965751,0.431304 1.779267,1.325219 0.813518,0.893913 1.517928,2.460549 2.706909,3.188812 0.64701,0.396288 1.468049,0.656213 2.215097,0.523634 0.704779,-0.1251 1.349529,-1.104221 1.792215,-1.182878 0.457566,-0.08139 1.110577,-0.792358 1.513458,-1.647952 0.692302,-1.47029 0.759657,-1.504896 2.928192,-1.504896 h 2.21961 l -0.295557,1.10754 c -0.162516,0.609162 -0.260144,1.651254 -0.216905,2.315781 0.04324,0.664545 -0.20767,2.229307 -0.557575,3.477243 -0.590373,2.105599 -0.586466,2.344891 0.05412,3.322639 0.480516,0.733388 1.043578,1.053693 1.85229,1.053693 0.743169,0 1.161916,-0.209086 1.161916,-0.58039 0,-0.319148 -0.204027,-0.706437 -0.453409,-0.860538 -0.291087,-0.179975 -0.374871,-1.041218 -0.23405,-2.405703 0.120645,-1.168992 0.460604,-2.548791 0.755468,-3.066177 0.507048,-0.889776 0.547017,-0.826592 0.737463,1.166188 0.11106,1.162479 0.515571,2.471403 0.902242,2.919914 0.385463,0.447151 0.963803,0.812953 1.285155,0.812953 0.321367,0 0.696106,-0.180885 0.832779,-0.402051 0.136575,-0.221148 -0.03391,-0.805138 -0.378989,-1.297839 -0.345093,-0.492667 -0.62745,-1.475895 -0.62745,-2.184936 0,-1.281526 0.006,-1.285776 1.143216,-0.71884 0.62878,0.313684 0.881731,-0.931842 1.546597,-0.798855 1.0710249,0.214218 1.2684469,0.09781 1.7312329,-1.019316 0.287298,-0.693621 2.6031402,-1.608543 3.6460872,-2.705072 1.1116815,-1.168795 1.538292,-2.891566 2.6852417,-4.025773 0.4900439,-0.484581 1.7327205,-0.458238 1.7327205,-1.127978 0,-0.612376 0.2936399,-1.062582 0.7973549,-1.222447 0.4385551,-0.139215 1.1125995,-0.07674 1.4978701,0.139035 0.485175,0.271543 1.035909,0.218463 1.7918939,-0.172419 0.6003304,-0.310454 1.2056295,-0.924204 1.3451937,-1.363949 0.1834509,-0.577894 -0.129495,-1.18263 -1.1288943,-2.182117 -0.7604559,-0.760463 -1.8132653,-2.153666 -2.3396033,-3.095984 -0.5263215,-0.942391 -1.410042,-2.038401 -1.963815,-2.435706 -0.553755,-0.397249 -1.4961285,-0.838441 -2.0941456,-0.980407 -0.8255356,-0.196088 -1.3149736,-0.03033 -2.0331451,0.68773 -0.520245,0.520262 -1.4477667,1.274744 -2.0611687,1.676672 -1.100387,0.720981 -1.133673,0.716715 -2.492305,-0.319557 -0.757371,-0.577695 -1.5753269,-1.42085 -1.8177029,-1.873662 -0.242345,-0.452865 -1.196252,-1.166457 -2.119822,-1.585769 -0.923527,-0.419344 -2.276432,-0.766422 -3.006388,-0.771277 -0.880492,-0.0072 -1.659984,0.323892 -2.315784,0.979711 -0.543694,0.543696 -0.988564,1.441679 -0.988564,1.995492 0,0.838068 -0.244232,1.05273 -1.456442,1.280153 -0.801027,0.150117 -2.392563,0.06372 -3.536677,-0.192276 -1.144118,-0.256053 -3.161955,-0.910193 -4.484051,-1.453656 -1.585846,-0.651891 -3.199653,-0.991383 -4.74262,-0.997685 -1.286351,-0.0072 -3.139553,0.192036 -4.118207,0.438534 -0.9787,0.246395 -2.223739,0.859823 -2.766814,1.363074 -0.543039,0.50334 -1.260984,1.836449 -1.59539,2.962551 -0.334432,1.126137 -0.815965,4.273367 -1.070049,6.993857 -0.254128,2.720509 -0.771088,5.943147 -1.148808,7.16142 -0.565995,1.825576 -0.607203,2.533833 -0.234241,4.027485 0.248925,0.996793 0.598915,1.81237 0.777786,1.81237 0.178894,0 0.698494,-0.499965 1.154704,-1.110985 0.515102,-0.689943 0.816821,-1.682006 0.796145,-2.617827 -0.01846,-0.828822 -0.156138,-3.04742 -0.306234,-4.930218 -0.150143,-1.882854 -0.121965,-4.2351 0.06254,-5.227235 l 0.335434,-1.803909 1.255068,2.206638 c 1.185206,2.083826 1.223909,2.282264 0.695102,3.564771 -0.307986,0.746952 -0.557645,1.743707 -0.554813,2.215062 0.0029,0.471357 -0.294615,2.138978 -0.661023,3.705846 -0.637879,2.727933 -0.634279,2.886087 0.0842,3.725439 0.415122,0.484778 1.220481,0.876513 1.802129,0.876513 0.578386,0 1.166475,-0.114765 1.306906,-0.255283 0.1404,-0.14028 -0.08199,-0.68427 -0.494509,-1.208582 -0.606794,-0.771423 -0.682922,-1.241241 -0.399165,-2.46319 0.192876,-0.830499 0.354993,-1.672743 0.360271,-1.871628 0.006,-0.19899 0.461345,0.254196 1.013448,1.00686 0.552132,0.752662 1.45653,2.274676 2.009801,3.382236 0.553269,1.10754 1.007707,2.221594 1.009875,2.475702 0.0028,0.254107 0.497373,1.024384 1.100491,1.711687 0.603072,0.687303 1.39056,1.249668 1.749918,1.249668 z"
       id="path81619-9" /><text
       xml:space="preserve"
       style="font-size:9.62006px;line-height:1.25;font-family:Calibri, Calibri_MSFontService, sans-serif;-inkscape-font-specification:'Calibri, Calibri_MSFontService, sans-serif, Normal';writing-mode:vertical-lr;stroke-width:0.264583"
       x="-35.180729"
       y="105.97032"
       id="text5-4"
       transform="rotate(-90)"><tspan
         sodipodi:role="line"
         id="tspan5-8"
         x="-35.180729"
         y="105.97032"
         style="font-style:normal;font-variant:normal;font-weight:normal;font-stretch:normal;font-family:'DIN Next W1G';-inkscape-font-specification:'DIN Next W1G';stroke-width:0.264583">Indicine</tspan></text></g><g
     inkscape:groupmode="layer"
     id="layer2"
     inkscape:label="2"
     style="display:inline"
     transform="translate(5.7951439e-7,-1.5874987)"><path
       style="fill:none;stroke:#a7117a;stroke-width:1.098;stroke-dasharray:none;stroke-opacity:1"
       d="m -47.9114,95.35131 c 1.534967,-1.14975 0.0039,-5.69936 1.218528,-5.57401 1.949052,3.10893 1.17891,6.90924 -0.145663,10.0844 -0.953307,2.80925 -0.897025,6.22145 0.953888,7.98664 1.366868,1.24335 4.322764,0.0625 1.667642,-1.42908 -2.459746,-1.57128 -0.228573,-10.49592 1.844258,-5.62604 0.450985,2.64243 1.485698,6.63204 4.170582,6.67642 3.603473,-0.27529 -2.633112,-3.15146 -1.739861,-5.33925 -0.511323,-2.32309 -0.681479,-3.27375 1.253517,-2.29948 0.23773,-3.33224 2.301811,2.05901 2.227069,-1.36515 1.154699,-3.37056 5.124451,1.92647 7.841851,1.13952 2.443894,1.03587 6.666316,-1.89294 7.734991,0.35985 0.326286,2.78407 -1.223369,6.45903 0.764797,8.40827 5.067461,0.82903 -1.681474,-2.92484 1.297431,-5.05941 0.811515,-1.19243 1.153613,-6.22014 2.26691,-2.34782 -0.529502,2.45161 0.958215,4.6882 1.04383,6.60766 1.641684,0.23706 4.418811,-0.30296 1.713244,-1.87993 -1.884225,-2.9642 -1.00534,-7.9278 2.882213,-8.08829 2.0762832,-2.42848 1.7082082,-6.1265 4.2658402,-8.40179 1.2237184,-2.9447 9.2278399,0.52191 7.5656891,-4.20906 -2.3650293,-1.51997 -3.1407487,-4.53594 -4.9267556,-6.19705 1.5418162,-0.48436 3.3163666,-3.34077 0.5387075,-1.39842 -2.1643936,0.89692 -2.1900516,0.22309 -1.1702876,-1.46218 -1.10218,-1.83835 -3.3189184,2.95346 -4.2663264,4.02471 -3.7188702,3.02654 -8.8123392,2.65991 -13.2164222,1.72493 -5.004252,-0.8781 -10.076195,1.30983 -15.020014,-0.26797 -2.973978,-0.60586 -7.186234,-1.88595 -9.063891,1.36403 -1.592782,3.28155 -1.348835,7.12688 -2.578324,10.50955 0.03715,0.76869 0.441741,1.45357 0.876557,2.05895 z"
       id="path2-7"
       transform="translate(49.341646,16.188233)" /><g
       id="g3"
       transform="translate(49.341646,11.963553)"><rect
         style="fill:#c8c8c8;fill-opacity:1;stroke-width:0.548593;stroke-dasharray:1.09719, 1.09719;paint-order:fill markers stroke"
         id="rect1-9-7"
         width="221.39223"
         height="12.049138"
         x="11.599446"
         y="90.206924"
         ry="6.024569" /><rect
         style="fill:#a7117a;fill-opacity:1;stroke-width:0.0857498;stroke-dasharray:0.1715, 0.1715;paint-order:fill markers stroke"
         id="rect1-3-0-5"
         width="5.4091196"
         height="12.049138"
         x="82.143059"
         y="90.206924"
         ry="0" /><rect
         style="fill:#a7117a;fill-opacity:1;stroke-width:0.127264;stroke-dasharray:0.254528, 0.254528;paint-order:fill markers stroke"
         id="rect1-3-6-4-0"
         width="11.914336"
         height="12.049138"
         x="164.7877"
         y="90.206924"
         ry="0"
         inkscape:transform-center-x="2.5822894"
         inkscape:transform-center-y="0.36665401" /><rect
         style="fill:#a7117a;fill-opacity:1;stroke-width:0.0857498;stroke-dasharray:0.1715, 0.1715;paint-order:fill markers stroke"
         id="rect1-3-3-0-6"
         width="5.4091196"
         height="12.049138"
         x="213.74339"
         y="90.206924"
         ry="0" /><rect
         style="fill:#a7117a;fill-opacity:1;stroke-width:0.0857498;stroke-dasharray:0.1715, 0.1715;paint-order:fill markers stroke"
         id="rect1-3-3-0-6-4"
         width="5.4091196"
         height="12.049138"
         x="51.022343"
         y="90.206924"
         ry="0" /></g><text
       xml:space="preserve"
       style="font-size:9.62006px;line-height:1.25;font-family:Calibri, Calibri_MSFontService, sans-serif;-inkscape-font-specification:'Calibri, Calibri_MSFontService, sans-serif, Normal';writing-mode:vertical-lr;stroke-width:0.264583"
       x="-80.825569"
       y="106.87462"
       id="text5-5"
       transform="rotate(-90,32.764939,-16.576706)"><tspan
         sodipodi:role="line"
         id="tspan5-6"
         x="-80.825569"
         y="106.87462"
         style="font-style:normal;font-variant:normal;font-weight:normal;font-stretch:normal;font-family:'DIN Next W1G';-inkscape-font-specification:'DIN Next W1G';stroke-width:0.264583">Taurine</tspan></text></g><g
     inkscape:groupmode="layer"
     id="layer3"
     inkscape:label="3"
     style="display:inline"
     transform="translate(5.7951439e-7,-1.5874987)"><g
       id="g4"
       transform="translate(49.341646,-45.331613)"><rect
         style="fill:#c8c8c8;fill-opacity:1;stroke-width:0.548593;stroke-dasharray:1.09719, 1.09719;paint-order:fill markers stroke"
         id="rect1-24"
         width="221.39223"
         height="12.049138"
         x="11.599446"
         y="147.50209"
         ry="6.024569" /><rect
         style="fill:#007894;fill-opacity:1;stroke-width:0.0568949;stroke-dasharray:0.11379, 0.11379;paint-order:fill markers stroke"
         id="rect1-3-7"
         width="2.3812535"
         height="12.049138"
         x="37.917255"
         y="147.50209"
         ry="0" /><rect
         style="fill:#007894;fill-opacity:1;stroke-width:0.0568949;stroke-dasharray:0.11379, 0.11379;paint-order:fill markers stroke"
         id="rect1-3-7-3"
         width="2.3812535"
         height="12.049138"
         x="42.991886"
         y="147.50209"
         ry="0" /><rect
         style="fill:#007894;fill-opacity:1;stroke-width:0.0857498;stroke-dasharray:0.1715, 0.1715;paint-order:fill markers stroke"
         id="rect1-3-1-8"
         width="5.4091196"
         height="12.049138"
         x="109.13061"
         y="147.50209"
         ry="0" /><rect
         style="fill:#007894;fill-opacity:1;stroke-width:0.0857498;stroke-dasharray:0.1715, 0.1715;paint-order:fill markers stroke"
         id="rect1-3-3-5"
         width="5.4091196"
         height="12.049138"
         x="164.69316"
         y="147.50209"
         ry="0" /></g><text
       xml:space="preserve"
       style="font-size:9.62006px;line-height:1.25;font-family:Calibri, Calibri_MSFontService, sans-serif;-inkscape-font-specification:'Calibri, Calibri_MSFontService, sans-serif, Normal';writing-mode:vertical-lr;stroke-width:0.264583"
       x="-80.825569"
       y="105.97032"
       id="text5-4-6"
       transform="rotate(-90,32.764939,-16.576706)"><tspan
         sodipodi:role="line"
         id="tspan5-8-5"
         x="-80.825569"
         y="105.97032"
         style="font-style:normal;font-variant:normal;font-weight:normal;font-stretch:normal;font-family:'DIN Next W1G';-inkscape-font-specification:'DIN Next W1G';stroke-width:0.264583">Indicine</tspan></text><path
       style="fill:none;stroke:#007894;stroke-width:1.098;stroke-dasharray:none;stroke-opacity:1"
       d="m -5.5562144,81.67133 c 0.2524346,0.16558 4.041409,-8.89678 1.6163256,-13.34571 2.4456627,0.72963 3.0972367,7.86097 1.4673609,11.2151 -1.7723631,3.91695 1.6618316,7.53662 3.6080429,10.7465 -0.1415139,3.24889 -4.733428,1.40086 -6.3057617,3.87309 -4.4811884,-0.55181 -2.5173494,6.65438 -7.3831853,6.5784 -2.750254,1.2049 -3.803151,3.11729 -4.598532,5.32302 -0.926351,2.56893 0.483609,7.87676 0.166592,8.19086 -1.085751,1.07573 -1.780333,1.28842 -3.317099,-0.24643 -0.605668,-2.49697 0.07354,-11.20967 -2.080328,-13.70533 -4.237643,-1.05607 -6.605195,5.4938 -7.930166,5.45337 -2.264342,-0.0691 -5.411865,-6.44043 -7.630938,-4.04877 -1.169421,3.6549 -3.141024,7.62906 -1.632007,11.48639 2.196992,1.49296 1.878591,3.8378 -1.27475,2.52102 -1.603608,-1.16647 -1.064663,-3.7439 -1.210979,-6.33864 -1.682248,-4.00413 0.632682,-8.08719 -1.598396,-11.95477 -0.473356,-1.43234 -1.291068,-4.83394 -1.073066,-1.30471 0.02909,4.1464 -0.765501,8.30466 -0.377392,12.47898 0.06099,1.69641 0.308149,7.91421 -0.596703,4.83139 0.216488,2.37626 -0.781106,-2.28486 -0.499754,0.59976 -0.432123,-2.64118 -0.550786,1.21904 -1.073142,-1.01228 -0.329226,-3.36196 -0.04769,3.36598 -0.223626,-1.01342 0.743895,-4.29615 1.455844,-5.47397 1.914656,-9.76958 1.018422,-4.43969 -1.207713,-9.28733 0.665957,-13.39463 2.885128,-2.47768 6.640362,-3.89165 10.410833,-3.06549 4.876737,-0.35343 12.08242,2.14636 13.7259,-1.05684 5.890109,-11.48007 6.498978,-1.4303 11.0138949,-0.33266 5.8544545,1.42332 -2.5306069,-4.26267 -0.6222359,-7.38726 0.7125119,-2.47287 0.7985499,-8.19642 1.6982539,-8.78523 1.589604,4.54796 -0.05948,11.36499 3.1402447,13.46387 z"
       id="path3-0"
       sodipodi:nodetypes="scccccasccsccccccccccccccssccs"
       transform="translate(49.341646,16.188233)" /></g><g
     inkscape:groupmode="layer"
     id="layer4"
     inkscape:label="4"
     transform="translate(5.7951439e-7,-1.5874987)"><path
       style="fill:none;fill-opacity:1;stroke:url(#linearGradient2);stroke-width:1.098;stroke-dasharray:none"
       d="m -1.0048283,78.894076 4.9490929,3.29942 c -0.9520047,0.28134 -3.3600626,-0.47978 -3.9409402,0.29023 -1.3462873,1.78447 2.0776355,4.15095 0.098104,5.7719 -1.2384759,1.01417 -3.0180601,-0.59048 -3.8687227,0.0813 -0.5649286,0.44621 -0.1577925,1.49744 -0.323334,2.10493 -0.3520051,1.29196 -1.7319091,4.05069 -2.6319647,5.02154 -0.971938,1.0486 -3.030143,0.717 -3.731244,2.0019 -0.429306,0.7867 -0.05872,1.63342 -0.09144,2.46241 -0.06135,1.578514 -1.124487,2.745094 -0.37471,4.330454 0.426513,0.90198 2.197621,1.91162 2.213619,2.86457 0.0093,0.72975 -1.11119,0.63553 -1.578432,0.64108 l 0.206016,1.23729 c -1.325185,0.3155 -3.435121,0.45801 -3.711857,-1.23729 -1.785192,-0.13936 -1.139764,-1.82887 -0.920539,-3.09319 0.295092,-1.70107 -0.180957,-3.64776 -0.298197,-5.361574 -0.04583,-0.66606 0.16067,-1.61651 -0.23062,-2.20278 -0.539455,-0.80834 -2.456642,-0.51675 -3.293626,-0.45942 -3.052197,0.20887 -6.009693,1.59919 -9.073423,0.95352 -1.483914,-0.31281 -2.918127,-1.82784 -4.330496,-1.9017 -1.35192,-0.0712 -2.3203,1.24489 -2.680761,2.37313 l -1.64971,-0.20599 -0.618645,-1.03107 h -0.206016 c -1.788702,3.225374 -1.436505,5.685904 -0.292848,9.073414 0.295737,0.87576 2.036979,2.35968 1.78746,3.20993 -0.215825,0.73639 -1.784954,0.5421 -2.315552,0.38374 -1.106938,-0.32993 -2.354754,-2.28587 -2.272249,-3.38748 -2.905568,-0.0953 0.01678,-4.37458 -1.443497,-5.98017 l -0.412285,-1.855984 c 1.415686,-2.35436 1.23645,-4.80065 -0.824858,-6.80509 l -0.276732,6.43323 0.453371,2.379254 0.02937,4.17901 c -3.136904,-2.68944 -0.742806,-5.790644 -1.093569,-9.018284 -0.41618,-3.83064 -1.709279,-9.1539 1.367653,-12.38907 1.185314,-1.24634 3.065973,-1.47084 4.675053,-1.73949 4.823117,-0.80541 8.692338,0.74665 13.403874,1.06356 1.87142,0.12584 5.017629,-0.0921 6.590616,-1.18878 1.256456,-0.87608 1.688673,-2.66829 3.307877,-3.04197 2.756725,-0.63628 4.812566,1.82669 7.629739,1.15598 -1.329867,-1.13509 -2.629247,-1.9808 -2.062167,-3.91805 0.951049,0.80651 1.504423,2.00112 2.680761,2.5627 3.0640378,1.4627 5.5674233,-0.26518 5.5677806,-3.38756 2.0087394,0.63403 1.0575237,3.62801 -0.4124504,4.33048"
       id="path151643"
       transform="translate(49.341646,16.188233)" /><g
       id="g5"
       transform="translate(49.341646,-103.78505)"><rect
         style="fill:#c8c8c8;fill-opacity:1;stroke-width:0.548593;stroke-dasharray:1.09719, 1.09719;paint-order:fill markers stroke"
         id="rect1-2"
         width="221.39223"
         height="12.049138"
         x="11.599448"
         y="205.95552"
         ry="6.024569" /><rect
         style="fill:#a7117a;fill-opacity:1;stroke-width:0.0857498;stroke-dasharray:0.1715, 0.1715;paint-order:fill markers stroke"
         id="rect1-3-0-7"
         width="5.4091196"
         height="12.049138"
         x="82.143066"
         y="205.95552"
         ry="0" /><rect
         style="fill:#007894;fill-opacity:1;stroke-width:0.0857498;stroke-dasharray:0.1715, 0.1715;paint-order:fill markers stroke"
         id="rect1-3-1-6"
         width="5.4091196"
         height="12.049138"
         x="109.13061"
         y="205.95552"
         ry="0" /><rect
         style="fill:#007894;fill-opacity:1;stroke-width:0.0857498;stroke-dasharray:0.1715, 0.1715;paint-order:fill markers stroke"
         id="rect1-3-1-6-9"
         width="5.4091196"
         height="12.049138"
         x="164.69316"
         y="205.95552"
         ry="0" /></g><path
       style="fill:none;stroke:#000000;stroke-width:1;stroke-linecap:butt;stroke-linejoin:miter;stroke-dasharray:4, 4;stroke-dashoffset:0;stroke-opacity:1"
       d="M 97.586916,79.036553 V 104.97707"
       id="path1"
       transform="translate(49.341646,16.188233)" /><text
       xml:space="preserve"
       style="font-size:9.62006px;line-height:1.25;font-family:Calibri, Calibri_MSFontService, sans-serif;-inkscape-font-specification:'Calibri, Calibri_MSFontService, sans-serif, Normal';writing-mode:vertical-lr;stroke-width:0.264583"
       x="-80.931389"
       y="120.12715"
       id="text5-4-6-5"
       transform="rotate(-90,32.764939,-16.576706)"><tspan
         sodipodi:role="line"
         id="tspan5-8-5-3"
         x="-80.931389"
         y="120.12715"
         style="font-style:normal;font-variant:normal;font-weight:normal;font-stretch:normal;font-family:'DIN Next W1G';-inkscape-font-specification:'DIN Next W1G';stroke-width:0.264583">?</tspan></text></g></svg>
