<?xml version="1.0" encoding="UTF-8" standalone="no"?>
<svg
   width="145.61205mm"
   height="45.2962mm"
   viewBox="0 0 412.75839 128.39878"
   version="1.2"
   id="svg59"
   sodipodi:docname="impg.svg"
   inkscape:version="1.4 (e7c3feb1, 2024-10-09)"
   xmlns:inkscape="http://www.inkscape.org/namespaces/inkscape"
   xmlns:sodipodi="http://sodipodi.sourceforge.net/DTD/sodipodi-0.dtd"
   xmlns="http://www.w3.org/2000/svg"
   xmlns:svg="http://www.w3.org/2000/svg"
   xmlns:rdf="http://www.w3.org/1999/02/22-rdf-syntax-ns#"
   xmlns:cc="http://creativecommons.org/ns#"
   xmlns:dc="http://purl.org/dc/elements/1.1/">
  <sodipodi:namedview
     id="namedview59"
     pagecolor="#ffffff"
     bordercolor="#666666"
     borderopacity="1.0"
     inkscape:showpageshadow="2"
     inkscape:pageopacity="0.0"
     inkscape:pagecheckerboard="0"
     inkscape:deskcolor="#d1d1d1"
     inkscape:document-units="mm"
     showgrid="false"
     inkscape:zoom="0.19437668"
     inkscape:cx="-293.24505"
     inkscape:cy="437.29525"
     inkscape:window-width="1440"
     inkscape:window-height="847"
     inkscape:window-x="0"
     inkscape:window-y="1036"
     inkscape:window-maximized="1"
     inkscape:current-layer="svg59" />
  <title
     id="title1">Qt SVG Document</title>
  <desc
     id="desc1">Generated with Qt</desc>
  <defs
     id="defs1" />
  <g
     id="g59">
    <path
       vector-effect="none"
       fill-rule="evenodd"
       d="m 319.10825,74.18687 c 5.8311,-4.92663 1.15512,-17.01591 8.78951,-17.07931"
       id="path6"
       style="font-style:normal;font-weight:400;font-size:13px;font-family:'.AppleSystemUIFont';fill:none;stroke:#000000;stroke-width:2.29048;stroke-linecap:round;stroke-linejoin:bevel;stroke-opacity:0.705882" />
    <path
       vector-effect="none"
       fill-rule="evenodd"
       d="m 313.60489,43.9926 c 6.8424,3.38485 6.65848,13.17836 14.29287,13.11496"
       id="path9"
       style="font-style:normal;font-weight:400;font-size:13px;font-family:'.AppleSystemUIFont';fill:none;stroke:#000000;stroke-width:2.29048;stroke-linecap:round;stroke-linejoin:bevel;stroke-opacity:0.705882" />
    <path
       vector-effect="none"
       fill-rule="evenodd"
       d="m 84.834822,60.38876 c 7.63182,-0.17464 2.94826,12.15245 8.91136,16.91959"
       id="path12"
       style="font-style:normal;font-weight:400;font-size:13px;font-family:'.AppleSystemUIFont';fill:none;stroke:#000000;stroke-width:2.29048;stroke-linecap:round;stroke-linejoin:bevel;stroke-opacity:0.705882" />
    <path
       vector-effect="none"
       fill-rule="evenodd"
       d="m 230.81134,24.01591 c 7.63447,3.9e-4 9.101,-12.35553 16.20277,-9.55293"
       id="path15"
       style="font-style:normal;font-weight:400;font-size:13px;font-family:'.AppleSystemUIFont';fill:none;stroke:#000000;stroke-width:2.29048;stroke-linecap:round;stroke-linejoin:bevel;stroke-opacity:0.705882" />
    <path
       vector-effect="none"
       fill-rule="evenodd"
       d="M 175.08888,14.38733 C 182.19347,11.59017 182.48784,2.2969 190.12311,2.29184"
       id="path18"
       style="font-style:normal;font-weight:400;font-size:13px;font-family:'.AppleSystemUIFont';fill:none;stroke:#000000;stroke-width:2.29048;stroke-linecap:round;stroke-linejoin:bevel;stroke-opacity:0.705882" />
    <path
       vector-effect="none"
       fill-rule="evenodd"
       d="m 231.99173,2.26513 c 7.63527,-0.005 7.92061,9.39525 15.02238,12.19785"
       id="path21"
       style="font-style:normal;font-weight:400;font-size:13px;font-family:'.AppleSystemUIFont';fill:none;stroke:#000000;stroke-width:2.29048;stroke-linecap:round;stroke-linejoin:bevel;stroke-opacity:0.705882" />
    <path
       vector-effect="none"
       fill-rule="evenodd"
       d="m 84.834822,60.38876 c 7.63182,-0.17464 7.55338,-9.54683 14.43073,-12.86517"
       id="path24"
       style="font-style:normal;font-weight:400;font-size:13px;font-family:'.AppleSystemUIFont';fill:none;stroke:#000000;stroke-width:2.29048;stroke-linecap:round;stroke-linejoin:bevel;stroke-opacity:0.705882" />
    <path
       vector-effect="none"
       fill-rule="evenodd"
       d="m 175.08888,14.38733 c 7.10459,-2.79716 8.45839,9.631 16.09389,9.63025"
       id="path27"
       style="font-style:normal;font-weight:400;font-size:13px;font-family:'.AppleSystemUIFont';fill:none;stroke:#000000;stroke-width:2.29048;stroke-linecap:round;stroke-linejoin:bevel;stroke-opacity:0.705882" />
    <path
       vector-effect="none"
       fill-rule="nonzero"
       d="M 190.12157,0.0257 231.99132,0 l 0.002,4.53127 -41.86862,0.0267 -0.003,-4.53229"
       id="path30"
       style="font-style:normal;font-weight:400;font-size:13px;font-family:'.AppleSystemUIFont';fill:#dcdcdc;fill-opacity:1;stroke:none;stroke-width:1.52699;stroke-linecap:square;stroke-linejoin:bevel" />
    <path
       vector-effect="none"
       fill-rule="nonzero"
       d="m 95.161022,75.53914 33.716208,26.95678 -1.41484,1.76921 0.89696,-2.07951 38.30511,16.52351 -0.89696,2.07951 0.29253,-2.24582 40.93474,5.3427 -0.29241,2.24798 -0.34296,-2.24075 40.92023,-6.26338 0.34296,2.24075 -0.94652,-2.05895 38.19294,-17.55915 0.94652,2.05895 -1.46138,-1.73149 33.2917,-28.12297 2.92378,3.46185 -33.2917,28.12297 c -0.15941,0.13591 -0.33323,0.24445 -0.51588,0.32859 l 0.001,-10e-4 -38.19396,17.56028 c -0.19322,0.089 -0.39663,0.14829 -0.60367,0.17965 v 0 l -40.92024,6.26337 c -0.21021,0.0326 -0.42416,0.0351 -0.6364,0.008 l 0.001,-0.001 -40.93475,-5.3427 c -0.20679,-0.026 -0.41084,-0.0824 -0.60443,-0.1663 v 0 l -38.30624,-16.52454 c -0.18248,-0.0781 -0.35655,-0.18141 -0.51789,-0.3103 v 0 l -33.715188,-26.95791 2.82969,-3.53842"
       id="path34"
       style="font-style:normal;font-weight:400;font-size:13px;font-family:'.AppleSystemUIFont';fill:#dcdcdc;fill-opacity:1;stroke:none;stroke-width:1.52699;stroke-linecap:square;stroke-linejoin:bevel" />
    <path
       vector-effect="none"
       fill-rule="nonzero"
       d="M 98.281122,45.48392 135.27074,27.6362 c 0.0506,-0.0243 0.10239,-0.0475 0.15325,-0.0675 v 0 l 38.83473,-15.28967 1.66032,4.21655 -38.83473,15.28967 -0.83016,-2.10827 0.98557,2.04069 -36.98962,17.84772 -1.968978,-4.0815"
       id="path38"
       style="font-style:normal;font-weight:400;font-size:13px;font-family:'.AppleSystemUIFont';fill:#dcdcdc;fill-opacity:1;stroke:none;stroke-width:1.52699;stroke-linecap:square;stroke-linejoin:bevel" />
    <path
       vector-effect="none"
       fill-rule="nonzero"
       d="m 247.84582,12.35552 34.18769,13.49699 c 0.0584,0.0218 0.11598,0.0469 0.17261,0.0753 l 1.1e-4,0.002 32.40195,16.03161 -2.00874,4.06211 -32.40308,-16.03262 1.00544,-2.03112 -0.83171,2.10746 -34.18871,-13.49586 1.66444,-4.21605"
       id="path42"
       style="font-style:normal;font-weight:400;font-size:13px;font-family:'.AppleSystemUIFont';fill:#dcdcdc;fill-opacity:1;stroke:none;stroke-width:1.52699;stroke-linecap:square;stroke-linejoin:bevel" />
    <path
       vector-effect="none"
       fill-rule="nonzero"
       d="m 191.18236,21.75245 39.62857,-0.002 9.3e-4,4.5324 -39.62971,6.4e-4 2.1e-4,-4.53138"
       id="path46"
       style="font-style:normal;font-weight:400;font-size:13px;font-family:'.AppleSystemUIFont';fill:#dcdcdc;fill-opacity:1;stroke:none;stroke-width:1.52699;stroke-linecap:square;stroke-linejoin:bevel" />
    <path
       vector-effect="none"
       fill-rule="nonzero"
       d="m 0.01237184,60.02123 0.0448,2.26605 L -5.2816346e-4,60.02191 38.172812,59.04852 l 0.006,-3.3e-4 v 0 l 46.60427,-0.92514 0.10137,4.5304 -46.60211,0.92502 -0.0523,-2.26457 0.0577,2.26537 -38.17335016,0.97339 c -0.005,-8e-4 -0.0141,-3.5e-4 -0.0141,-3.5e-4 v 0"
       id="path50"
       style="font-style:normal;font-weight:400;font-size:13px;font-family:'.AppleSystemUIFont';fill:#dcdcdc;fill-opacity:1;stroke:none;stroke-width:1.52699;stroke-linecap:square;stroke-linejoin:bevel"
       sodipodi:nodetypes="ccccccccccccsc" />
    <path
       vector-effect="none"
       fill-rule="nonzero"
       d="m 327.87885,54.84016 46.65646,-0.33969 c 0.0108,-5.6e-4 0.0325,4.7e-4 0.0325,4.7e-4 v 0 l 38.19054,0.22586 -0.0136,2.26694 0.007,-2.2666 -0.0141,4.53101 c -0.002,1.2e-4 -0.006,3.4e-4 -0.006,3.4e-4 v 0 l -38.19054,-0.22586 0.0136,-2.26694 0.0188,2.26525 -46.65634,0.34184 -0.0377,-4.53264"
       id="path54"
       style="font-style:normal;font-weight:400;font-size:13px;font-family:'.AppleSystemUIFont';fill:#dcdcdc;fill-opacity:1;stroke:none;stroke-width:1.52699;stroke-linecap:square;stroke-linejoin:bevel"
       sodipodi:nodetypes="ccscccccscccccc" />
  </g>
  <metadata
     id="metadata59">
    <rdf:RDF>
      <cc:Work
         rdf:about="">
        <dc:title>Qt SVG Document</dc:title>
      </cc:Work>
    </rdf:RDF>
  </metadata>
</svg>
