<?xml version="1.0" encoding="UTF-8" standalone="no"?>
<!-- Created with Inkscape (http://www.inkscape.org/) -->

<svg
   width="325.52374mm"
   height="133.15091mm"
   viewBox="0 0 325.52374 133.15092"
   version="1.1"
   id="svg1"
   inkscape:version="1.4.2 (ebf0e940, 2025-05-08)"
   sodipodi:docname="mapping_bias.svg"
   xmlns:inkscape="http://www.inkscape.org/namespaces/inkscape"
   xmlns:sodipodi="http://sodipodi.sourceforge.net/DTD/sodipodi-0.dtd"
   xmlns:xlink="http://www.w3.org/1999/xlink"
   xmlns="http://www.w3.org/2000/svg"
   xmlns:svg="http://www.w3.org/2000/svg">
  <sodipodi:namedview
     id="namedview1"
     pagecolor="#ffffff"
     bordercolor="#666666"
     borderopacity="1.0"
     inkscape:showpageshadow="2"
     inkscape:pageopacity="0.0"
     inkscape:pagecheckerboard="0"
     inkscape:deskcolor="#d1d1d1"
     inkscape:document-units="mm"
     inkscape:zoom="0.80982752"
     inkscape:cx="656.93001"
     inkscape:cy="243.26168"
     inkscape:window-width="2560"
     inkscape:window-height="1387"
     inkscape:window-x="1440"
     inkscape:window-y="25"
     inkscape:window-maximized="1"
     inkscape:current-layer="layer1"
     showgrid="false" />
  <defs
     id="defs1">
    <linearGradient
       id="linearGradient1"
       inkscape:collect="always">
      <stop
         style="stop-color:#a7117a;stop-opacity:1;"
         offset="0"
         id="stop1" />
      <stop
         style="stop-color:#007894;stop-opacity:1;"
         offset="1"
         id="stop2" />
    </linearGradient>
    <linearGradient
       inkscape:collect="always"
       xlink:href="#linearGradient1"
       id="linearGradient2-0"
       x1="-14.869065"
       y1="150.5127"
       x2="-36.126789"
       y2="168.35004"
       gradientUnits="userSpaceOnUse"
       gradientTransform="matrix(1.0891454,0,0,1.0891454,-100.65787,-47.348466)" />
  </defs>
  <g
     inkscape:label="1"
     inkscape:groupmode="layer"
     id="layer1"
     transform="translate(144.91388,-19.123744)"
     style="display:inline">
    <rect
       style="fill:#c8c8c8;fill-opacity:1;stroke-width:0.334764;stroke-dasharray:0.669531, 0.669531;paint-order:fill markers stroke"
       id="rect1"
       width="135.09874"
       height="7.3526669"
       x="-109.16003"
       y="45.569904"
       ry="3.6763334" />
    <rect
       style="fill:#007894;fill-opacity:1;stroke-width:0.0523265;stroke-dasharray:0.104653, 0.104653;paint-order:fill markers stroke"
       id="rect1-3-6"
       width="3.300772"
       height="7.3526669"
       x="-66.112648"
       y="45.569904"
       ry="0" />
    <rect
       style="fill:#007894;fill-opacity:1;stroke-width:0.0523265;stroke-dasharray:0.104653, 0.104653;paint-order:fill markers stroke"
       id="rect1-3-1"
       width="3.300772"
       height="7.3526669"
       x="-49.644226"
       y="45.569904"
       ry="0" />
    <rect
       style="fill:#007894;fill-opacity:1;stroke-width:0.0523265;stroke-dasharray:0.104653, 0.104653;paint-order:fill markers stroke"
       id="rect1-3-3"
       width="3.300772"
       height="7.3526669"
       x="-15.738643"
       y="45.569904"
       ry="0" />
    <rect
       style="fill:#c8c8c8;fill-opacity:1;stroke-width:0.334764;stroke-dasharray:0.669531, 0.669531;paint-order:fill markers stroke"
       id="rect1-9"
       width="135.09874"
       height="7.3526669"
       x="-109.16003"
       y="83.386108"
       ry="3.6763334" />
    <rect
       style="fill:#c8c8c8;fill-opacity:1;stroke-width:0.0739359;stroke-dasharray:0.147872, 0.147872;paint-order:fill markers stroke"
       id="rect1-2-7"
       width="21.167572"
       height="2.2890596"
       x="-103.96731"
       y="120.99467"
       ry="0" />
    <rect
       style="fill:#c8c8c8;fill-opacity:1;stroke-width:0.0739359;stroke-dasharray:0.147872, 0.147872;paint-order:fill markers stroke"
       id="rect1-2-7-6"
       width="21.167572"
       height="2.2890596"
       x="-76.925079"
       y="120.99467"
       ry="0" />
    <rect
       style="fill:#a7117a;fill-opacity:1;stroke-width:0.0292041;stroke-dasharray:0.0584085, 0.0584085;paint-order:fill markers stroke"
       id="rect1-2-7-6-8"
       width="3.3025322"
       height="2.2890596"
       x="-67.626251"
       y="120.99467"
       ry="0" />
    <rect
       style="fill:#c8c8c8;fill-opacity:1;stroke-width:0.0739359;stroke-dasharray:0.147872, 0.147872;paint-order:fill markers stroke"
       id="rect1-2-7-9"
       width="21.167572"
       height="2.2890596"
       x="-50.851582"
       y="120.99467"
       ry="0" />
    <rect
       style="fill:#c8c8c8;fill-opacity:1;stroke-width:0.0739359;stroke-dasharray:0.147872, 0.147872;paint-order:fill markers stroke"
       id="rect1-2-7-7"
       width="21.167572"
       height="2.2890596"
       x="-43.98254"
       y="125.46807"
       ry="0" />
    <rect
       style="fill:#c8c8c8;fill-opacity:1;stroke-width:0.0739359;stroke-dasharray:0.147872, 0.147872;paint-order:fill markers stroke"
       id="rect1-2-7-5"
       width="21.167572"
       height="2.2890596"
       x="-62.560783"
       y="129.94145"
       ry="0" />
    <rect
       style="fill:#c8c8c8;fill-opacity:1;stroke-width:0.0739359;stroke-dasharray:0.147872, 0.147872;paint-order:fill markers stroke"
       id="rect1-2-7-5-5"
       width="21.167572"
       height="2.2890596"
       x="-71.876038"
       y="125.46807"
       ry="0" />
    <rect
       style="fill:#c8c8c8;fill-opacity:1;stroke-width:0.0739359;stroke-dasharray:0.147872, 0.147872;paint-order:fill markers stroke"
       id="rect1-2-7-4"
       width="21.167572"
       height="2.2890596"
       x="-93.344864"
       y="129.94145"
       ry="0" />
    <rect
       style="fill:#c8c8c8;fill-opacity:1;stroke-width:0.0739359;stroke-dasharray:0.147872, 0.147872;paint-order:fill markers stroke"
       id="rect1-2-7-8"
       width="21.167572"
       height="2.2890596"
       x="-99.769539"
       y="125.46807"
       ry="0" />
    <rect
       style="fill:#c8c8c8;fill-opacity:1;stroke-width:0.0739359;stroke-dasharray:0.147872, 0.147872;paint-order:fill markers stroke"
       id="rect1-2-7-69"
       width="21.167572"
       height="2.2890596"
       x="-31.776703"
       y="129.94145"
       ry="0" />
    <rect
       style="fill:#c8c8c8;fill-opacity:1;stroke-width:0.0739359;stroke-dasharray:0.147872, 0.147872;paint-order:fill markers stroke"
       id="rect1-2-7-78"
       width="21.167572"
       height="2.2890596"
       x="-3.5759022"
       y="129.94145"
       ry="0" />
    <path
       d="m -122.8715,95.307145 c 0.15994,-0.0679 0.0791,-0.265947 -0.25127,-0.616203 -0.42595,-0.451486 -0.47719,-0.649034 -0.409,-1.576958 0.0428,-0.583453 0.18692,-1.603291 0.32011,-2.266305 0.2308,-1.148935 0.26864,-1.205478 0.80661,-1.205478 0.61893,0 1.75737,-0.977206 1.98914,-1.70743 0.0723,-0.227802 0.20574,-0.414201 0.29654,-0.414201 0.34202,0 1.35193,-1.013209 1.35193,-1.35635 0,-0.196718 0.19529,-0.494568 0.43398,-0.661885 0.58719,-0.41161 2.43746,-0.206741 3.65823,0.405042 0.91747,0.459809 1.50119,0.579846 1.50119,0.308791 0,-0.08078 0.18818,-0.232831 0.4182,-0.337533 0.83385,-0.379638 0.83169,-0.709123 -0.0133,-2.01639 -0.43777,-0.677295 -0.92041,-1.650597 -1.07253,-2.162886 -0.26856,-0.904363 -0.26289,-0.9462 0.19548,-1.440797 0.45519,-0.491158 0.6808,-1.569205 0.27606,-1.31906 -0.10782,0.06673 -0.19311,0.195752 -0.12136,0.321014 0.075,0.196205 -0.31572,0.121604 -0.52237,0.26248 -0.4742,0.332151 -1.28187,0.375613 -1.28187,0.06892 0,-0.117506 -0.12915,-0.163939 -0.28701,-0.103312 -0.15784,0.06059 -0.26633,0.01566 -0.24109,-0.09995 0.0252,-0.115605 -0.0587,-0.248477 -0.18628,-0.295465 -0.13476,-0.04961 -0.30218,0.18308 -0.39898,0.554506 l -0.1668,0.639951 -1.3369,-0.06629 c -1.96511,-0.09746 -3.48233,-0.336204 -4.99241,-0.785568 -1.22696,-0.365091 -1.82215,-0.398207 -7.00082,-0.389367 -3.57019,0.0059 -6.1728,-0.07639 -7.04915,-0.223117 -1.18786,-0.199031 -1.57285,-0.186651 -2.65531,0.08546 -0.69633,0.174986 -1.39614,0.318174 -1.55516,0.318174 -0.15901,0 -0.54404,0.266227 -0.85561,0.591603 -0.56034,0.585192 -0.56674,0.617196 -0.58799,2.941371 -0.0205,2.240399 -0.77082,3.772113 -1.03568,4.200667 -0.0653,0.105801 0.44106,-0.09394 0.49822,-0.09394 0.0571,0 0.43713,-0.846954 0.65145,-1.267056 0.31833,-0.623969 0.38968,-1.137589 0.38968,-2.805468 0,-1.933477 0.0262,-2.067812 0.49388,-2.535528 0.27163,-0.27164 0.53805,-0.4497 0.59203,-0.395717 0.054,0.05385 -0.0944,0.545901 -0.32984,1.09312 l -0.42802,0.994959 0.3545,1.552099 c 0.30894,1.352689 0.32646,1.774176 0.13631,3.280662 -0.13452,1.065828 -0.37116,1.987827 -0.61719,2.404805 -0.21944,0.371968 -0.36014,0.739182 -0.31261,0.816052 0.19484,0.315308 1.11756,4.402648 1.10472,4.893628 -0.0132,0.501415 0.0332,0.530418 0.84631,0.530418 0.95754,0 1.0219,-0.08502 0.50114,-0.662647 -0.46486,-0.515566 -0.79822,-1.524985 -0.79822,-2.417146 0,-0.818389 0.54729,-2.802134 0.72426,-2.625169 0.21323,0.213224 0.79621,2.695381 0.80763,3.43866 0.005,0.397816 0.0924,0.723291 0.19178,0.723291 0.0994,0 0.20785,0.282076 0.2411,0.626852 0.0536,0.556677 0.13335,0.633809 0.71181,0.689107 0.883,0.08444 1.17868,-0.237456 0.64408,-0.701104 -0.56204,-0.487471 -0.81327,-1.225493 -0.81327,-2.389155 0,-1.350449 0.3568,-2.461653 0.80204,-2.497919 0.19538,-0.01593 0.46372,-0.03777 0.59632,-0.04827 0.13261,-0.01025 0.30487,-0.106093 0.38281,-0.212156 0.0877,-0.119555 0.14282,-0.101114 0.14465,0.04827 0.002,0.132583 0.0897,0.241087 0.19583,0.241087 0.10607,0 0.1956,-0.108431 0.19893,-0.241087 0.004,-0.132577 0.2182,-0.395437 0.4775,-0.584082 0.44503,-0.323809 0.52619,-0.325096 1.44982,-0.02313 0.7377,0.241294 1.32015,0.28888 2.36745,0.193459 3.58698,-0.326903 4.13891,-0.348602 4.25099,-0.167281 0.0645,0.104342 0.15862,1.50494 0.20911,3.112311 0.0505,1.607343 0.14471,3.008105 0.20941,3.112788 0.16359,0.26466 1.39201,0.239171 1.55985,-0.03234 0.0757,-0.122484 0.0558,-0.172151 -0.0441,-0.110341 -0.1,0.0619 -0.29785,-0.149944 -0.43976,-0.470525 -0.33872,-0.765196 -0.17783,-3.082674 0.28565,-4.1148 l 0.34645,-0.771505 0.19472,0.964385 c 0.10709,0.530406 0.19817,1.593647 0.20243,2.362726 0.004,0.769119 0.0806,1.398376 0.16974,1.398376 0.0891,0 0.13412,0.238682 0.1,0.530418 -0.0565,0.483694 -0.004,0.533714 0.61305,0.567972 0.37129,0.02075 0.78113,-0.0061 0.91074,-0.06248 z m -21.11748,-6.596658 c -0.072,-0.187772 -0.0318,-0.240031 0.11482,-0.149376 0.13677,0.08458 0.22567,0.01654 0.22567,-0.172614 0,-0.171638 0.0867,-0.258418 0.19287,-0.192874 0.11209,0.06922 0.19287,-0.121312 0.19287,-0.455025 0,-0.315833 0.0593,-0.728759 0.13176,-0.917624 0.11088,-0.288934 0.0323,-0.272544 -0.49558,0.103317 -0.94077,0.669904 -1.29254,2.072991 -0.51971,2.072991 0.15887,0 0.22297,-0.117651 0.15729,-0.288807 z"
       style="fill:none;fill-opacity:1;stroke:#a7117a;stroke-width:0.68381;stroke-dasharray:none;stroke-opacity:1"
       id="path150986-3" />
    <path
       style="fill:none;fill-opacity:1;stroke:#007894;stroke-width:0.68381;stroke-dasharray:none;stroke-opacity:1"
       d="m -135.41003,58.705457 c 0.21931,0 0.58265,-0.203235 0.80745,-0.451635 0.3821,-0.422217 0.37869,-0.478832 -0.0525,-0.86904 -0.25367,-0.229571 -0.82047,-1.196786 -1.25954,-2.149385 -0.6731,-1.460294 -0.78102,-1.940781 -0.68796,-3.062906 0.0607,-0.732026 0.19279,-1.413352 0.2935,-1.514075 0.10073,-0.100635 0.58932,0.263192 1.08575,0.80868 0.49642,0.545486 0.92627,1.501484 1.65181,1.945888 0.39482,0.241824 0.89584,0.400436 1.35171,0.319533 0.43007,-0.07634 0.82351,-0.673821 1.09365,-0.72182 0.27922,-0.04967 0.6777,-0.483515 0.92355,-1.005619 0.42246,-0.897205 0.46356,-0.918322 1.78685,-0.918322 h 1.35446 l -0.18036,0.675846 c -0.0992,0.371725 -0.15874,1.007634 -0.13236,1.413144 0.0264,0.405521 -0.12672,1.360376 -0.34024,2.121896 -0.36026,1.284886 -0.35788,1.430907 0.033,2.027552 0.29323,0.447531 0.63682,0.642988 1.13031,0.642988 0.4535,0 0.70903,-0.127589 0.70903,-0.354167 0,-0.194752 -0.1245,-0.431085 -0.27668,-0.525121 -0.17763,-0.109825 -0.22875,-0.635375 -0.14282,-1.468016 0.0736,-0.713347 0.28107,-1.555332 0.461,-1.871053 0.30941,-0.542963 0.3338,-0.504406 0.45002,0.711635 0.0678,0.709372 0.31461,1.508108 0.55057,1.7818 0.23521,0.272862 0.58813,0.496083 0.78423,0.496083 0.1961,0 0.42478,-0.11038 0.50818,-0.245341 0.0833,-0.13495 -0.0207,-0.491314 -0.23127,-0.791972 -0.21058,-0.300637 -0.38289,-0.900626 -0.38289,-1.333299 0,-0.782017 0.004,-0.784611 0.69762,-0.438653 0.3837,0.191417 0.53806,-0.568632 0.94378,-0.48748 0.65356,0.130721 0.77403,0.05969 1.05643,-0.622011 0.17532,-0.423264 1.5885,-0.981571 2.22493,-1.650698 0.67838,-0.713226 0.9387,-1.764502 1.6386,-2.456622 0.29903,-0.295702 1.05735,-0.279627 1.05735,-0.688318 0,-0.373686 0.17918,-0.648413 0.48656,-0.745966 0.26762,-0.08495 0.67893,-0.04683 0.91403,0.08484 0.29607,0.165702 0.63214,0.133312 1.09346,-0.105214 0.36634,-0.189446 0.73571,-0.563971 0.82087,-0.832313 0.11194,-0.352645 -0.079,-0.721669 -0.68888,-1.33158 -0.46405,-0.464052 -1.1065,-1.314217 -1.42768,-1.889242 -0.32117,-0.575069 -0.86044,-1.24388 -1.19836,-1.486325 -0.33792,-0.24241 -0.91298,-0.511636 -1.2779,-0.598267 -0.50376,-0.119658 -0.80243,-0.01851 -1.24067,0.419669 -0.31747,0.317476 -0.88347,0.777879 -1.25778,1.023145 -0.67148,0.439959 -0.69179,0.437356 -1.52086,-0.195002 -0.46217,-0.352523 -0.9613,-0.867036 -1.10921,-1.143352 -0.14788,-0.276349 -0.72998,-0.7118 -1.29356,-0.967674 -0.56356,-0.255893 -1.38913,-0.467688 -1.83457,-0.470651 -0.5373,-0.0044 -1.01296,0.197646 -1.41314,0.597843 -0.33178,0.331776 -0.60325,0.879746 -0.60325,1.217696 0,0.511408 -0.14904,0.6424 -0.88876,0.781179 -0.4888,0.0916 -1.45999,0.03888 -2.15816,-0.117331 -0.69816,-0.15625 -1.9295,-0.555421 -2.73627,-0.887055 -0.96772,-0.397799 -1.95251,-0.604965 -2.89406,-0.608811 -0.78496,-0.0044 -1.91583,0.117185 -2.51302,0.267604 -0.59723,0.150356 -1.35698,0.524684 -1.68838,0.831779 -0.33138,0.30715 -0.76948,1.120645 -0.97355,1.807819 -0.20407,0.687195 -0.49792,2.607709 -0.65297,4.267816 -0.15507,1.660118 -0.47053,3.626647 -0.70102,4.370066 -0.34539,1.11401 -0.37054,1.546205 -0.14294,2.457666 0.1519,0.608267 0.36547,1.105951 0.47462,1.105951 0.10917,0 0.42623,-0.30509 0.70463,-0.677949 0.31433,-0.42102 0.49844,-1.0264 0.48582,-1.59746 -0.0113,-0.505766 -0.0953,-1.859607 -0.18687,-3.008535 -0.0916,-1.148961 -0.0744,-2.584357 0.0381,-3.189781 l 0.20469,-1.100788 0.76587,1.346543 c 0.72324,1.271599 0.74686,1.392691 0.42417,2.175307 -0.18794,0.455807 -0.34028,1.06405 -0.33856,1.351682 0.002,0.287633 -0.17978,1.305255 -0.40337,2.261395 -0.38925,1.664648 -0.38705,1.761158 0.0514,2.27335 0.25332,0.295823 0.74477,0.534869 1.0997,0.534869 0.35295,0 0.71181,-0.07003 0.79751,-0.15578 0.0857,-0.0856 -0.05,-0.417557 -0.30177,-0.737505 -0.37027,-0.47074 -0.41673,-0.757434 -0.24357,-1.503096 0.11769,-0.50679 0.21662,-1.020747 0.21984,-1.142112 0.004,-0.121428 0.28152,0.155117 0.61843,0.61441 0.33693,0.459292 0.88881,1.388061 1.22643,2.06392 0.33761,0.675847 0.61492,1.355669 0.61625,1.510731 0.002,0.155062 0.3035,0.625103 0.67154,1.044512 0.36801,0.419408 0.84855,0.762577 1.06784,0.762577 z"
       id="path81619-9-9" />
    <path
       style="fill:none;fill-opacity:1;stroke:url(#linearGradient2-0);stroke-width:0.670306;stroke-dasharray:none"
       d="m -116.85145,118.27301 3.02005,2.01339 c -0.58093,0.17168 -2.05039,-0.29277 -2.40485,0.1771 -0.82154,1.08893 1.26782,2.53301 0.0599,3.52216 -0.75575,0.61886 -1.84169,-0.36033 -2.36079,0.0496 -0.34473,0.27228 -0.0963,0.91377 -0.19731,1.28448 -0.21479,0.78837 -1.05685,2.47182 -1.60608,3.06426 -0.5931,0.63988 -1.84907,0.43753 -2.2769,1.2216 -0.26196,0.48007 -0.0358,0.99676 -0.0558,1.50262 -0.0374,0.96325 -0.68618,1.67512 -0.22866,2.64254 0.26028,0.55041 1.34104,1.16652 1.35081,1.74804 0.005,0.44531 -0.67808,0.3878 -0.9632,0.39119 l 0.12572,0.75502 c -0.80866,0.19254 -2.09619,0.27949 -2.26506,-0.75502 -1.08937,-0.085 -0.69551,-1.11602 -0.56174,-1.88754 0.18007,-1.03802 -0.11043,-2.22594 -0.18197,-3.27175 -0.028,-0.40645 0.0981,-0.98643 -0.14073,-1.34419 -0.32918,-0.49327 -1.4991,-0.31533 -2.00984,-0.28035 -1.86253,0.12746 -3.66726,0.97586 -5.53682,0.58186 -0.90552,-0.19088 -1.78071,-1.11539 -2.64257,-1.16046 -0.82497,-0.0435 -1.4159,0.75966 -1.63586,1.44814 l -1.00669,-0.1257 -0.37752,-0.62918 h -0.12571 c -1.09151,1.96819 -0.87659,3.46967 -0.1787,5.5368 0.18046,0.53442 1.24301,1.43994 1.09075,1.95878 -0.13171,0.44937 -1.08923,0.33081 -1.41301,0.23417 -0.67548,-0.20134 -1.43693,-1.3949 -1.38658,-2.06712 -1.77304,-0.0581 0.0102,-2.66947 -0.88086,-3.64924 l -0.25158,-1.13256 c 0.86388,-1.43669 0.75451,-2.92948 -0.50335,-4.15263 l -0.16886,3.92571 0.27665,1.45187 0.0179,2.55013 c -1.91421,-1.64116 -0.45328,-3.53358 -0.66732,-5.50317 -0.25396,-2.33754 -1.04304,-5.58592 0.83457,-7.5601 0.72331,-0.76054 1.87093,-0.89753 2.85283,-1.06148 2.94318,-0.49148 5.30427,0.45563 8.17936,0.64901 1.14199,0.0768 3.06188,-0.0562 4.02175,-0.72541 0.76672,-0.53461 1.03047,-1.62826 2.01854,-1.85629 1.68222,-0.38827 2.93675,1.1147 4.65585,0.70541 -0.81152,-0.69266 -1.60443,-1.20873 -1.25839,-2.39089 0.58036,0.49216 0.91804,1.22113 1.63587,1.56382 1.86975,0.89257 3.39737,-0.16182 3.39759,-2.06716 1.22578,0.38689 0.64533,2.21389 -0.25169,2.64255"
       id="path151643-0" />
    <rect
       style="fill:#a7117a;fill-opacity:1;stroke-width:0.0523265;stroke-dasharray:0.104653, 0.104653;paint-order:fill markers stroke"
       id="rect1-3-0"
       width="3.300772"
       height="7.3526669"
       x="-66.112648"
       y="83.386108"
       ry="0" />
    <rect
       style="fill:#a7117a;fill-opacity:1;stroke-width:0.0970548;stroke-dasharray:0.19411, 0.19411;paint-order:fill markers stroke"
       id="rect1-3-6-4"
       width="11.355444"
       height="7.3526669"
       x="-19.765982"
       y="83.386108"
       ry="0"
       inkscape:transform-center-x="4.0331941"
       inkscape:transform-center-y="0.36665401" />
    <rect
       style="fill:#a7117a;fill-opacity:1;stroke-width:0.0523265;stroke-dasharray:0.104653, 0.104653;paint-order:fill markers stroke"
       id="rect1-3-3-0"
       width="3.300772"
       height="7.3526669"
       x="-27.462423"
       y="83.386108"
       ry="0" />
    <rect
       style="fill:#c8c8c8;fill-opacity:1;stroke-width:0.0739359;stroke-dasharray:0.147872, 0.147872;paint-order:fill markers stroke"
       id="rect1-2-7-2-9"
       width="21.167572"
       height="2.2890596"
       x="-16.734859"
       y="125.46807"
       ry="0" />
    <rect
       style="fill:#007894;fill-opacity:1;stroke-width:0.0292041;stroke-dasharray:0.0584085, 0.0584085;paint-order:fill markers stroke"
       id="rect1-2-7-6-8-8"
       width="3.3025322"
       height="2.2890596"
       x="-50.584995"
       y="120.9743"
       ry="0" />
    <rect
       style="fill:#007894;fill-opacity:1;stroke-width:0.0292041;stroke-dasharray:0.0584085, 0.0584085;paint-order:fill markers stroke"
       id="rect1-2-7-6-8-8-9"
       width="3.3025322"
       height="2.2890596"
       x="-50.584995"
       y="129.94145"
       ry="0" />
    <rect
       style="fill:#c8c8c8;fill-opacity:1;stroke-width:0.0739359;stroke-dasharray:0.147872, 0.147872;paint-order:fill markers stroke"
       id="rect1-2-7-46"
       width="21.167572"
       height="2.2890596"
       x="-24.778074"
       y="120.99467"
       ry="0" />
    <rect
       style="fill:#007894;fill-opacity:1;stroke-width:0.0292041;stroke-dasharray:0.0584085, 0.0584085;paint-order:fill markers stroke"
       id="rect1-2-7-6-8-8-5"
       width="3.3025322"
       height="2.2890596"
       x="-16.177174"
       y="120.99467"
       ry="0" />
    <rect
       style="fill:#007894;fill-opacity:1;stroke-width:0.0292041;stroke-dasharray:0.0584085, 0.0584085;paint-order:fill markers stroke"
       id="rect1-2-7-6-8-8-5-75"
       width="3.3025322"
       height="2.2890596"
       x="-16.177174"
       y="125.46807"
       ry="0" />
    <rect
       style="fill:#007894;fill-opacity:1;stroke-width:0.0292041;stroke-dasharray:0.0584085, 0.0584085;paint-order:fill markers stroke"
       id="rect1-2-7-6-8-8-5-75-4"
       width="3.3025322"
       height="2.2890596"
       x="-16.177174"
       y="129.94145"
       ry="0" />
    <rect
       style="fill:#627313;fill-opacity:1;stroke-width:0.0125543;stroke-dasharray:0.0251087, 0.0251087;paint-order:fill markers stroke"
       id="rect1-2-7-1-2-99"
       width="0.61030132"
       height="2.2890596"
       x="9.817071"
       y="129.94145"
       ry="0" />
    <rect
       style="fill:#8e6713;fill-opacity:1;stroke-width:0.0125543;stroke-dasharray:0.0251087, 0.0251087;paint-order:fill markers stroke"
       id="rect1-2-7-1-2-99-8-6"
       width="0.61030132"
       height="2.2890596"
       x="6.3685036"
       y="129.94145"
       ry="0" />
    <rect
       style="fill:#b7352d;fill-opacity:1;stroke-width:0.0125543;stroke-dasharray:0.0251087, 0.0251087;paint-order:fill markers stroke"
       id="rect1-2-7-1-2-9-7"
       width="0.61030132"
       height="2.2890596"
       x="16.109884"
       y="129.94145"
       ry="0" />
    <rect
       style="fill:#215caf;fill-opacity:1;stroke-width:0.0125543;stroke-dasharray:0.0251087, 0.0251087;paint-order:fill markers stroke"
       id="rect1-2-7-1-2-99-8-4-2"
       width="0.61030132"
       height="2.2890596"
       x="7.6243596"
       y="129.94145"
       ry="0" />
    <rect
       style="fill:#c8c8c8;fill-opacity:1;stroke-width:0.0739359;stroke-dasharray:0.147872, 0.147872;paint-order:fill markers stroke"
       id="rect1-2-7-1"
       width="21.167572"
       height="2.2890596"
       x="1.61834"
       y="120.99467"
       ry="0" />
    <rect
       style="fill:#627313;fill-opacity:1;stroke-width:0.0125543;stroke-dasharray:0.0251087, 0.0251087;paint-order:fill markers stroke"
       id="rect1-2-7-1-2"
       width="0.61030132"
       height="2.2890596"
       x="9.817071"
       y="120.99467"
       ry="0" />
    <rect
       style="fill:#b7352d;fill-opacity:1;stroke-width:0.0125543;stroke-dasharray:0.0251087, 0.0251087;paint-order:fill markers stroke"
       id="rect1-2-7-1-2-9"
       width="0.61030132"
       height="2.2890596"
       x="16.109884"
       y="120.99467"
       ry="0" />
    <rect
       style="fill:#215caf;fill-opacity:1;stroke-width:0.0125543;stroke-dasharray:0.0251087, 0.0251087;paint-order:fill markers stroke"
       id="rect1-2-7-1-2-99-8-4"
       width="0.61030132"
       height="2.2890596"
       x="7.6243596"
       y="120.99467"
       ry="0" />
    <rect
       style="fill:#8e6713;fill-opacity:1;stroke-width:0.0125543;stroke-dasharray:0.0251087, 0.0251087;paint-order:fill markers stroke"
       id="rect1-2-7-1-2-99-8-6-5"
       width="0.61030132"
       height="2.2890596"
       x="6.3685036"
       y="120.99467"
       ry="0" />
    <rect
       style="fill:#a7117a;fill-opacity:1;stroke-width:0.0292041;stroke-dasharray:0.0584085, 0.0584085;paint-order:fill markers stroke"
       id="rect1-2-7-6-8-2"
       width="3.3025322"
       height="2.2890596"
       x="-67.626251"
       y="125.46807"
       ry="0" />
    <path
       d="m 171.86502,151.90572 c 0.12623,-0.0536 0.0624,-0.20988 -0.1983,-0.48632 -0.33616,-0.35631 -0.37661,-0.51222 -0.32279,-1.24455 0.0338,-0.46046 0.14752,-1.26533 0.25264,-1.78859 0.18215,-0.90675 0.212,-0.95137 0.63658,-0.95137 0.48846,0 1.38693,-0.77122 1.56984,-1.34753 0.0571,-0.17978 0.16238,-0.32688 0.23405,-0.32688 0.26992,0 1.06696,-0.79964 1.06696,-1.07045 0,-0.15525 0.15412,-0.39032 0.34249,-0.52237 0.46342,-0.32484 1.92367,-0.16316 2.88712,0.31966 0.72408,0.36289 1.18476,0.45763 1.18476,0.24371 0,-0.0638 0.14851,-0.18376 0.33004,-0.26639 0.65808,-0.29962 0.65638,-0.55964 -0.0105,-1.59136 -0.34549,-0.53452 -0.72639,-1.30266 -0.84644,-1.70697 -0.21196,-0.71373 -0.20748,-0.74675 0.15426,-1.13709 0.35925,-0.38763 0.53731,-1.23843 0.21788,-1.04102 -0.0851,0.0527 -0.15241,0.1545 -0.0958,0.25335 0.0591,0.15485 -0.24917,0.096 -0.41226,0.20715 -0.37424,0.26214 -1.01167,0.29644 -1.01167,0.0544 0,-0.0927 -0.10192,-0.1294 -0.22651,-0.0815 -0.12457,0.0478 -0.21019,0.0124 -0.19027,-0.0789 0.0199,-0.0912 -0.0464,-0.1961 -0.14701,-0.23319 -0.10636,-0.0392 -0.23848,0.14449 -0.31489,0.43762 l -0.13163,0.50506 -1.0551,-0.0523 c -1.55088,-0.0769 -2.7483,-0.26534 -3.94006,-0.61998 -0.96833,-0.28814 -1.43806,-0.31427 -5.52513,-0.3073 -2.81763,0.005 -4.87165,-0.0602 -5.56327,-0.17608 -0.93746,-0.15708 -1.2413,-0.14731 -2.09559,0.0674 -0.54955,0.1381 -1.10185,0.2511 -1.22735,0.2511 -0.12549,0 -0.42936,0.21011 -0.67526,0.4669 -0.44222,0.46184 -0.44727,0.4871 -0.46404,2.32137 -0.0162,1.76814 -0.60834,2.97699 -0.81738,3.31521 -0.0515,0.0835 0.3481,-0.0741 0.39321,-0.0741 0.0451,0 0.34499,-0.66843 0.51413,-0.99998 0.25122,-0.49244 0.30753,-0.8978 0.30753,-2.2141 0,-1.52592 0.0207,-1.63194 0.38978,-2.00107 0.21437,-0.21438 0.42464,-0.35491 0.46724,-0.31231 0.0426,0.0425 -0.0745,0.43083 -0.26031,0.8627 l -0.33781,0.78524 0.27978,1.22493 c 0.24382,1.06756 0.25764,1.4002 0.10758,2.58913 -0.10617,0.84117 -0.29293,1.56882 -0.4871,1.8979 -0.17318,0.29356 -0.28422,0.58338 -0.24671,0.64404 0.15378,0.24885 0.88199,3.47462 0.87186,3.8621 -0.0104,0.39573 0.0262,0.41861 0.66792,0.41861 0.7557,0 0.80649,-0.0671 0.39551,-0.52296 -0.36689,-0.4069 -0.62997,-1.20354 -0.62997,-1.90764 0,-0.64588 0.43193,-2.21147 0.57159,-2.07181 0.16828,0.16828 0.62838,2.12723 0.63739,2.71382 0.005,0.31396 0.073,0.57083 0.15136,0.57083 0.0784,0 0.16403,0.22262 0.19028,0.49472 0.0423,0.43934 0.10524,0.50021 0.56176,0.54385 0.69688,0.0666 0.93023,-0.1874 0.50832,-0.55331 -0.44357,-0.38473 -0.64184,-0.96718 -0.64184,-1.88555 0,-1.06579 0.28159,-1.94276 0.63298,-1.97139 0.15419,-0.0126 0.36597,-0.0298 0.47061,-0.0381 0.10467,-0.008 0.24061,-0.0837 0.30213,-0.16744 0.0692,-0.0943 0.11271,-0.0798 0.11415,0.0381 0.002,0.10464 0.0708,0.19027 0.15455,0.19027 0.0837,0 0.15438,-0.0856 0.15701,-0.19027 0.003,-0.10463 0.1722,-0.31208 0.37684,-0.46096 0.35123,-0.25556 0.41528,-0.25657 1.14422,-0.0183 0.5822,0.19043 1.04188,0.22799 1.86841,0.15268 2.83089,-0.258 3.26648,-0.27512 3.35493,-0.13202 0.051,0.0824 0.12518,1.18771 0.16503,2.45627 0.0398,1.26853 0.11421,2.37402 0.16527,2.45664 0.1291,0.20888 1.09859,0.18876 1.23105,-0.0255 0.0597,-0.0967 0.044,-0.13586 -0.0348,-0.0871 -0.0789,0.0489 -0.23506,-0.11834 -0.34706,-0.37134 -0.26732,-0.6039 -0.14034,-2.43288 0.22545,-3.24744 l 0.27341,-0.60888 0.15368,0.7611 c 0.0845,0.4186 0.1564,1.25772 0.15975,1.86469 0.004,0.60699 0.0637,1.10361 0.13397,1.10361 0.0703,0 0.10584,0.18837 0.0789,0.41861 -0.0446,0.38174 -0.003,0.42121 0.48383,0.44825 0.29303,0.0164 0.61647,-0.005 0.71876,-0.0493 z m -16.66614,-5.20615 c -0.0568,-0.14819 -0.0251,-0.18943 0.0906,-0.11789 0.10794,0.0667 0.17809,0.013 0.17809,-0.13623 0,-0.13546 0.0684,-0.20394 0.15222,-0.15221 0.0885,0.0546 0.15222,-0.0957 0.15222,-0.35912 0,-0.24926 0.0468,-0.57514 0.10398,-0.72419 0.0875,-0.22803 0.0255,-0.2151 -0.39111,0.0815 -0.74247,0.5287 -1.02009,1.63603 -0.41018,1.63603 0.1254,0 0.17598,-0.0928 0.12415,-0.22793 z"
       style="fill:none;fill-opacity:1;stroke:#a7117a;stroke-width:0.539671;stroke-dasharray:none;stroke-opacity:1"
       id="path150986" />
    <path
       style="fill:none;fill-opacity:1;stroke:#007894;stroke-width:0.539671;stroke-dasharray:none;stroke-opacity:1"
       d="m 43.19169,34.324275 c 0.17308,0 0.459826,-0.1604 0.637246,-0.356438 0.301555,-0.33322 0.298863,-0.377898 -0.04147,-0.685854 -0.200199,-0.18118 -0.647524,-0.944518 -0.994046,-1.696317 -0.531214,-1.152481 -0.616389,-1.531688 -0.542941,-2.41728 0.04792,-0.577726 0.15215,-1.115431 0.231628,-1.194923 0.0795,-0.07943 0.4651,0.207712 0.856883,0.638214 0.391787,0.430508 0.731027,1.184989 1.303634,1.53572 0.311597,0.190846 0.707005,0.316028 1.066781,0.252178 0.339418,-0.06025 0.649927,-0.531787 0.863124,-0.569669 0.220359,-0.03921 0.534845,-0.381597 0.72887,-0.793645 0.333413,-0.708085 0.365848,-0.724752 1.410207,-0.724752 h 1.068953 l -0.14234,0.533386 c -0.07827,0.293373 -0.125287,0.795238 -0.104462,1.115273 0.0208,0.320039 -0.100013,1.073619 -0.268523,1.67462 -0.28432,1.014047 -0.282441,1.129288 0.02606,1.600167 0.231411,0.353197 0.502583,0.507453 0.892053,0.507453 0.357907,0 0.55957,-0.100692 0.55957,-0.279514 0,-0.153701 -0.09826,-0.340217 -0.218355,-0.414431 -0.140188,-0.08667 -0.180541,-0.501447 -0.112717,-1.158574 0.0581,-0.562979 0.221823,-1.227484 0.363825,-1.476656 0.244194,-0.428509 0.263442,-0.398082 0.355163,0.561631 0.05349,0.559844 0.248295,1.190214 0.434513,1.406214 0.185636,0.21535 0.464162,0.391518 0.618922,0.391518 0.15477,0 0.335244,-0.08712 0.401063,-0.193626 0.06578,-0.106505 -0.01632,-0.387751 -0.182519,-0.625033 -0.166194,-0.237268 -0.302177,-0.710786 -0.302177,-1.052256 0,-0.617174 0.0029,-0.61922 0.550569,-0.34619 0.302817,0.151072 0.424637,-0.44877 0.744834,-0.384722 0.515799,0.103162 0.610875,0.0471 0.833752,-0.4909 0.138363,-0.334043 1.25366,-0.774664 1.755939,-1.302748 0.53538,-0.562888 0.740833,-1.392565 1.293198,-1.93879 0.236,-0.233377 0.834469,-0.220687 0.834469,-0.543231 0,-0.294919 0.141415,-0.511733 0.384,-0.588726 0.211209,-0.06704 0.535822,-0.03693 0.721366,0.06696 0.233661,0.130772 0.49889,0.105209 0.862971,-0.08304 0.289117,-0.149517 0.580626,-0.445096 0.647838,-0.656872 0.08835,-0.278314 -0.06236,-0.569549 -0.543669,-1.050899 -0.366234,-0.366233 -0.873262,-1.037196 -1.126745,-1.491008 -0.253473,-0.45385 -0.679068,-0.981683 -0.945761,-1.173026 -0.266688,-0.191313 -0.720529,-0.403788 -1.008532,-0.47216 -0.397571,-0.09443 -0.633283,-0.01459 -0.97915,0.331207 -0.25055,0.25056 -0.697239,0.613913 -0.992649,0.807481 -0.529942,0.347221 -0.54597,0.345164 -1.200284,-0.153898 -0.364745,-0.278218 -0.758666,-0.684275 -0.875396,-0.902346 -0.116709,-0.218099 -0.576107,-0.561761 -1.020894,-0.763698 -0.444767,-0.201958 -1.096318,-0.369104 -1.447862,-0.371445 -0.42404,-0.0034 -0.799438,0.155983 -1.115268,0.471824 -0.261843,0.261843 -0.476091,0.694305 -0.476091,0.961017 0,0.40361 -0.11762,0.50699 -0.701415,0.616519 -0.385772,0.07229 -1.152245,0.03068 -1.703247,-0.0926 -0.550998,-0.123313 -1.52278,-0.438343 -2.159497,-0.700076 -0.763732,-0.313946 -1.540935,-0.477443 -2.284021,-0.480477 -0.6195,-0.0034 -1.511992,0.09249 -1.983305,0.211193 -0.471337,0.118665 -1.070942,0.41409 -1.332486,0.656453 -0.261526,0.242406 -0.607282,0.884425 -0.768332,1.426749 -0.16106,0.542344 -0.392962,2.058034 -0.515331,3.368208 -0.122383,1.31018 -0.371348,2.862188 -0.553257,3.448905 -0.272582,0.879186 -0.292428,1.22028 -0.112813,1.939614 0.119883,0.48005 0.288437,0.872829 0.37458,0.872829 0.08615,0 0.336389,-0.240778 0.556097,-0.535043 0.248075,-0.332276 0.393382,-0.810047 0.383423,-1.260733 -0.0089,-0.399156 -0.07519,-1.467623 -0.14748,-2.374369 -0.07232,-0.906772 -0.05874,-2.039605 0.0301,-2.517409 l 0.161542,-0.868755 0.604436,1.062703 c 0.570786,1.003563 0.589428,1.099131 0.334757,1.71678 -0.148327,0.359728 -0.268562,0.839758 -0.267194,1.066763 0.0015,0.226999 -0.141888,1.030121 -0.318349,1.784713 -0.3072,1.313763 -0.305467,1.389927 0.04055,1.794154 0.199924,0.233467 0.587777,0.422127 0.867896,0.422127 0.278551,0 0.561771,-0.05527 0.629402,-0.122946 0.06762,-0.06756 -0.03949,-0.329541 -0.238154,-0.582046 -0.292227,-0.371512 -0.328891,-0.597775 -0.192238,-1.18626 0.09289,-0.399965 0.170967,-0.805583 0.173509,-0.901367 0.0029,-0.09583 0.222179,0.12242 0.488068,0.484898 0.265908,0.362478 0.701458,1.095475 0.967909,1.62887 0.266452,0.533386 0.485309,1.069906 0.486354,1.192285 0.0015,0.122378 0.23953,0.493336 0.52999,0.824341 0.290435,0.331 0.669687,0.601835 0.842752,0.601835 z"
       id="path81619-9" />
    <path
       id="path1-9"
       style="fill:none;stroke:#000000;stroke-width:0.264583px;stroke-linecap:butt;stroke-linejoin:miter;stroke-opacity:1"
       d="M 106.20666,122.25278 H -11.729436 M -11.597146,4.4489551 V 122.38507"
       transform="translate(74.403203,14.674789)" />
    <text
       xml:space="preserve"
       style="font-weight:bold;font-size:9.62004px;line-height:1.25;font-family:Calibri, Calibri_MSFontService, sans-serif;-inkscape-font-specification:'Calibri, Calibri_MSFontService, sans-serif, Bold';stroke-width:0.264583"
       x="46.241501"
       y="80.617065"
       id="text3-0"><tspan
         sodipodi:role="line"
         id="tspan3-3"
         style="font-style:normal;font-variant:normal;font-weight:normal;font-stretch:normal;font-family:'DIN Next W1G';-inkscape-font-specification:'DIN Next W1G';stroke-width:0.264583"
         x="46.241501"
         y="80.617065">D<tspan
   style="font-size:65%;baseline-shift:super"
   id="tspan5">I</tspan><tspan
   style="font-size:65%;baseline-shift:sub"
   id="tspan2"
   dx="-2.26">xy</tspan></tspan></text>
    <text
       xml:space="preserve"
       style="font-weight:bold;font-size:9.62004px;line-height:1.25;font-family:Calibri, Calibri_MSFontService, sans-serif;-inkscape-font-specification:'Calibri, Calibri_MSFontService, sans-serif, Bold';stroke-width:0.264583"
       x="115.30166"
       y="147.94745"
       id="text3-0-5"><tspan
         sodipodi:role="line"
         id="tspan3-3-2"
         style="font-style:normal;font-variant:normal;font-weight:normal;font-stretch:normal;font-family:'DIN Next W1G';-inkscape-font-specification:'DIN Next W1G';stroke-width:0.264583"
         x="115.30166"
         y="147.94745">D<tspan
   style="font-size:65%;baseline-shift:super"
   id="tspan5-2">T</tspan><tspan
   style="font-size:65%;baseline-shift:sub"
   id="tspan2-7"
   dx="-3.3099999">xy</tspan></tspan></text>
    <text
       xml:space="preserve"
       style="font-weight:bold;font-size:6.95638px;line-height:1.25;font-family:Calibri, Calibri_MSFontService, sans-serif;-inkscape-font-specification:'Calibri, Calibri_MSFontService, sans-serif, Bold';display:inline;stroke-width:0.191323"
       x="-144.53288"
       y="36.75647"
       id="text3-1-6-3-1"><tspan
         sodipodi:role="line"
         style="font-style:normal;font-variant:normal;font-weight:300;font-stretch:normal;font-family:'DIN Next W1G';-inkscape-font-specification:'DIN Next W1G Light';stroke-width:0.191323"
         x="-144.53288"
         y="36.75647"
         id="tspan4-4-2-8-4">Indicine reference</tspan></text>
    <text
       xml:space="preserve"
       style="font-weight:bold;font-size:6.95638px;line-height:1.25;font-family:Calibri, Calibri_MSFontService, sans-serif;-inkscape-font-specification:'Calibri, Calibri_MSFontService, sans-serif, Bold';display:inline;stroke-width:0.191323"
       x="0.81228906"
       y="58.502861"
       id="text3-1-6-3-1-5"
       transform="translate(-144.91388,16.069799)"><tspan
         sodipodi:role="line"
         style="font-style:normal;font-variant:normal;font-weight:300;font-stretch:normal;font-family:'DIN Next W1G';-inkscape-font-specification:'DIN Next W1G Light';stroke-width:0.191323"
         x="0.81228906"
         y="58.502861"
         id="tspan4-4-2-8-4-9">Taurine reference</tspan></text>
    <text
       xml:space="preserve"
       style="font-weight:bold;font-size:6.95638px;line-height:1.25;font-family:Calibri, Calibri_MSFontService, sans-serif;-inkscape-font-specification:'Calibri, Calibri_MSFontService, sans-serif, Bold';display:inline;stroke-width:0.191323"
       x="-144.27866"
       y="113.23531"
       id="text3-1-6-3-1-1"><tspan
         sodipodi:role="line"
         style="font-style:normal;font-variant:normal;font-weight:300;font-stretch:normal;font-family:'DIN Next W1G';-inkscape-font-specification:'DIN Next W1G Light';stroke-width:0.191323"
         x="-144.27866"
         y="113.23531"
         id="tspan4-4-2-8-4-7">Query sample</tspan></text>
  </g>
  <g
     inkscape:groupmode="layer"
     id="layer2"
     inkscape:label="2"
     transform="translate(219.31709,-4.4489547)">
    <circle
       style="fill:#c8c8c8;fill-opacity:1;stroke:none;stroke-width:1.165;stroke-dasharray:none;stroke-opacity:1;paint-order:fill markers stroke"
       id="path4-3"
       cx="-4.7869129"
       cy="110.52534"
       r="2.1207309"
       transform="translate(-8.1250001e-6)" />
    <circle
       style="fill:#c8c8c8;fill-opacity:1;stroke:none;stroke-width:1.165;stroke-dasharray:none;stroke-opacity:1;paint-order:fill markers stroke"
       id="path4-3-0"
       cx="2.5256484"
       cy="115.78043"
       r="2.1207309"
       transform="translate(-8.1250001e-6)" />
    <circle
       style="fill:#c8c8c8;fill-opacity:1;stroke:none;stroke-width:1.165;stroke-dasharray:none;stroke-opacity:1;paint-order:fill markers stroke"
       id="path4-3-3"
       cx="7.7843418"
       cy="110.66871"
       r="2.1207309"
       transform="translate(-8.1250001e-6)" />
    <rect
       style="fill:#c8c8c8;fill-opacity:1;stroke-width:0.121162;stroke-dasharray:0.242325, 0.242325;paint-order:fill markers stroke"
       id="rect1-2-7-7-9"
       width="34.688229"
       height="3.7511826"
       x="-2.7320306"
       y="101.79043"
       ry="0"
       transform="translate(-8.1250001e-6)" />
  </g>
  <g
     inkscape:groupmode="layer"
     id="layer3"
     inkscape:label="3"
     transform="translate(219.31709,-4.4489547)"
     style="display:inline">
    <circle
       style="fill:none;stroke:#c8c8c8;stroke-width:1.165;stroke-dasharray:none;stroke-opacity:1;paint-order:fill markers stroke"
       id="path4-3-3-3"
       cx="35.411236"
       cy="87.093903"
       r="2.1207309" />
    <circle
       style="fill:none;stroke:#c8c8c8;stroke-width:1.165;stroke-dasharray:none;stroke-opacity:1;paint-order:fill markers stroke"
       id="path4-3-3-3-9"
       cx="45.901344"
       cy="88.805542"
       r="2.1207309" />
    <g
       id="g3"
       transform="translate(-209.49826,9.6017239)">
      <rect
         style="fill:#c8c8c8;fill-opacity:1;stroke-width:0.121162;stroke-dasharray:0.242325, 0.242325;paint-order:fill markers stroke"
         id="rect1-2-7-1-5"
         width="34.688229"
         height="3.7511826"
         x="233.4178"
         y="59.918537"
         ry="0" />
      <rect
         style="fill:#627313;fill-opacity:1;stroke-width:0.0205733;stroke-dasharray:0.0411467, 0.0411467;paint-order:fill markers stroke"
         id="rect1-2-7-1-2-3"
         width="1.0001276"
         height="3.7511826"
         x="246.85342"
         y="59.918537"
         ry="0" />
      <rect
         style="fill:#b7352d;fill-opacity:1;stroke-width:0.0205733;stroke-dasharray:0.0411467, 0.0411467;paint-order:fill markers stroke"
         id="rect1-2-7-1-2-9-9"
         width="1.0001276"
         height="3.7511826"
         x="257.16574"
         y="59.918537"
         ry="0" />
      <rect
         style="fill:#215caf;fill-opacity:1;stroke-width:0.0205733;stroke-dasharray:0.0411467, 0.0411467;paint-order:fill markers stroke"
         id="rect1-2-7-1-2-99-8-4-0"
         width="1.0001276"
         height="3.7511826"
         x="243.26013"
         y="59.918537"
         ry="0" />
      <rect
         style="fill:#8e6713;fill-opacity:1;stroke-width:0.0205733;stroke-dasharray:0.0411467, 0.0411467;paint-order:fill markers stroke"
         id="rect1-2-7-1-2-99-8-6-5-5"
         width="1.0001276"
         height="3.7511826"
         x="241.2021"
         y="59.918537"
         ry="0" />
    </g>
    <circle
       style="fill:none;stroke:#c8c8c8;stroke-width:1.165;stroke-dasharray:none;stroke-opacity:1;paint-order:fill markers stroke"
       id="path4-3-3-3-6"
       cx="40.18119"
       cy="77.55957"
       r="2.1207309" />
  </g>
  <g
     inkscape:groupmode="layer"
     id="layer4"
     inkscape:label="4"
     style="display:inline"
     transform="translate(-87.068922,-45.963946)">
    <circle
       style="fill:#a7117a;fill-opacity:1;stroke:none;stroke-width:1.165;stroke-dasharray:none;stroke-opacity:1;paint-order:fill markers stroke"
       id="path4"
       cx="304.0881"
       cy="66.521156"
       r="2.1207309" />
    <circle
       style="fill:#a7117a;fill-opacity:1;stroke:none;stroke-width:1.165;stroke-dasharray:none;stroke-opacity:1;paint-order:fill markers stroke"
       id="path4-6"
       cx="310.67474"
       cy="65.266624"
       r="2.1207309" />
    <circle
       style="fill:#a7117a;fill-opacity:1;stroke:none;stroke-width:1.165;stroke-dasharray:none;stroke-opacity:1;paint-order:fill markers stroke"
       id="path4-61"
       cx="304.33456"
       cy="77.345299"
       r="2.1207309" />
    <circle
       style="fill:#007894;fill-opacity:1;stroke:none;stroke-width:1.165;stroke-dasharray:none;paint-order:fill markers stroke"
       id="path4-0"
       cx="94.567574"
       cy="110.53288"
       r="2.1207309"
       transform="translate(306.38599,41.51499)" />
    <circle
       style="fill:#007894;fill-opacity:1;stroke:none;stroke-width:1.165;stroke-dasharray:none;paint-order:fill markers stroke"
       id="path4-0-8"
       cx="82.132141"
       cy="118.47038"
       r="2.1207309"
       transform="translate(306.38599,41.51499)" />
    <circle
       style="fill:#007894;fill-opacity:1;stroke:none;stroke-width:1.165;stroke-dasharray:none;paint-order:fill markers stroke"
       id="path4-0-0"
       cx="86.365479"
       cy="105.24123"
       r="2.1207309"
       transform="translate(306.38599,41.51499)" />
    <g
       id="g5"
       transform="translate(137.66295,23.564253)">
      <rect
         style="fill:#c8c8c8;fill-opacity:1;stroke-width:0.121162;stroke-dasharray:0.242325, 0.242325;paint-order:fill markers stroke"
         id="rect1-2-7-6-1"
         width="34.688229"
         height="3.7511826"
         x="165.15529"
         y="28.962288"
         ry="0" />
      <rect
         style="fill:#a7117a;fill-opacity:1;stroke-width:0.047858;stroke-dasharray:0.0957165, 0.0957165;paint-order:fill markers stroke"
         id="rect1-2-7-6-8-1"
         width="5.4120045"
         height="3.7511826"
         x="180.39369"
         y="28.962288"
         ry="0" />
    </g>
    <g
       id="g4"
       transform="translate(126.49497,11.312415)">
      <rect
         style="fill:#c8c8c8;fill-opacity:1;stroke-width:0.121162;stroke-dasharray:0.242325, 0.242325;paint-order:fill markers stroke"
         id="rect1-2-7-46-8"
         width="34.688229"
         height="3.7511826"
         x="251.40945"
         y="124.21229"
         ry="0" />
      <rect
         style="fill:#007894;fill-opacity:1;stroke-width:0.047858;stroke-dasharray:0.0957165, 0.0957165;paint-order:fill markers stroke"
         id="rect1-2-7-6-8-8-5-7"
         width="5.4120045"
         height="3.7511826"
         x="262.32913"
         y="124.21229"
         ry="0" />
    </g>
  </g>
</svg>
