<?xml version="1.0" encoding="UTF-8" standalone="no"?>
<!-- Created with Inkscape (http://www.inkscape.org/) -->

<svg
   width="132.12578mm"
   height="55.941143mm"
   viewBox="0 0 132.12578 55.941143"
   version="1.1"
   id="svg1"
   inkscape:version="1.4 (e7c3feb1, 2024-10-09)"
   sodipodi:docname="phylogeny.svg"
   xmlns:inkscape="http://www.inkscape.org/namespaces/inkscape"
   xmlns:sodipodi="http://sodipodi.sourceforge.net/DTD/sodipodi-0.dtd"
   xmlns:xlink="http://www.w3.org/1999/xlink"
   xmlns="http://www.w3.org/2000/svg"
   xmlns:svg="http://www.w3.org/2000/svg">
  <sodipodi:namedview
     id="namedview1"
     pagecolor="#ffffff"
     bordercolor="#666666"
     borderopacity="1.0"
     inkscape:showpageshadow="2"
     inkscape:pageopacity="0.0"
     inkscape:pagecheckerboard="0"
     inkscape:deskcolor="#d1d1d1"
     inkscape:document-units="mm"
     inkscape:zoom="2.8284271"
     inkscape:cx="179.25157"
     inkscape:cy="87.681241"
     inkscape:window-width="2560"
     inkscape:window-height="1387"
     inkscape:window-x="1440"
     inkscape:window-y="25"
     inkscape:window-maximized="1"
     inkscape:current-layer="layer1" />
  <defs
     id="defs1">
    <linearGradient
       inkscape:collect="always"
       xlink:href="#linearGradient1"
       id="linearGradient2"
       x1="-14.869065"
       y1="150.5127"
       x2="-36.126789"
       y2="168.35004"
       gradientUnits="userSpaceOnUse"
       gradientTransform="matrix(0.62814396,0,0,0.62814396,84.350639,34.490699)" />
    <linearGradient
       id="linearGradient1"
       inkscape:collect="always">
      <stop
         style="stop-color:#a7117a;stop-opacity:1;"
         offset="0"
         id="stop1" />
      <stop
         style="stop-color:#007894;stop-opacity:1;"
         offset="1"
         id="stop2" />
    </linearGradient>
  </defs>
  <g
     inkscape:label="1"
     inkscape:groupmode="layer"
     id="layer1"
     transform="translate(-1.8949194,-89.72471)"
     style="display:inline">
    <path
       style="fill:none;stroke:#000000;stroke-width:0.15757px;stroke-linecap:butt;stroke-linejoin:miter;stroke-opacity:1"
       d="m 100.58645,108.50861 20.36801,18.42651"
       id="path1-7-0-9-9-7"
       sodipodi:nodetypes="cc" />
    <path
       style="fill:none;stroke:#000000;stroke-width:0.15757px;stroke-linecap:butt;stroke-linejoin:miter;stroke-opacity:1"
       d="m 34.017441,123.14715 -22.481919,3.80828"
       id="path1-7-0-9-9-7-0-5"
       sodipodi:nodetypes="cc" />
    <path
       style="fill:none;stroke:#000000;stroke-width:0.15757px;stroke-linecap:butt;stroke-linejoin:miter;stroke-opacity:1"
       d="m 40.977678,126.95543 -6.960237,-3.80828 16.335767,-18.56299 18.403938,-11.184071 18.403938,11.163761 13.425366,3.94476 -3.956279,18.42651"
       id="path1-7-0-9-9-7-0-5-4-8"
       sodipodi:nodetypes="ccccccc" />
    <text
       xml:space="preserve"
       style="font-weight:bold;font-size:4.11535px;line-height:1.25;font-family:Calibri, Calibri_MSFontService, sans-serif;-inkscape-font-specification:'Calibri, Calibri_MSFontService, sans-serif, Bold';stroke-width:0.113186"
       x="53.282673"
       y="92.523148"
       id="text1-0"><tspan
         sodipodi:role="line"
         id="tspan1-2"
         style="font-style:normal;font-variant:normal;font-weight:normal;font-stretch:normal;font-family:'DIN Next W1G';-inkscape-font-specification:'DIN Next W1G';stroke-width:0.113186"
         x="53.282673"
         y="92.523148">Auroch ancestors</tspan></text>
  </g>
  <g
     inkscape:groupmode="layer"
     id="layer2"
     inkscape:label="2"
     style="display:inline"
     transform="translate(-1.8949194,-89.72471)">
    <path
       style="fill:none;fill-opacity:1;stroke:#007894;stroke-width:0.394374;stroke-dasharray:none;stroke-opacity:1"
       d="m 92.203377,140.82979 c 0.126478,0 0.336027,-0.11721 0.46568,-0.26047 0.220368,-0.24351 0.218397,-0.27616 -0.0303,-0.5012 -0.146299,-0.1324 -0.473194,-0.69023 -0.726419,-1.23962 -0.388194,-0.8422 -0.450438,-1.11931 -0.396764,-1.76647 0.03502,-0.42219 0.111183,-0.81513 0.169267,-0.87322 0.0581,-0.058 0.339881,0.15179 0.626184,0.46639 0.286306,0.3146 0.534212,0.86595 0.952656,1.12225 0.227705,0.13948 0.516658,0.23095 0.77957,0.18429 0.248037,-0.0441 0.474947,-0.38861 0.630741,-0.41629 0.161036,-0.0286 0.390852,-0.27886 0.53264,-0.57998 0.243644,-0.51744 0.26735,-0.52962 1.030532,-0.52962 h 0.781158 l -0.104014,0.38978 c -0.0572,0.21439 -0.09156,0.58113 -0.07634,0.81501 0.0152,0.23387 -0.07309,0.78456 -0.196228,1.22376 -0.207775,0.74103 -0.206399,0.82525 0.01904,1.16935 0.169108,0.2581 0.367268,0.37083 0.651886,0.37083 0.261547,0 0.408916,-0.0736 0.408916,-0.20426 0,-0.11232 -0.0718,-0.24862 -0.15957,-0.30285 -0.102442,-0.0633 -0.131931,-0.36644 -0.08237,-0.84666 0.04246,-0.4114 0.162105,-0.897 0.265876,-1.07908 0.178449,-0.31315 0.192515,-0.29091 0.259538,0.41041 0.03909,0.40912 0.181451,0.86977 0.317533,1.02762 0.135657,0.15737 0.339195,0.28611 0.45229,0.28611 0.113101,0 0.244984,-0.0636 0.293083,-0.14149 0.04807,-0.0778 -0.01193,-0.28336 -0.133379,-0.45676 -0.121449,-0.17339 -0.220822,-0.51942 -0.220822,-0.76896 0,-0.45101 0.0021,-0.45251 0.402339,-0.25298 0.22129,0.1104 0.310312,-0.32795 0.544299,-0.28114 0.376931,0.0754 0.446411,0.0344 0.609281,-0.35874 0.10111,-0.24411 0.91614,-0.5661 1.28319,-0.95201 0.39124,-0.41134 0.54138,-1.01764 0.94503,-1.41681 0.17246,-0.17054 0.6098,-0.16127 0.6098,-0.39697 0,-0.21552 0.10335,-0.37396 0.28062,-0.43022 0.15434,-0.049 0.39156,-0.027 0.52715,0.0489 0.17075,0.0956 0.36457,0.0769 0.63063,-0.0607 0.21128,-0.10926 0.42431,-0.32526 0.47342,-0.48002 0.0645,-0.20338 -0.0456,-0.41621 -0.39729,-0.76796 -0.26764,-0.26764 -0.63816,-0.75795 -0.82339,-1.08958 -0.18523,-0.33167 -0.49625,-0.71739 -0.69114,-0.85722 -0.19488,-0.1398 -0.52654,-0.29507 -0.737,-0.34504 -0.29053,-0.069 -0.46278,-0.0107 -0.71553,0.24204 -0.1831,0.1831 -0.50952,0.44863 -0.7254,0.59008 -0.38727,0.25374 -0.39898,0.25224 -0.87713,-0.11246 -0.266548,-0.20332 -0.554413,-0.50005 -0.639714,-0.65941 -0.08529,-0.15938 -0.421002,-0.41052 -0.746039,-0.55809 -0.325022,-0.14758 -0.801155,-0.26973 -1.058054,-0.27144 -0.309875,-0.003 -0.584204,0.11399 -0.815003,0.3448 -0.191347,0.19134 -0.347912,0.50737 -0.347912,0.70228 0,0.29494 -0.08595,0.37049 -0.512572,0.45053 -0.281911,0.0529 -0.842025,0.0224 -1.244681,-0.0677 -0.402656,-0.0901 -1.1128,-0.32033 -1.578094,-0.51159 -0.558112,-0.22943 -1.126068,-0.3489 -1.669093,-0.35112 -0.452711,-0.003 -1.104917,0.0676 -1.449338,0.15433 -0.344438,0.0867 -0.782611,0.30261 -0.97374,0.47972 -0.191115,0.17714 -0.443783,0.64631 -0.561474,1.04262 -0.117697,0.39633 -0.287164,1.50395 -0.376587,2.46138 -0.08944,0.95745 -0.271374,2.09161 -0.404307,2.52036 -0.199191,0.64248 -0.213694,0.89174 -0.08244,1.41741 0.08761,0.35081 0.210781,0.63784 0.273732,0.63784 0.06296,0 0.245823,-0.17596 0.406379,-0.391 0.181282,-0.24281 0.287467,-0.59195 0.280193,-0.9213 -0.0065,-0.29169 -0.05495,-1.07249 -0.107777,-1.73512 -0.05284,-0.66264 -0.04292,-1.49047 0.022,-1.83965 l 0.118052,-0.63485 0.441704,0.77659 c 0.417113,0.73337 0.430736,0.80321 0.24463,1.25457 -0.108393,0.26288 -0.196257,0.61367 -0.195261,0.77955 0.001,0.16589 -0.103683,0.75279 -0.232636,1.30422 -0.224492,0.96006 -0.223225,1.01572 0.02963,1.31111 0.146095,0.17061 0.429529,0.30848 0.634232,0.30848 0.203556,0 0.410525,-0.0404 0.459948,-0.0899 0.04941,-0.0494 -0.02886,-0.24082 -0.174036,-0.42534 -0.213554,-0.27149 -0.240344,-0.43683 -0.140481,-0.86688 0.06788,-0.29228 0.124936,-0.58869 0.126791,-0.65869 0.0021,-0.07 0.162365,0.0895 0.356668,0.35435 0.194314,0.26488 0.512604,0.80054 0.707319,1.19033 0.194715,0.38978 0.354648,0.78185 0.355412,0.87128 0.001,0.0894 0.175042,0.36051 0.387301,0.60241 0.212241,0.24188 0.489386,0.43979 0.615857,0.43979 z"
       id="path81619-9" />
    <path
       d="m 14.97939,140.75738 c 0.09224,-0.0391 0.04562,-0.15338 -0.144917,-0.35538 -0.245659,-0.26039 -0.275213,-0.37432 -0.235885,-0.90948 0.0247,-0.3365 0.107805,-0.92467 0.184618,-1.30705 0.133109,-0.66263 0.154931,-0.69523 0.465196,-0.69523 0.356958,0 1.013528,-0.56359 1.147199,-0.98473 0.04172,-0.13138 0.118657,-0.23889 0.171025,-0.23889 0.197253,0 0.779699,-0.58434 0.779699,-0.78225 0,-0.11345 0.112632,-0.28523 0.250289,-0.38172 0.338651,-0.23739 1.40576,-0.11924 2.109814,0.2336 0.529134,0.26519 0.865788,0.33441 0.865788,0.17809 0,-0.0466 0.108527,-0.13429 0.241185,-0.19467 0.480911,-0.21895 0.47966,-0.40897 -0.0077,-1.16292 -0.252476,-0.39061 -0.530828,-0.95194 -0.618563,-1.2474 -0.154888,-0.52157 -0.151617,-0.5457 0.112737,-0.83095 0.262523,-0.28326 0.392642,-0.90501 0.159212,-0.76075 -0.06218,0.0385 -0.111371,0.1129 -0.06999,0.18515 0.04324,0.11316 -0.182087,0.0701 -0.301265,0.15138 -0.273486,0.19156 -0.739296,0.21662 -0.739296,0.0397 0,-0.0678 -0.07449,-0.0945 -0.165524,-0.0596 -0.09104,0.0349 -0.153607,0.009 -0.139047,-0.0576 0.01453,-0.0667 -0.03384,-0.1433 -0.107432,-0.1704 -0.07772,-0.0286 -0.17428,0.10559 -0.230109,0.3198 l -0.09619,0.36908 -0.771037,-0.0382 c -1.133335,-0.0562 -2.008368,-0.19391 -2.879274,-0.45307 -0.707625,-0.21056 -1.050891,-0.22966 -4.037595,-0.22456 -2.059036,0.003 -3.560047,-0.0441 -4.065462,-0.12867 -0.685076,-0.1148 -0.907113,-0.10766 -1.5314,0.0493 -0.401591,0.10092 -0.805194,0.1835 -0.896905,0.1835 -0.09171,0 -0.313768,0.15354 -0.493462,0.34119 -0.323162,0.33751 -0.326852,0.35596 -0.339107,1.69639 -0.01183,1.2921 -0.444557,2.17549 -0.597312,2.42265 -0.03763,0.061 0.254378,-0.0542 0.287343,-0.0542 0.03296,0 0.252105,-0.48846 0.37571,-0.73075 0.183587,-0.35986 0.224736,-0.65608 0.224736,-1.61799 0,-1.1151 0.0151,-1.19258 0.284837,-1.46232 0.156658,-0.15667 0.310311,-0.25936 0.341444,-0.22823 0.03114,0.0311 -0.05447,0.31484 -0.190231,0.63044 l -0.246852,0.57382 0.204452,0.89515 c 0.178178,0.78013 0.188279,1.02322 0.07861,1.89206 -0.07758,0.61469 -0.214058,1.14644 -0.355955,1.38692 -0.126559,0.21453 -0.207701,0.42631 -0.18029,0.47065 0.112373,0.18184 0.644534,2.53914 0.637127,2.8223 -0.0076,0.28919 0.01915,0.30591 0.488095,0.30591 0.552244,0 0.589361,-0.049 0.289025,-0.38217 -0.268107,-0.29734 -0.460361,-0.87951 -0.460361,-1.39404 0,-0.47199 0.315641,-1.61608 0.4177,-1.51402 0.122978,0.12297 0.459201,1.55451 0.465787,1.98318 0.003,0.22944 0.05329,0.41715 0.110608,0.41715 0.05731,0 0.119874,0.16268 0.139047,0.36153 0.03094,0.32104 0.07691,0.36553 0.410523,0.39742 0.509256,0.0487 0.679783,-0.13694 0.371465,-0.40434 -0.324148,-0.28115 -0.46904,-0.70679 -0.46904,-1.3779 0,-0.77885 0.205776,-1.41972 0.462563,-1.44063 0.112679,-0.009 0.267437,-0.0218 0.343913,-0.0279 0.07648,-0.006 0.175827,-0.0612 0.220777,-0.12235 0.05061,-0.069 0.08237,-0.0583 0.08342,0.0278 9.69e-4,0.0765 0.05174,0.13904 0.112939,0.13904 0.06118,0 0.112814,-0.0625 0.114736,-0.13904 0.0026,-0.0765 0.125842,-0.22806 0.275384,-0.33686 0.256663,-0.18675 0.303471,-0.18749 0.836161,-0.0134 0.425451,0.13916 0.761371,0.16661 1.365378,0.11158 2.068727,-0.18854 2.387041,-0.20105 2.451679,-0.0965 0.03722,0.0602 0.09148,0.86795 0.1206,1.79497 0.02912,0.927 0.08346,1.73487 0.120772,1.79524 0.09435,0.15263 0.802816,0.13793 0.899613,-0.0187 0.04365,-0.0706 0.03218,-0.0993 -0.02543,-0.0636 -0.05766,0.0357 -0.171778,-0.0865 -0.253621,-0.27136 -0.195348,-0.44131 -0.102558,-1.77788 0.164745,-2.37313 l 0.199805,-0.44496 0.112303,0.5562 c 0.06176,0.3059 0.114292,0.9191 0.116743,1.36265 0.0026,0.44358 0.0465,0.80649 0.0979,0.80649 0.05139,0 0.07735,0.13765 0.05767,0.30591 -0.0326,0.27896 -0.0021,0.30781 0.353562,0.32757 0.214138,0.012 0.450501,-0.003 0.525254,-0.0361 z M 2.800278,136.95289 c -0.04152,-0.1083 -0.01837,-0.13844 0.06622,-0.0862 0.07888,0.0488 0.130146,0.01 0.130146,-0.0995 0,-0.099 0.05003,-0.14904 0.111237,-0.11124 0.06465,0.0399 0.111235,-0.07 0.111235,-0.26243 0,-0.18215 0.03421,-0.42029 0.07599,-0.52922 0.06395,-0.16664 0.01863,-0.15718 -0.285816,0.0596 -0.542574,0.38635 -0.745452,1.19556 -0.299739,1.19556 0.09163,0 0.128594,-0.0679 0.09072,-0.16657 z"
       style="fill:none;fill-opacity:1;stroke:#a7117a;stroke-width:0.394374;stroke-dasharray:none;stroke-opacity:1"
       id="path150986" />
    <path
       style="display:inline;fill:none;stroke:#a7117a;stroke-width:0.386425;stroke-dasharray:none;stroke-opacity:1"
       d="m 31.984525,136.20922 c 0.540208,-0.40464 0.0014,-2.0058 0.428842,-1.96169 0.685939,1.09414 0.414899,2.4316 -0.05126,3.54905 -0.335502,0.98867 -0.315694,2.18954 0.335706,2.81078 0.481049,0.43757 1.521332,0.022 0.586902,-0.50295 -0.865671,-0.55298 -0.08044,-3.69388 0.649058,-1.98 0.158718,0.92997 0.522869,2.33405 1.467773,2.34967 1.268188,-0.0969 -0.926683,-1.10911 -0.612317,-1.87907 -0.179953,-0.81757 -0.239836,-1.15214 0.441156,-0.80927 0.08367,-1.17273 0.810088,0.72464 0.783783,-0.48044 0.406379,-1.18622 1.803473,0.67799 2.759821,0.40104 0.860091,0.36456 2.346109,-0.66619 2.722212,0.12664 0.114832,0.97981 -0.430546,2.27316 0.269159,2.95917 1.783416,0.29176 -0.591769,-1.02936 0.456611,-1.78059 0.285601,-0.41966 0.405997,-2.18908 0.797805,-0.82628 -0.18635,0.86281 0.337229,1.64994 0.36736,2.32547 0.577766,0.0834 1.555134,-0.10662 0.602951,-0.66162 -0.663125,-1.0432 -0.353815,-2.79007 1.014351,-2.84654 0.730716,-0.85468 0.601177,-2.15613 1.501297,-2.95689 0.430669,-1.03634 3.247598,0.18368 2.66263,-1.48132 -0.832336,-0.53493 -1.105339,-1.59635 -1.733897,-2.18095 0.542619,-0.17047 1.167145,-1.17574 0.18959,-0.49216 -0.761726,0.31566 -0.770756,0.0785 -0.411865,-0.51459 -0.387896,-0.64698 -1.168043,1.03943 -1.501469,1.41644 -1.3088,1.06514 -3.101369,0.93612 -4.651319,0.60706 -1.761171,-0.30903 -3.546164,0.46098 -5.286067,-0.0943 -1.046646,-0.21323 -2.529086,-0.66374 -3.189899,0.48004 -0.560555,1.15489 -0.474702,2.5082 -0.907402,3.69868 0.01307,0.27053 0.155464,0.51156 0.308492,0.72462 z"
       id="path2-7" />
    <path
       style="display:inline;fill:none;stroke:#007894;stroke-width:0.386425;stroke-dasharray:none;stroke-opacity:1"
       d="m 130.3003,128.71679 c 0.0888,0.0583 1.42231,-3.1311 0.56884,-4.69683 0.86071,0.25678 1.09003,2.76655 0.51642,3.94699 -0.62376,1.37851 0.58486,2.6524 1.26979,3.78207 -0.0498,1.1434 -1.66585,0.49301 -2.21921,1.36307 -1.57709,-0.1942 -0.88595,2.34191 -2.5984,2.31517 -0.96792,0.42405 -1.33846,1.09708 -1.61839,1.87336 -0.32602,0.90409 0.1702,2.7721 0.0586,2.88264 -0.38211,0.37859 -0.62656,0.45344 -1.1674,-0.0867 -0.21315,-0.87877 0.0258,-3.94508 -0.73214,-4.82338 -1.49137,-0.37167 -2.3246,1.93345 -2.7909,1.91923 -0.7969,-0.0243 -1.90463,-2.26662 -2.6856,-1.42491 -0.41155,1.28629 -1.10543,2.68493 -0.57435,4.04246 0.77319,0.52543 0.66114,1.35066 -0.44864,0.88724 -0.56436,-0.41053 -0.37469,-1.31761 -0.42618,-2.23079 -0.59204,-1.40919 0.22267,-2.84616 -0.56253,-4.2073 -0.16659,-0.50409 -0.45437,-1.70123 -0.37765,-0.45917 0.0103,1.45926 -0.26941,2.92269 -0.13282,4.39179 0.0215,0.59702 0.10845,2.78528 -0.21,1.70033 0.0762,0.83629 -0.2749,-0.80412 -0.17588,0.21107 -0.15208,-0.92952 -0.19384,0.42903 -0.37767,-0.35625 -0.11587,-1.1832 -0.0168,1.1846 -0.0787,-0.35666 0.2618,-1.51196 0.51236,-1.92648 0.67383,-3.43826 0.35842,-1.56248 -0.42503,-3.26853 0.23437,-4.71403 1.01538,-0.87199 2.33698,-1.36961 3.66394,-1.07886 1.71629,-0.12438 4.25222,0.75538 4.83062,-0.37194 2.07294,-4.04023 2.28722,-0.50336 3.87618,-0.11707 2.06039,0.50091 -0.89061,-1.50018 -0.21899,-2.59983 0.25076,-0.87029 0.28104,-2.88461 0.59768,-3.09183 0.55943,1.60058 -0.0209,3.99974 1.10515,4.73841 z"
       id="path3-0"
       sodipodi:nodetypes="scccccasccsccccccccccccccssccs" />
    <text
       xml:space="preserve"
       style="font-weight:bold;font-size:4.11535px;line-height:1.25;font-family:Calibri, Calibri_MSFontService, sans-serif;-inkscape-font-specification:'Calibri, Calibri_MSFontService, sans-serif, Bold';fill:#a7117a;fill-opacity:1;stroke:none;stroke-width:0.113186;stroke-opacity:1"
       x="20.887943"
       y="121.29401"
       id="text1"><tspan
         sodipodi:role="line"
         id="tspan1"
         style="font-style:normal;font-variant:normal;font-weight:normal;font-stretch:normal;font-family:'DIN Next W1G';-inkscape-font-specification:'DIN Next W1G';fill:#a7117a;fill-opacity:1;stroke:none;stroke-width:0.113186;stroke-opacity:1"
         x="20.887943"
         y="121.29401">Taurine</tspan></text>
    <text
       xml:space="preserve"
       style="font-weight:bold;font-size:4.11535px;line-height:1.25;font-family:Calibri, Calibri_MSFontService, sans-serif;-inkscape-font-specification:'Calibri, Calibri_MSFontService, sans-serif, Bold';fill:#007894;fill-opacity:1;stroke-width:0.113186"
       x="96.153328"
       y="106.21394"
       id="text1-4"><tspan
         sodipodi:role="line"
         style="font-style:normal;font-variant:normal;font-weight:normal;font-stretch:normal;font-family:'DIN Next W1G';-inkscape-font-specification:'DIN Next W1G';fill:#007894;fill-opacity:1;stroke-width:0.113186"
         x="96.153328"
         y="106.21394"
         id="tspan2">Indicine</tspan></text>
    <g
       id="g2"
       transform="matrix(0.08964571,0,0,0.121259,29.498027,144.84836)">
      <rect
         style="fill:#c8c8c8;fill-opacity:1;stroke-width:0.548593;stroke-dasharray:1.09719, 1.09719;paint-order:fill markers stroke"
         id="rect1-9"
         width="221.39223"
         height="12.049138"
         x="11.599446"
         y="-5.3074408"
         ry="6.024569" />
      <rect
         style="fill:#a7117a;fill-opacity:1;stroke-width:0.0857498;stroke-dasharray:0.1715, 0.1715;paint-order:fill markers stroke"
         id="rect1-3-0"
         width="5.4091196"
         height="12.049138"
         x="82.143066"
         y="-5.3074408"
         ry="0" />
      <rect
         style="fill:#a7117a;fill-opacity:1;stroke-width:0.159048;stroke-dasharray:0.318096, 0.318096;paint-order:fill markers stroke"
         id="rect1-3-6-4"
         width="18.608664"
         height="12.049138"
         x="158.09338"
         y="-5.3074408"
         ry="0"
         inkscape:transform-center-x="4.0331941"
         inkscape:transform-center-y="0.36665401" />
      <rect
         style="fill:#a7117a;fill-opacity:1;stroke-width:0.0857498;stroke-dasharray:0.1715, 0.1715;paint-order:fill markers stroke"
         id="rect1-3-3-0"
         width="5.4091196"
         height="12.049138"
         x="213.74341"
         y="-5.3074408"
         ry="0" />
    </g>
    <g
       id="g3"
       transform="matrix(0.08964571,0,0,0.121259,113.134,139.17336)">
      <rect
         style="fill:#c8c8c8;fill-opacity:1;stroke-width:0.548593;stroke-dasharray:1.09719, 1.09719;paint-order:fill markers stroke"
         id="rect1"
         width="221.39223"
         height="12.049138"
         x="11.599446"
         y="41.49316"
         ry="6.024569" />
      <rect
         style="fill:#007894;fill-opacity:1;stroke-width:0.129951;stroke-dasharray:0.259902, 0.259902;paint-order:fill markers stroke"
         id="rect1-3"
         width="12.422745"
         height="12.049138"
         x="37.917255"
         y="41.49316"
         ry="0" />
      <rect
         style="fill:#007894;fill-opacity:1;stroke-width:0.0857498;stroke-dasharray:0.1715, 0.1715;paint-order:fill markers stroke"
         id="rect1-3-6"
         width="5.4091196"
         height="12.049138"
         x="82.143066"
         y="41.49316"
         ry="0" />
      <rect
         style="fill:#007894;fill-opacity:1;stroke-width:0.0857498;stroke-dasharray:0.1715, 0.1715;paint-order:fill markers stroke"
         id="rect1-3-1"
         width="5.4091196"
         height="12.049138"
         x="109.13061"
         y="41.49316"
         ry="0" />
      <rect
         style="fill:#007894;fill-opacity:1;stroke-width:0.0857498;stroke-dasharray:0.1715, 0.1715;paint-order:fill markers stroke"
         id="rect1-3-3"
         width="5.4091196"
         height="12.049138"
         x="164.69316"
         y="41.49316"
         ry="0" />
    </g>
    <g
       id="g5"
       transform="matrix(0.08964571,0,0,0.121259,0.85507879,133.26638)"
       style="display:inline">
      <rect
         style="fill:#c8c8c8;fill-opacity:1;stroke-width:0.548593;stroke-dasharray:1.09719, 1.09719;paint-order:fill markers stroke"
         id="rect1-9-7"
         width="221.39223"
         height="12.049138"
         x="11.599446"
         y="90.206924"
         ry="6.024569" />
      <rect
         style="fill:#a7117a;fill-opacity:1;stroke-width:0.0857498;stroke-dasharray:0.1715, 0.1715;paint-order:fill markers stroke"
         id="rect1-3-0-5"
         width="5.4091196"
         height="12.049138"
         x="82.143059"
         y="90.206924"
         ry="0" />
      <rect
         style="fill:#a7117a;fill-opacity:1;stroke-width:0.127264;stroke-dasharray:0.254528, 0.254528;paint-order:fill markers stroke"
         id="rect1-3-6-4-0"
         width="11.914336"
         height="12.049138"
         x="164.7877"
         y="90.206924"
         ry="0"
         inkscape:transform-center-x="2.5822894"
         inkscape:transform-center-y="0.36665401" />
      <rect
         style="fill:#a7117a;fill-opacity:1;stroke-width:0.0857498;stroke-dasharray:0.1715, 0.1715;paint-order:fill markers stroke"
         id="rect1-3-3-0-6"
         width="5.4091196"
         height="12.049138"
         x="213.74339"
         y="90.206924"
         ry="0" />
      <rect
         style="fill:#a7117a;fill-opacity:1;stroke-width:0.0857498;stroke-dasharray:0.1715, 0.1715;paint-order:fill markers stroke"
         id="rect1-3-3-0-6-4"
         width="5.4091196"
         height="12.049138"
         x="51.022343"
         y="90.206924"
         ry="0" />
    </g>
    <g
       id="g7"
       transform="matrix(0.08964571,0,0,0.121259,85.310422,126.31882)"
       style="display:inline">
      <rect
         style="fill:#c8c8c8;fill-opacity:1;stroke-width:0.548593;stroke-dasharray:1.09719, 1.09719;paint-order:fill markers stroke"
         id="rect1-24"
         width="221.39223"
         height="12.049138"
         x="11.599446"
         y="147.50209"
         ry="6.024569" />
      <rect
         style="fill:#007894;fill-opacity:1;stroke-width:0.0568949;stroke-dasharray:0.11379, 0.11379;paint-order:fill markers stroke"
         id="rect1-3-7"
         width="2.3812535"
         height="12.049138"
         x="37.917255"
         y="147.50209"
         ry="0" />
      <rect
         style="fill:#007894;fill-opacity:1;stroke-width:0.0568949;stroke-dasharray:0.11379, 0.11379;paint-order:fill markers stroke"
         id="rect1-3-7-3"
         width="2.3812535"
         height="12.049138"
         x="42.991886"
         y="147.50209"
         ry="0" />
      <rect
         style="fill:#007894;fill-opacity:1;stroke-width:0.0857498;stroke-dasharray:0.1715, 0.1715;paint-order:fill markers stroke"
         id="rect1-3-1-8"
         width="5.4091196"
         height="12.049138"
         x="109.13061"
         y="147.50209"
         ry="0" />
      <rect
         style="fill:#007894;fill-opacity:1;stroke-width:0.0857498;stroke-dasharray:0.1715, 0.1715;paint-order:fill markers stroke"
         id="rect1-3-3-5"
         width="5.4091196"
         height="12.049138"
         x="164.69316"
         y="147.50209"
         ry="0" />
    </g>
  </g>
  <g
     inkscape:groupmode="layer"
     id="layer3"
     inkscape:label="3"
     style="display:inline"
     transform="translate(-1.8949194,-89.72471)">
    <path
       style="fill:none;stroke:#000000;stroke-width:0.158;stroke-linecap:butt;stroke-linejoin:miter;stroke-dasharray:0.632, 0.632;stroke-dashoffset:0;stroke-opacity:1"
       d="m 68.786621,120.513 30.068326,-4.0798"
       id="path1"
       sodipodi:nodetypes="cc" />
    <path
       style="fill:none;stroke:#000000;stroke-width:0.158;stroke-linecap:butt;stroke-linejoin:miter;stroke-dasharray:none;stroke-opacity:1"
       d="m 50.353208,104.58416 18.433413,15.92884 0.102901,6.41898"
       id="path1-7-0"
       sodipodi:nodetypes="ccc" />
    <path
       style="fill:none;fill-opacity:1;stroke:url(#linearGradient2);stroke-width:0.386425;stroke-dasharray:none"
       d="m 75.011296,130.00972 1.741758,1.16118 c -0.335044,0.099 -1.182523,-0.16885 -1.386954,0.10214 -0.473806,0.62802 0.731192,1.46086 0.03453,2.03133 -0.435863,0.35692 -1.062161,-0.20781 -1.361538,0.0286 -0.198818,0.15704 -0.05553,0.527 -0.113793,0.7408 -0.123883,0.45468 -0.609519,1.42558 -0.92628,1.76725 -0.342059,0.36904 -1.066413,0.25234 -1.313155,0.70454 -0.151088,0.27687 -0.02067,0.57486 -0.03218,0.86661 -0.02159,0.55553 -0.395746,0.9661 -0.131873,1.52404 0.150104,0.31743 0.773419,0.67276 0.779049,1.00813 0.0033,0.25683 -0.391066,0.22367 -0.555505,0.22562 l 0.0725,0.43545 c -0.466379,0.11104 -1.208939,0.16119 -1.306332,-0.43545 -0.628271,-0.049 -0.401122,-0.64364 -0.323969,-1.0886 0.103853,-0.59866 -0.06369,-1.28377 -0.104946,-1.88692 -0.01613,-0.23441 0.05654,-0.5689 -0.08116,-0.77523 -0.189853,-0.28449 -0.864578,-0.18187 -1.159142,-0.16169 -1.074175,0.0735 -2.115021,0.56281 -3.193254,0.33558 -0.522241,-0.11009 -1.02699,-0.64328 -1.524052,-0.66928 -0.475788,-0.0251 -0.816595,0.43812 -0.943454,0.83519 l -0.58059,-0.0725 -0.217723,-0.36286 h -0.0725 c -0.629506,1.13512 -0.505556,2.00106 -0.103063,3.19325 0.10408,0.30821 0.716884,0.83045 0.629069,1.12968 -0.07596,0.25916 -0.628187,0.19079 -0.814924,0.13505 -0.389569,-0.11611 -0.828719,-0.80447 -0.799683,-1.19217 -1.02257,-0.0335 0.0059,-1.53957 -0.508016,-2.10463 l -0.145098,-0.65318 c 0.498229,-0.82859 0.435149,-1.68952 -0.290297,-2.39495 l -0.09739,2.26407 0.159557,0.83735 0.01034,1.47074 c -1.103986,-0.94651 -0.26142,-2.03793 -0.384865,-3.17385 -0.146469,-1.34814 -0.601555,-3.22158 0.481325,-4.36015 0.417153,-0.43863 1.079022,-0.51764 1.645313,-0.61218 1.697424,-0.28346 3.059137,0.26277 4.717291,0.3743 0.658618,0.0443 1.765879,-0.0324 2.319468,-0.41837 0.44219,-0.30833 0.594302,-0.93907 1.164157,-1.07058 0.970187,-0.22393 1.693709,0.64288 2.685171,0.40683 -0.468027,-0.39948 -0.925324,-0.69711 -0.725749,-1.3789 0.334707,0.28384 0.529459,0.70427 0.943453,0.90191 1.078342,0.51477 1.959371,-0.0933 1.959496,-1.1922 0.706946,0.22313 0.37218,1.27682 -0.145155,1.52404"
       id="path151643" />
    <g
       id="g9"
       transform="matrix(0.08964571,0,0,0.121259,57.415001,119.23082)"
       style="display:inline">
      <rect
         style="fill:#c8c8c8;fill-opacity:1;stroke-width:0.548593;stroke-dasharray:1.09719, 1.09719;paint-order:fill markers stroke"
         id="rect1-2"
         width="221.39223"
         height="12.049138"
         x="11.599448"
         y="205.95552"
         ry="6.024569" />
      <rect
         style="fill:#a7117a;fill-opacity:1;stroke-width:0.0857498;stroke-dasharray:0.1715, 0.1715;paint-order:fill markers stroke"
         id="rect1-3-0-7"
         width="5.4091196"
         height="12.049138"
         x="82.143066"
         y="205.95552"
         ry="0" />
      <rect
         style="fill:#007894;fill-opacity:1;stroke-width:0.0857498;stroke-dasharray:0.1715, 0.1715;paint-order:fill markers stroke"
         id="rect1-3-1-6"
         width="5.4091196"
         height="12.049138"
         x="109.13061"
         y="205.95552"
         ry="0" />
      <rect
         style="fill:#007894;fill-opacity:1;stroke-width:0.0857498;stroke-dasharray:0.1715, 0.1715;paint-order:fill markers stroke"
         id="rect1-3-1-6-9"
         width="5.4091196"
         height="12.049138"
         x="164.69316"
         y="205.95552"
         ry="0" />
    </g>
    <text
       xml:space="preserve"
       style="font-weight:bold;font-size:4.11535px;line-height:1.25;font-family:Calibri, Calibri_MSFontService, sans-serif;-inkscape-font-specification:'Calibri, Calibri_MSFontService, sans-serif, Bold';display:inline;fill:#000000;fill-opacity:1;stroke:none;stroke-width:0.113186;stroke-opacity:1"
       x="68.328606"
       y="116.94498"
       id="text1-5"><tspan
         sodipodi:role="line"
         id="tspan1-7"
         style="font-style:normal;font-variant:normal;font-weight:normal;font-stretch:normal;font-family:'DIN Next W1G';-inkscape-font-specification:'DIN Next W1G';fill:#000000;fill-opacity:1;stroke:none;stroke-width:0.113186;stroke-opacity:1"
         x="68.328606"
         y="116.94498">?</tspan></text>
  </g>
</svg>
