<?xml version="1.0" encoding="UTF-8" standalone="no"?>
<!-- Created with Inkscape (http://www.inkscape.org/) -->

<svg
   width="154.19969mm"
   height="49.821926mm"
   viewBox="0 0 154.19969 49.821927"
   version="1.1"
   id="svg1"
   inkscape:version="1.4 (e7c3feb1, 2024-10-09)"
   sodipodi:docname="THRSP_3.svg"
   xmlns:inkscape="http://www.inkscape.org/namespaces/inkscape"
   xmlns:sodipodi="http://sodipodi.sourceforge.net/DTD/sodipodi-0.dtd"
   xmlns:xlink="http://www.w3.org/1999/xlink"
   xmlns="http://www.w3.org/2000/svg"
   xmlns:svg="http://www.w3.org/2000/svg">
  <sodipodi:namedview
     id="namedview1"
     pagecolor="#ffffff"
     bordercolor="#666666"
     borderopacity="1.0"
     inkscape:showpageshadow="2"
     inkscape:pageopacity="0.0"
     inkscape:pagecheckerboard="0"
     inkscape:deskcolor="#d1d1d1"
     inkscape:document-units="mm"
     inkscape:zoom="1.8101934"
     inkscape:cx="277.59465"
     inkscape:cy="109.38058"
     inkscape:window-width="2560"
     inkscape:window-height="1387"
     inkscape:window-x="1440"
     inkscape:window-y="25"
     inkscape:window-maximized="1"
     inkscape:current-layer="layer5" />
  <defs
     id="defs1">
    <clipPath
       id="p109f7f594c">
      <rect
         x="72"
         y="34.560001"
         width="446.39999"
         height="221.75999"
         id="rect175" />
    </clipPath>
    <clipPath
       id="clipPath1">
      <rect
         x="72"
         y="34.560001"
         width="446.39999"
         height="221.75999"
         id="rect1" />
    </clipPath>
    <clipPath
       id="clipPath2">
      <rect
         x="72"
         y="34.560001"
         width="446.39999"
         height="221.75999"
         id="rect2" />
    </clipPath>
    <clipPath
       id="clipPath3">
      <rect
         x="72"
         y="34.560001"
         width="446.39999"
         height="221.75999"
         id="rect3" />
    </clipPath>
    <clipPath
       id="clipPath4">
      <rect
         x="72"
         y="34.560001"
         width="446.39999"
         height="221.75999"
         id="rect4" />
    </clipPath>
    <clipPath
       id="clipPath5">
      <rect
         x="72"
         y="34.560001"
         width="446.39999"
         height="221.75999"
         id="rect5" />
    </clipPath>
    <clipPath
       id="clipPath6">
      <rect
         x="72"
         y="34.560001"
         width="446.39999"
         height="221.75999"
         id="rect6" />
    </clipPath>
    <clipPath
       id="clipPath7">
      <rect
         x="72"
         y="34.560001"
         width="446.39999"
         height="221.75999"
         id="rect7" />
    </clipPath>
    <clipPath
       id="clipPath8">
      <rect
         x="72"
         y="34.560001"
         width="446.39999"
         height="221.75999"
         id="rect8" />
    </clipPath>
    <path
       id="mc1f350971e"
       d="M 0,0 V 3.5"
       style="stroke:#000000;stroke-width:0.8" />
    <path
       id="DejaVuSans-33"
       d="m 2597,2516 q 453,-97 707,-404 255,-306 255,-756 0,-690 -475,-1069 -475,-378 -1350,-378 -293,0 -604,58 -311,58 -642,174 v 609 q 262,-153 574,-231 313,-78 654,-78 593,0 904,234 311,234 311,681 0,413 -289,645 -289,233 -804,233 h -544 v 519 h 569 q 465,0 712,186 247,186 247,536 0,359 -255,551 -254,193 -729,193 -260,0 -557,-57 -297,-56 -653,-174 v 562 q 360,100 674,150 314,50 592,50 719,0 1137,-327 419,-326 419,-882 0,-388 -222,-655 -222,-267 -631,-370 z"
       transform="scale(0.015625)" />
    <path
       id="DejaVuSans-2e"
       d="m 684,794 h 660 V 0 H 684 Z"
       transform="scale(0.015625)" />
    <path
       id="DejaVuSans-30"
       d="m 2034,4250 q -487,0 -733,-480 -245,-479 -245,-1442 0,-959 245,-1439 246,-480 733,-480 491,0 736,480 246,480 246,1439 0,963 -246,1442 -245,480 -736,480 z m 0,500 q 785,0 1199,-621 414,-620 414,-1801 0,-1178 -414,-1799 -414,-620 -1199,-620 -784,0 -1198,620 -414,621 -414,1799 0,1181 414,1801 414,621 1198,621 z"
       transform="scale(0.015625)" />
    <path
       id="DejaVuSans-35"
       d="M 691,4666 H 3169 V 4134 H 1269 V 2991 q 137,47 274,70 138,23 276,23 781,0 1237,-428 457,-428 457,-1159 Q 3513,744 3044,326 2575,-91 1722,-91 1428,-91 1123,-41 819,9 494,109 v 635 q 281,-153 581,-228 300,-75 634,-75 541,0 856,284 316,284 316,772 0,487 -316,771 -315,285 -856,285 -253,0 -505,-56 -251,-56 -513,-175 z"
       transform="scale(0.015625)" />
    <path
       id="DejaVuSans-34"
       d="M 2419,4116 825,1625 h 1594 z m -166,550 h 794 V 1625 h 666 V 1100 H 3047 V 0 H 2419 V 1100 H 313 v 609 z"
       transform="scale(0.015625)" />
    <path
       id="DejaVuSans-36"
       d="m 2113,2584 q -425,0 -674,-291 -248,-290 -248,-796 0,-503 248,-796 249,-292 674,-292 425,0 673,292 248,293 248,796 0,506 -248,796 -248,291 -673,291 z m 1253,1979 v -575 q -238,112 -480,171 -242,60 -480,60 -625,0 -955,-422 -329,-422 -376,-1275 184,272 462,417 279,145 613,145 703,0 1111,-427 408,-426 408,-1160 0,-719 -425,-1154 -425,-434 -1131,-434 -810,0 -1238,620 -428,621 -428,1799 0,1106 525,1764 525,658 1409,658 238,0 480,-47 242,-47 505,-140 z"
       transform="scale(0.015625)" />
    <path
       id="DejaVuSans-70"
       d="M 1159,525 V -1331 H 581 v 4831 h 578 v -531 q 182,312 458,463 277,152 661,152 638,0 1036,-506 399,-506 399,-1331 0,-825 -399,-1332 -398,-506 -1036,-506 -384,0 -661,152 -276,152 -458,464 z m 1957,1222 q 0,634 -261,995 -261,361 -717,361 -457,0 -718,-361 -261,-361 -261,-995 0,-634 261,-995 261,-361 718,-361 456,0 717,361 261,361 261,995 z"
       transform="scale(0.015625)" />
    <path
       id="DejaVuSans-6f"
       d="m 1959,3097 q -462,0 -731,-361 -269,-361 -269,-989 0,-628 267,-989 268,-361 733,-361 460,0 728,362 269,363 269,988 0,622 -269,986 -268,364 -728,364 z m 0,487 q 750,0 1178,-488 429,-487 429,-1349 Q 3566,888 3137,398 2709,-91 1959,-91 1206,-91 779,398 353,888 353,1747 q 0,862 426,1349 427,488 1180,488 z"
       transform="scale(0.015625)" />
    <path
       id="DejaVuSans-73"
       d="m 2834,3397 v -544 q -243,125 -506,187 -262,63 -544,63 -428,0 -642,-131 -214,-131 -214,-394 0,-200 153,-314 153,-114 616,-217 l 197,-44 q 612,-131 870,-370 258,-239 258,-667 0,-488 -386,-773 Q 2250,-91 1575,-91 1294,-91 989,-36 684,19 347,128 v 594 q 319,-166 628,-249 309,-82 613,-82 406,0 624,139 219,139 219,392 0,234 -158,359 -157,125 -692,241 l -200,47 q -534,112 -772,345 -237,233 -237,639 0,494 350,762 350,269 994,269 318,0 599,-47 282,-46 519,-140 z"
       transform="scale(0.015625)" />
    <path
       id="DejaVuSans-69"
       d="m 603,3500 h 575 V 0 H 603 Z m 0,1363 h 575 V 4134 H 603 Z"
       transform="scale(0.015625)" />
    <path
       id="DejaVuSans-74"
       d="M 1172,4494 V 3500 H 2356 V 3053 H 1172 V 1153 q 0,-428 117,-550 117,-122 477,-122 h 590 V 0 H 1766 Q 1100,0 847,248 594,497 594,1153 V 3053 H 172 v 447 h 422 v 994 z"
       transform="scale(0.015625)" />
    <path
       id="DejaVuSans-6e"
       d="M 3513,2113 V 0 h -575 v 2094 q 0,497 -194,743 -194,247 -581,247 -466,0 -735,-297 -269,-296 -269,-809 V 0 H 581 v 3500 h 578 v -544 q 207,316 486,472 280,156 646,156 603,0 912,-373 310,-373 310,-1098 z"
       transform="scale(0.015625)" />
    <path
       id="DejaVuSans-2b"
       d="M 2944,4013 V 2272 H 4684 V 1741 H 2944 V 0 H 2419 V 1741 H 678 v 531 h 1741 v 1741 z"
       transform="scale(0.015625)" />
    <path
       id="DejaVuSans-31"
       d="M 794,531 H 1825 V 4091 L 703,3866 v 575 l 1116,225 h 631 V 531 H 3481 V 0 H 794 Z"
       transform="scale(0.015625)" />
    <path
       id="DejaVuSans-37"
       d="M 525,4666 H 3525 V 4397 L 1831,0 H 1172 L 2766,4134 H 525 Z"
       transform="scale(0.015625)" />
    <path
       id="DejaVuSans-39"
       d="m 703,97 v 575 q 238,-113 481,-172 244,-59 479,-59 625,0 954,420 330,420 377,1277 -181,-269 -460,-413 -278,-144 -615,-144 -700,0 -1108,423 -408,424 -408,1159 0,718 425,1152 425,435 1131,435 810,0 1236,-621 427,-620 427,-1801 Q 3622,1225 3098,567 2575,-91 1691,-91 1453,-91 1209,-44 966,3 703,97 Z m 1256,1978 q 425,0 673,290 249,291 249,798 0,503 -249,795 -248,292 -673,292 -425,0 -673,-292 -248,-292 -248,-795 0,-507 248,-798 248,-290 673,-290 z"
       transform="scale(0.015625)" />
    <path
       id="DejaVuSans-65"
       d="M 3597,1894 V 1613 H 953 q 38,-594 358,-905 320,-311 892,-311 331,0 642,81 311,81 618,244 V 178 Q 3153,47 2828,-22 2503,-91 2169,-91 1331,-91 842,396 353,884 353,1716 q 0,859 464,1363 464,505 1252,505 706,0 1117,-455 411,-454 411,-1235 z m -575,169 q -6,471 -264,752 -258,282 -683,282 -481,0 -770,-272 -289,-272 -333,-766 z"
       transform="scale(0.015625)" />
    <path
       id="mca68b19bd4"
       d="M 0,0 H -3.5"
       style="stroke:#000000;stroke-width:0.8" />
    <path
       id="DejaVuSans-32"
       d="M 1228,531 H 3431 V 0 H 469 v 531 q 359,372 979,998 621,627 780,809 303,340 423,576 121,236 121,464 0,372 -261,606 -261,235 -680,235 -297,0 -627,-103 -329,-103 -704,-313 v 638 q 381,153 712,231 332,78 607,78 725,0 1156,-363 431,-362 431,-968 0,-288 -108,-546 -107,-257 -392,-607 -78,-91 -497,-524 Q 1991,1309 1228,531 Z"
       transform="scale(0.015625)" />
    <path
       id="DejaVuSans-72"
       d="m 2631,2963 q -97,56 -211,82 -114,27 -251,27 -488,0 -749,-317 -261,-317 -261,-911 V 0 H 581 v 3500 h 578 v -544 q 182,319 472,473 291,155 707,155 59,0 131,-8 72,-7 159,-23 z"
       transform="scale(0.015625)" />
    <path
       id="DejaVuSans-6d"
       d="m 3328,2828 q 216,388 516,572 300,184 706,184 547,0 844,-383 297,-382 297,-1088 V 0 h -578 v 2094 q 0,503 -179,746 -178,244 -543,244 -447,0 -707,-297 -259,-296 -259,-809 V 0 h -578 v 2094 q 0,506 -178,748 -178,242 -550,242 -441,0 -701,-298 -259,-298 -259,-808 V 0 H 581 v 3500 h 578 v -544 q 197,322 472,475 275,153 653,153 382,0 649,-194 267,-193 395,-562 z"
       transform="scale(0.015625)" />
    <path
       id="DejaVuSans-5f"
       d="m 3263,-1063 v -446 H -63 v 446 z"
       transform="scale(0.015625)" />
    <path
       id="DejaVuSans-63"
       d="m 3122,3366 v -538 q -244,135 -489,202 -245,67 -495,67 -560,0 -870,-355 -309,-354 -309,-995 0,-641 309,-996 310,-354 870,-354 250,0 495,67 245,67 489,202 V 134 Q 2881,22 2623,-34 2366,-91 2075,-91 1284,-91 818,406 353,903 353,1747 q 0,856 470,1346 471,491 1290,491 265,0 518,-55 253,-54 491,-163 z"
       transform="scale(0.015625)" />
    <path
       id="DejaVuSans-76"
       d="M 191,3500 H 800 L 1894,563 2988,3500 h 609 L 2284,0 h -781 z"
       transform="scale(0.015625)" />
    <path
       id="DejaVuSans-61"
       d="m 2194,1759 q -697,0 -966,-159 -269,-159 -269,-544 0,-306 202,-486 202,-179 548,-179 479,0 768,339 289,339 289,901 v 128 z m 1147,238 V 0 H 2766 V 531 Q 2569,213 2275,61 1981,-91 1556,-91 q -537,0 -855,302 -317,302 -317,808 0,590 395,890 396,300 1180,300 h 807 v 57 q 0,397 -261,614 -261,217 -733,217 -300,0 -585,-72 -284,-72 -546,-216 v 532 q 315,122 612,182 297,61 578,61 760,0 1135,-394 375,-393 375,-1193 z"
       transform="scale(0.015625)" />
    <path
       id="DejaVuSans-67"
       d="m 2906,1791 q 0,625 -258,968 -257,344 -723,344 -462,0 -720,-344 -258,-343 -258,-968 0,-622 258,-966 258,-344 720,-344 466,0 723,344 258,344 258,966 z M 3481,434 q 0,-893 -397,-1329 -396,-436 -1215,-436 -303,0 -572,45 -269,45 -522,139 v 559 q 253,-137 500,-202 247,-66 503,-66 566,0 847,295 281,295 281,892 V 616 Q 2728,306 2450,153 2172,0 1784,0 1141,0 747,490 353,981 353,1791 q 0,812 394,1302 394,491 1037,491 388,0 666,-153 278,-153 456,-462 v 531 h 575 z"
       transform="scale(0.015625)" />
    <path
       id="DejaVuSans-53"
       d="m 3425,4513 v -616 q -359,172 -678,256 -319,85 -616,85 -515,0 -795,-200 -280,-200 -280,-569 0,-310 186,-468 186,-157 705,-254 l 381,-78 q 706,-135 1042,-474 336,-339 336,-907 0,-679 -455,-1029 -454,-350 -1332,-350 -331,0 -705,75 -373,75 -773,222 v 650 q 384,-215 753,-325 369,-109 725,-109 540,0 834,212 294,213 294,607 0,343 -211,537 -211,194 -692,291 l -385,75 q -706,140 -1022,440 -315,300 -315,835 0,619 436,975 436,356 1201,356 329,0 669,-60 341,-59 697,-177 z"
       transform="scale(0.015625)" />
    <path
       id="DejaVuSans-42"
       d="M 1259,2228 V 519 h 1013 q 509,0 754,211 246,211 246,645 0,438 -246,645 -245,208 -754,208 z m 0,1919 V 2741 h 935 q 462,0 688,173 227,174 227,530 0,353 -227,528 -226,175 -688,175 z m -631,519 h 1613 q 722,0 1112,-300 391,-300 391,-853 0,-429 -200,-682 -200,-253 -588,-315 466,-100 724,-418 258,-317 258,-792 0,-625 -425,-966 Q 3088,0 2303,0 H 628 Z"
       transform="scale(0.015625)" />
    <path
       id="DejaVuSans-20"
       transform="scale(0.015625)"
       d="" />
    <path
       id="DejaVuSans-75"
       d="m 544,1381 v 2119 h 575 V 1403 q 0,-497 193,-746 194,-248 582,-248 465,0 735,297 271,297 271,810 v 1984 h 575 V 0 H 2900 V 538 Q 2691,219 2414,64 2138,-91 1772,-91 1169,-91 856,284 544,659 544,1381 Z m 1447,2203 z"
       transform="scale(0.015625)" />
    <path
       id="DejaVuSans-62"
       d="m 3116,1747 q 0,634 -261,995 -261,361 -717,361 -457,0 -718,-361 -261,-361 -261,-995 0,-634 261,-995 261,-361 718,-361 456,0 717,361 261,361 261,995 z M 1159,2969 q 182,312 458,463 277,152 661,152 638,0 1036,-506 399,-506 399,-1331 Q 3713,922 3314,415 2916,-91 2278,-91 1894,-91 1617,61 1341,213 1159,525 V 0 H 581 v 4863 h 578 z"
       transform="scale(0.015625)" />
    <path
       id="DejaVuSans-6c"
       d="m 603,4863 h 575 V 0 H 603 Z"
       transform="scale(0.015625)" />
    <clipPath
       clipPathUnits="userSpaceOnUse"
       id="clipPath9">
      <rect
         x="72.000031"
         y="45.511864"
         width="446.39999"
         height="210.80806"
         id="rect10"
         style="stroke-width:0.97499" />
    </clipPath>
  </defs>
  <g
     inkscape:label="1"
     inkscape:groupmode="layer"
     id="layer1"
     transform="translate(-16.562403,-171.62314)">
    <path
       vector-effect="none"
       fill-rule="evenodd"
       d="m 112.89245,201.14094 c 1.5845,0.9722 1.99873,6.91061 3.83785,6.64477"
       id="path18"
       style="font-style:normal;font-weight:400;font-size:13px;font-family:'.AppleSystemUIFont';fill:none;stroke:#000000;stroke-width:0.557622;stroke-linecap:round;stroke-linejoin:bevel;stroke-opacity:0.705882" />
    <path
       vector-effect="none"
       fill-rule="evenodd"
       d="m 98.011726,209.05154 c 1.846231,0.2087 -1.244854,-6.21238 0.133523,-7.45973"
       id="path30"
       style="font-style:normal;font-weight:400;font-size:13px;font-family:'.AppleSystemUIFont';fill:none;stroke:#000000;stroke-width:0.557622;stroke-linecap:round;stroke-linejoin:bevel;stroke-opacity:0.705882" />
    <path
       vector-effect="none"
       fill-rule="evenodd"
       d="m 98.011726,209.05154 c 1.846231,0.2087 17.453124,-1.09666 19.312664,-1.14264"
       id="path33"
       style="font-style:normal;font-weight:400;font-size:13px;font-family:'.AppleSystemUIFont';fill:none;stroke:#000000;stroke-width:0.557622;stroke-linecap:round;stroke-linejoin:bevel;stroke-opacity:0.705882"
       sodipodi:nodetypes="cc" />
    <path
       vector-effect="none"
       fill-rule="evenodd"
       d="m 16.771912,215.60499 c 26.639853,-1.68319 36.985476,-3.24352 63.643146,-4.58493 4.748216,-0.17716 9.502683,-0.7598 14.25339,-0.62023 1.313345,0.54144 2.205732,-0.38185 3.133682,-1.18139 0.05036,-0.62462 -1.055793,-2.26738 -2.086084,-2.15446 -3.986332,-0.43157 -8.003092,0.21453 -11.997235,0.32997 -23.249738,1.23087 -30.18314,2.44756 -53.41665,3.93654 -4.579951,0.28067 -9.15993,0.56092 -13.739758,0.84359"
       id="path54"
       style="font-style:normal;font-weight:400;font-size:13px;font-family:'.AppleSystemUIFont';fill:#dcdcdc;fill-opacity:1;stroke:none;stroke-width:0.371747;stroke-linecap:square;stroke-linejoin:bevel"
       sodipodi:nodetypes="cccccccc" />
    <path
       vector-effect="none"
       fill-rule="evenodd"
       d="m 116.9754,209.48685 c 2.13256,-0.30159 4.25681,-0.70111 6.41973,-0.64448 9.97291,-0.14714 19.94779,0.11586 29.91677,0.39127 3.69939,0.0956 7.39544,0.28061 11.09508,0.36003 0.58706,-0.55787 1.17412,-1.11574 1.76118,-1.67362 -0.60205,-0.56224 -1.11547,-1.32313 -1.77148,-1.76442 -8.78737,-0.27793 -17.57303,-0.59096 -26.35205,-0.7148 -5.86846,-0.042 -11.74948,-0.21246 -17.61347,0.0791 -1.31443,0.189 -2.62885,0.37801 -3.94327,0.56701 0.16245,1.13329 0.3249,2.2666 0.48734,3.39989 m -0.2451,-1.70113 c -0.48535,0.64874 -0.97069,1.29749 -1.45603,1.94623 0.49285,-0.19801 1.56371,0.0367 1.67187,-0.44928 -0.15269,-1.06524 -0.30539,-2.13048 -0.45808,-3.19571 -0.41004,0.14886 -1.7346,0.0646 -1.53596,0.36865 0.59273,0.44337 1.18547,0.88674 1.7782,1.33011 z"
       id="path64"
       style="font-style:normal;font-weight:400;font-size:13px;font-family:'.AppleSystemUIFont';fill:#dcdcdc;fill-opacity:1;stroke:none;stroke-width:0.371747;stroke-linecap:square;stroke-linejoin:bevel" />
    <path
       vector-effect="none"
       fill-rule="evenodd"
       d="m 99.298151,202.8628 c 0.753979,-0.66903 1.486939,-1.37418 2.253949,-2.02081 0.81417,-0.25888 1.62335,-0.55152 2.44063,-0.7894 0.8844,0.0284 1.77323,0.0296 2.65489,0.0749 0.89147,0.28093 1.79344,0.53868 2.67841,0.83396 0.40191,0.24732 0.80381,0.49463 1.20573,0.74194 0.78689,-0.18748 1.57379,-0.37496 2.36069,-0.56244 -0.18764,-0.78864 -0.37528,-1.57728 -0.56292,-2.36592 -0.60866,-0.34458 -1.17047,-0.7813 -1.81646,-1.05361 -1.1136,-0.32492 -2.22191,-0.70428 -3.34392,-1.01208 -1.16502,-0.0584 -2.33378,-0.0709 -3.49999,-0.0948 -0.63383,0.0408 -1.21373,0.34549 -1.82037,0.5128 -0.69912,0.25519 -1.4364,0.4209 -2.106664,0.74501 -0.710114,0.54242 -1.334527,1.19002 -2.00902,1.77615 -0.246969,0.22409 -0.493931,0.44819 -0.740894,0.67228 0.768601,0.84733 1.537201,1.69466 2.305802,2.54198 m -1.152899,-1.27099 c -0.04015,0.80892 -0.08031,1.61783 -0.120463,2.42676 0.424455,-0.38526 0.848907,-0.77051 1.273362,-1.15577 -0.768601,-0.84732 -1.537201,-1.69465 -2.305802,-2.54198 -0.423664,0.3843 -0.847329,0.76861 -1.270994,1.1529 0.807967,0.0394 1.615934,0.0787 2.423897,0.11809 z"
       id="path91-8"
       style="font-style:normal;font-weight:400;font-size:13px;font-family:'.AppleSystemUIFont';fill:#dcdcdc;fill-opacity:1;stroke:none;stroke-width:0.371747;stroke-linecap:square;stroke-linejoin:bevel" />
    <text
       xml:space="preserve"
       style="font-size:6.50265px;line-height:1.25;font-family:sans-serif;stroke-width:0.24385;stroke-linecap:butt;stroke-linejoin:round"
       x="83.334984"
       y="219.43347"
       id="text112"><tspan
         sodipodi:role="line"
         id="tspan112"
         style="font-style:italic;font-variant:normal;font-weight:normal;font-stretch:normal;font-family:'DIN Next W1G';-inkscape-font-specification:'DIN Next W1G Italic';stroke-width:0.24385"
         x="83.334984"
         y="219.43347">Bison specific deletion</tspan><tspan
         sodipodi:role="line"
         style="font-style:italic;font-variant:normal;font-weight:normal;font-stretch:normal;font-family:'DIN Next W1G';-inkscape-font-specification:'DIN Next W1G Italic';stroke-width:0.24385"
         x="83.334984"
         y="227.80453"
         id="tspan17" /></text>
  </g>
  <g
     inkscape:groupmode="layer"
     id="layer4"
     inkscape:label="2"
     style="display:inline">
    <path
       vector-effect="none"
       fill-rule="evenodd"
       d="m 42.316757,211.93742 2.909304,-0.16987 3.708393,-0.20712 3.708393,-0.20712 2.915514,-0.15988"
       id="path56"
       style="font-style:normal;font-weight:400;font-size:13px;font-family:'.AppleSystemUIFont';fill:none;fill-opacity:1;stroke:#333432;stroke-width:3.43421;stroke-linecap:butt;stroke-linejoin:bevel;stroke-opacity:1"
       transform="translate(-16.562403,-171.62314)" />
    <path
       vector-effect="none"
       fill-rule="evenodd"
       d="m 101.27427,199.12588 2.42592,-0.79816 3.19109,0.0785 1.69596,0.5236"
       id="path93-5"
       style="font-style:normal;font-weight:400;font-size:13px;font-family:'.AppleSystemUIFont';fill:none;stroke:#258dcf;stroke-width:3.43421;stroke-linecap:butt;stroke-linejoin:bevel;stroke-opacity:1"
       transform="translate(-16.562403,-171.62314)" />
    <text
       xml:space="preserve"
       style="font-size:7.22517px;line-height:1.25;font-family:sans-serif;fill:#333432;fill-opacity:1;stroke:none;stroke-width:0.270944;stroke-linecap:butt;stroke-linejoin:round;stroke-opacity:1"
       x="22.429852"
       y="221.36559"
       id="text116"
       transform="translate(-16.562403,-171.62314)"><tspan
         sodipodi:role="line"
         id="tspan116"
         style="font-style:normal;font-variant:normal;font-weight:normal;font-stretch:normal;font-family:'DIN Next W1G';-inkscape-font-specification:'DIN Next W1G';fill:#333432;fill-opacity:1;stroke:none;stroke-width:0.270944;stroke-opacity:1"
         x="22.429852"
         y="221.36559">exon 2</tspan></text>
    <text
       xml:space="preserve"
       style="font-size:7.22517px;line-height:1.25;font-family:sans-serif;fill:#258dcf;fill-opacity:1;stroke-width:0.270944;stroke-linecap:butt;stroke-linejoin:round"
       x="118.65306"
       y="200.93259"
       id="text117"
       transform="translate(-16.562403,-171.62314)"><tspan
         sodipodi:role="line"
         id="tspan117"
         style="font-style:normal;font-variant:normal;font-weight:normal;font-stretch:normal;font-family:'DIN Next W1G';-inkscape-font-specification:'DIN Next W1G';fill:#258dcf;fill-opacity:1;stroke-width:0.270944"
         x="118.65306"
         y="200.93259">exon 1</tspan></text>
  </g>
  <g
     inkscape:groupmode="layer"
     id="layer5"
     inkscape:label="3"
     style="display:inline">
    <g
       id="g52"
       transform="matrix(0.31646548,0,0,0.31646548,37.463116,-38.147165)">
      <g
         id="line2d_9"
         style="stroke-linecap:butt;stroke-linejoin:round"
         transform="matrix(0.35277777,0,0,0.35277777,48.411746,110.96273)">
        <defs
           id="defs53">
          <path
             id="path34"
             d="M 0,0 H -3.5"
             style="stroke:#000000;stroke-width:0.8" />
        </defs>
        <g
           id="g54"
           style="stroke-linecap:butt;stroke-linejoin:round">
          <use
             xlink:href="#mca68b19bd4"
             x="72"
             y="236.16"
             style="stroke:#000000;stroke-width:0.8;stroke-linecap:butt;stroke-linejoin:round"
             id="use54" />
        </g>
      </g>
      <g
         id="line2d_13"
         style="stroke-linecap:butt;stroke-linejoin:round"
         transform="matrix(0.35277777,0,0,0.35277777,48.411746,110.96273)">
        <g
           id="g74"
           style="stroke-linecap:butt;stroke-linejoin:round">
          <use
             xlink:href="#mca68b19bd4"
             x="72"
             y="135.36"
             style="stroke:#000000;stroke-width:0.8;stroke-linecap:butt;stroke-linejoin:round"
             id="use74" />
        </g>
      </g>
      <path
         d="M 73.811748,201.38673 V 127.08055"
         style="fill:none;stroke:#000000;stroke-width:0.282222;stroke-linecap:square;stroke-linejoin:miter"
         id="path116"
         sodipodi:nodetypes="cc" />
    </g>
    <text
       xml:space="preserve"
       style="font-size:3.84314px;line-height:1.25;font-family:sans-serif;display:inline;stroke-width:0.144118;stroke-linecap:butt;stroke-linejoin:round"
       x="145.41991"
       y="178.94502"
       id="text112-8"
       transform="translate(-16.562403,-171.62314)"><tspan
         sodipodi:role="line"
         style="font-style:italic;font-variant:normal;font-weight:normal;font-stretch:normal;font-family:'DIN Next W1G';-inkscape-font-specification:'DIN Next W1G Italic';stroke-width:0.144118"
         x="145.41991"
         y="178.94502"
         id="tspan17-5">Bos taurus</tspan></text>
    <text
       xml:space="preserve"
       style="font-size:3.84314px;line-height:1.25;font-family:sans-serif;display:inline;stroke-width:0.144118;stroke-linecap:butt;stroke-linejoin:round"
       x="145.41991"
       y="183.59398"
       id="text112-8-8"
       transform="translate(-16.562403,-171.62314)"><tspan
         sodipodi:role="line"
         style="font-style:italic;font-variant:normal;font-weight:normal;font-stretch:normal;font-family:'DIN Next W1G';-inkscape-font-specification:'DIN Next W1G Italic';stroke-width:0.144118"
         x="145.41991"
         y="183.59398"
         id="tspan17-5-3">Bison bison</tspan></text>
    <g
       id="text_11"
       style="display:inline;stroke-linecap:butt;stroke-linejoin:round"
       transform="matrix(0.35277777,0,0,0.35277777,36.818887,-60.441165)">
      <!-- 0.00 -->
      <g
         transform="matrix(0.1,0,0,-0.1,42.734375,239.95922)"
         id="g58"
         style="stroke-linecap:butt;stroke-linejoin:round">
        <use
           xlink:href="#DejaVuSans-30"
           id="use55"
           style="stroke-linecap:butt;stroke-linejoin:round" />
        <use
           xlink:href="#DejaVuSans-2e"
           x="63.623047"
           id="use56"
           style="stroke-linecap:butt;stroke-linejoin:round" />
        <use
           xlink:href="#DejaVuSans-30"
           x="95.410156"
           id="use57"
           style="stroke-linecap:butt;stroke-linejoin:round" />
        <use
           xlink:href="#DejaVuSans-30"
           x="159.0332"
           id="use58"
           style="stroke-linecap:butt;stroke-linejoin:round" />
      </g>
    </g>
    <g
       id="text_15"
       style="display:inline;stroke-linecap:butt;stroke-linejoin:round"
       transform="matrix(0.35277777,0,0,0.35277777,36.965049,-36.178096)">
      <!-- 1.00 -->
      <g
         transform="matrix(0.1,0,0,-0.1,42.734375,139.15922)"
         id="g78"
         style="stroke-linecap:butt;stroke-linejoin:round">
        <use
           xlink:href="#DejaVuSans-31"
           id="use75"
           style="stroke-linecap:butt;stroke-linejoin:round" />
        <use
           xlink:href="#DejaVuSans-2e"
           x="63.623047"
           id="use76"
           style="stroke-linecap:butt;stroke-linejoin:round" />
        <use
           xlink:href="#DejaVuSans-30"
           x="95.410156"
           id="use77"
           style="stroke-linecap:butt;stroke-linejoin:round" />
        <use
           xlink:href="#DejaVuSans-30"
           x="159.0332"
           id="use78"
           style="stroke-linecap:butt;stroke-linejoin:round" />
      </g>
    </g>
    <g
       transform="matrix(0,-0.02281819,-0.02281819,0,49.290896,22.644575)"
       id="g111"
       style="display:inline;stroke-linecap:butt;stroke-linejoin:round">
      <defs
         id="defs98">
        <path
           id="path36"
           d="m 2631,2963 q -97,56 -211,82 -114,27 -251,27 -488,0 -749,-317 -261,-317 -261,-911 V 0 H 581 v 3500 h 578 v -544 q 182,319 472,473 291,155 707,155 59,0 131,-8 72,-7 159,-23 z"
           transform="scale(0.015625)" />
        <path
           id="path37"
           d="m 3328,2828 q 216,388 516,572 300,184 706,184 547,0 844,-383 297,-382 297,-1088 V 0 h -578 v 2094 q 0,503 -179,746 -178,244 -543,244 -447,0 -707,-297 -259,-296 -259,-809 V 0 h -578 v 2094 q 0,506 -178,748 -178,242 -550,242 -441,0 -701,-298 -259,-298 -259,-808 V 0 H 581 v 3500 h 578 v -544 q 197,322 472,475 275,153 653,153 382,0 649,-194 267,-193 395,-562 z"
           transform="scale(0.015625)" />
        <path
           id="path38"
           d="m 3263,-1063 v -446 H -63 v 446 z"
           transform="scale(0.015625)" />
        <path
           id="path39"
           d="m 3122,3366 v -538 q -244,135 -489,202 -245,67 -495,67 -560,0 -870,-355 -309,-354 -309,-995 0,-641 309,-996 310,-354 870,-354 250,0 495,67 245,67 489,202 V 134 Q 2881,22 2623,-34 2366,-91 2075,-91 1284,-91 818,406 353,903 353,1747 q 0,856 470,1346 471,491 1290,491 265,0 518,-55 253,-54 491,-163 z"
           transform="scale(0.015625)" />
        <path
           id="path40"
           d="M 191,3500 H 800 L 1894,563 2988,3500 h 609 L 2284,0 h -781 z"
           transform="scale(0.015625)" />
        <path
           id="path41"
           d="m 2194,1759 q -697,0 -966,-159 -269,-159 -269,-544 0,-306 202,-486 202,-179 548,-179 479,0 768,339 289,339 289,901 v 128 z m 1147,238 V 0 H 2766 V 531 Q 2569,213 2275,61 1981,-91 1556,-91 q -537,0 -855,302 -317,302 -317,808 0,590 395,890 396,300 1180,300 h 807 v 57 q 0,397 -261,614 -261,217 -733,217 -300,0 -585,-72 -284,-72 -546,-216 v 532 q 315,122 612,182 297,61 578,61 760,0 1135,-394 375,-393 375,-1193 z"
           transform="scale(0.015625)" />
        <path
           id="path42"
           d="m 2906,1791 q 0,625 -258,968 -257,344 -723,344 -462,0 -720,-344 -258,-343 -258,-968 0,-622 258,-966 258,-344 720,-344 466,0 723,344 258,344 258,966 z M 3481,434 q 0,-893 -397,-1329 -396,-436 -1215,-436 -303,0 -572,45 -269,45 -522,139 v 559 q 253,-137 500,-202 247,-66 503,-66 566,0 847,295 281,295 281,892 V 616 Q 2728,306 2450,153 2172,0 1784,0 1141,0 747,490 353,981 353,1791 q 0,812 394,1302 394,491 1037,491 388,0 666,-153 278,-153 456,-462 v 531 h 575 z"
           transform="scale(0.015625)" />
      </defs>
      <text
         xml:space="preserve"
         style="font-size:200px;line-height:1.25;font-family:arial;-inkscape-font-specification:arial;text-align:center;text-anchor:middle;stroke-width:7.5"
         x="385.72229"
         y="-24.126179"
         id="text52"
         transform="scale(1,-1)"><tspan
           sodipodi:role="line"
           id="tspan52"
           style="font-style:normal;font-variant:normal;font-weight:normal;font-stretch:normal;font-family:'DIN Next W1G';-inkscape-font-specification:'DIN Next W1G';stroke-width:7.5"
           x="385.72229"
           y="-24.126179">Coverage</tspan></text>
    </g>
    <g
       id="g50"
       transform="matrix(0.34047795,0,0,0.34047795,62.036986,-111.74191)"
       style="display:inline">
      <path
         d="m -310.62857,138.77323 v 4.64286 l 12.75428,3.03271 12.75429,14.10566 12.75429,-15.36728 12.75428,-1.62208 12.75429,-17.10561 12.75428,-11.32298 12.75429,13.33513 12.75428,-2.07799 12.75429,5.53286 12.75429,-5.53333 12.75428,-0.43252 12.75429,5.84123 12.75428,2.65842 12.75429,-3.63156 12.75428,0.98481 12.75429,2.69133 12.754286,2.56982 12.754285,-1.93399 12.754286,2.67786 12.754286,-1.20098 12.754286,0.33613 12.754285,4.66975 12.754286,7.39473 12.754286,1.7216 12.754285,-0.43819 12.754286,10.17563 12.754286,-8.1799 12.754286,-10.66738 12.754285,-0.83496 L 72,140.20304 l 12.754286,4.23606 12.754285,-0.6738 12.754289,-3.65864 12.75428,2.10064 12.75429,-2.96284 12.75428,-4.94422 12.75429,0.62593 12.75429,0.91027 12.75428,-1.47793 12.75429,2.98212 12.75428,-3.44848 12.75429,0.37426 12.75428,7.05712 12.75429,-1.0484 12.75429,-0.91554 12.75428,1.46252 12.75429,-4.684 12.75428,-1.38308 12.75429,4.77825 12.75428,-1.65757 12.75429,0.54404 12.75429,-1.07059 12.75428,-4.36604 12.75429,-1.74033 12.75428,2.21951 12.75429,-3.44214 12.75428,-0.57015 12.75429,0.10219 12.75429,3.43241 12.75428,0.59584 12.75429,5.2914 12.75428,-1.21174 12.75429,0.56342 12.75428,-5.19281 12.75429,2.51611 12.75429,0.33121 12.75428,-2.86737 12.75429,0.72124 12.75428,-3.01763 12.75429,-1.36411 12.75428,-0.24811 12.75429,-1.1645 12.75429,2.49842 12.75428,4.74065 12.75429,-2.39158 12.75428,-0.37086 12.75429,5.25181 12.75428,3.92792 12.75429,-3.31885 12.75429,-2.6308 12.75428,0.81232 12.75429,-2.95683 12.75428,4.0775 12.75429,-1.31466 12.75428,0.37967 12.75429,0.36717 12.75429,1.44643 12.75428,-3.05445 12.75429,-3.63021 12.75428,-12.70275 12.75429,-61.712448 12.75428,36.465648 12.75429,40.62542 12.75429,-2.26726 12.75428,-1.64307 12.75429,-0.30131 12.75428,2.98401 12.75429,-0.33733 12.75428,2.14717 12.75429,1.16137 v -5.6339 0 l -12.75429,-1.11456 -12.75428,-1.7442 -12.75429,0.68398 -12.75428,-3.21177 -12.75429,-0.004 -12.75428,2.05151 -12.75429,2.17504 -12.75429,-41.385512 -12.75428,-37.981341 -12.75429,64.118833 -12.75428,12.82551 -12.75429,3.44608 -12.75428,3.25112 -12.75429,-1.45733 -12.75429,0.19563 -12.75428,-0.865 -12.75429,1.60217 -12.75428,-4.31968 -12.75429,2.81572 -12.75428,-0.95446 -12.75429,2.90898 -12.75429,3.29591 -12.75428,-3.55274 -12.75429,-5.44488 -12.75428,0.54598 -12.75429,2.15835 -12.75428,-4.73672 -12.75429,-2.71717 -12.75429,0.78873 -12.75428,-0.11697 -12.75429,1.72833 -12.75428,3.3819 -12.75429,-0.39264 -12.75428,2.54458 -12.75429,0.2253 -12.75429,-2.88259 -12.75428,5.14797 -12.75429,-0.45916 -12.75428,1.4211 -12.75429,-5.60561 -12.75428,-0.83077 -12.75429,-3.60701 -12.75429,0.16014 -12.75428,0.21913 -12.75429,3.54045 -12.75428,-2.18753 -12.75429,1.8686 -12.75428,4.64777 -12.75429,0.77697 -12.75429,-0.41682 -12.75428,1.19964 -12.75429,-5.06613 -12.75428,0.71613 -12.75429,4.66898 -12.75428,-0.88215 -12.75429,1.04219 -12.75429,1.33679 -12.75428,-7.00126 -12.75429,0.12961 -12.75428,3.73467 -12.75429,-3.29484 -12.75428,1.18917 -12.75429,-1.1382 -12.75429,-0.0255 -12.75428,5.10461 -12.75429,2.90586 -12.75428,-2.00087 -12.754289,4.02129 L 84.754286,140.3286 72,135.5628 l -12.754286,0.70204 -12.754285,0.76312 -12.754286,10.13735 -12.754286,7.58888 -12.754286,-9.22013 -12.754285,0.36175 -12.754286,-1.82903 -12.754286,-6.91017 -12.754285,-4.51079 -12.754286,-0.36354 -12.754286,1.37378 -12.754286,-2.96798 -12.754285,1.82419 -12.754286,-2.24079 -12.75429,-3.232 -12.75428,-1.18657 -12.75429,3.66725 -12.75428,-3.05319 -12.75429,-6.0616 -12.75428,0.60323 -12.75429,5.62101 -12.75429,-5.89845 -12.75428,2.22439 -12.75429,-14.45876 -12.75428,11.50985 -12.75429,18.80379 -12.75428,1.36067 -12.75429,15.41305 -12.75429,-14.01409 z"
         clip-path="url(#p109f7f594c)"
         style="fill:#31cc0c;fill-opacity:0.2;stroke:#31cc0c;stroke-linecap:butt;stroke-linejoin:round;stroke-opacity:0.2"
         id="path3"
         transform="matrix(0.35277777,0,0,0.35277777,-28.79129,315.99933)" />
      <path
         d="m -310.62857,127.54829 v 30.89279 l 12.75428,4.66242 12.75429,39.84228 12.75429,-20.71348 12.75428,-34.60294 12.75429,-11.79989 12.75428,-7.35671 12.75429,55.76624 12.75428,-42.34115 12.75429,9.14665 12.75429,-46.91731 12.75428,1.37181 12.75429,28.2957 12.75428,9.70651 12.75429,-8.64698 12.75428,-6.27392 12.75429,34.928 12.754286,-25.54027 12.754285,-18.14962 12.754286,22.01133 12.754286,4.23825 12.754286,-14.58209 12.754285,5.26894 12.754286,21.36788 12.754286,2.34822 12.754285,-4.49565 12.754286,37.09855 12.754286,-8.79761 12.754286,-44.80069 12.754285,7.42727 L 72,146.42305 l 12.754286,0.21369 12.754285,-6.1482 12.754289,28.93044 12.75428,-7.70528 12.75429,-2.74631 12.75428,-12.7236 12.75429,12.15315 12.75429,6.19917 12.75428,-7.21951 12.75429,16.50761 12.75428,62.27579 h 12.75429 12.75428 12.75429 12.75429 12.75428 12.75429 12.75428 12.75429 12.75428 12.75429 12.75429 12.75428 12.75429 12.75428 l 12.75429,-31.82554 12.75428,-54.31668 12.75429,-1.38789 12.75429,-15.65769 12.75428,12.83478 12.75429,11.38719 12.75428,-15.88425 12.75429,2.93141 12.75428,-21.00302 12.75429,-1.11083 12.75429,22.19544 12.75428,-7.61746 12.75429,-30.41683 12.75428,1.16548 12.75429,15.94552 12.75428,-6.87233 12.75429,-7.06394 12.75429,28.82709 12.75428,-1.08684 12.75429,1.68136 12.75428,-20.00622 12.75429,19.64777 12.75428,1.63319 12.75429,18.30315 12.75429,2.60924 12.75428,17.05076 12.75429,-13.84352 12.75428,-5.7799 12.75429,-1.86351 12.75428,-7.81133 12.75429,-6.38432 12.75429,4.24486 12.75428,0.66563 12.75429,-12.8277 12.75428,-60.621733 12.75429,-141.989559 12.75428,67.51776 12.75429,109.984692 12.75429,35.6525 12.75428,-8.71951 12.75429,2.26585 12.75428,9.05654 12.75429,-1.29132 12.75428,-6.85515 12.75429,16.84984 v -25.57002 0 l -12.75429,-7.73492 -12.75428,8.46735 -12.75429,-2.37506 -12.75428,-19.20309 -12.75429,4.68563 -12.75428,14.1721 L 875.52,91.528868 862.76571,-57.926351 850.01143,-134.36467 837.25714,61.328506 l -12.75428,48.015074 -12.75429,25.43663 -12.75428,-8.27785 -12.75429,-3.52223 -12.75429,8.39924 -12.75428,12.34101 -12.75429,-4.80661 -12.75428,4.41064 -12.75429,12.20801 L 709.71429,143.2657 696.96,144.90583 684.20571,124.34425 671.45143,122.49108 658.69714,99.709251 645.94286,125.11537 633.18857,117.14604 620.43429,112.93693 607.68,84.767834 594.92571,102.00443 582.17143,115.03569 569.41714,94.903723 556.66286,86.249535 543.90857,114.46356 531.15429,112.23453 518.4,109.50207 l -12.75429,-5.16863 -12.75428,15.26302 -12.75429,3.89674 -12.75428,19.47955 -12.75429,-17.29617 -12.75428,-10.65131 -12.75429,15.69356 -12.75429,1.56038 -12.75428,65.06661 L 390.85714,236.16 H 378.10286 365.34857 352.59429 339.84 327.08571 314.33143 301.57714 288.82286 276.06857 263.31429 250.56 237.80571 225.05143 l -12.75429,-0.58881 -12.75428,-72.78275 -12.75429,-26.55961 -12.75428,4.87529 L 161.28,140.7693 148.52571,125.86166 135.77143,139.56717 123.01714,152.51978 110.26286,145.38846 97.508571,113.52305 84.754286,135.23036 72,131.51671 59.245714,135.82979 46.491429,120.57265 33.737143,169.31483 20.982857,184.62924 8.228571,131.60817 -4.525714,150.27126 -17.28,142.34631 l -12.754286,-34.11664 -12.754285,6.17046 -12.754286,9.19799 -12.754286,4.65887 -12.754286,-26.31388 -12.754285,24.95103 -12.754286,16.43682 -12.75429,-31.95281 -12.75428,7.82233 -12.75429,6.65094 -12.75428,-3.49999 -12.75429,-38.166045 -12.75428,-4.134577 -12.75429,57.637382 -12.75429,-23.74274 -12.75428,38.12601 -12.75429,-44.37161 -12.75428,-2.31821 -12.75429,21.29373 -12.75428,38.12994 -12.75429,25.37724 -12.75429,-50.59273 z"
         clip-path="url(#p109f7f594c)"
         style="fill:#604bb6;fill-opacity:0.2;stroke:#604bb6;stroke-linecap:butt;stroke-linejoin:round;stroke-opacity:0.2"
         id="path5"
         transform="matrix(0.35277777,0,0,0.35277777,-28.79129,315.99933)" />
      <path
         d="m -310.62857,141.64635 v 15.69207 l 12.75428,-11.29059 12.75429,2.76749 12.75429,58.19033 12.75428,17.51255 12.75429,-133.695037 12.75428,-60.898173 12.75429,67.811535 12.75428,-27.325097 12.75429,96.088222 12.75429,-278.83466 12.75428,-51.971 12.75429,304.90787 12.75428,0.4603 12.75429,-15.15396 12.75428,2.26085 12.75429,8.05928 12.754286,7.57248 12.754285,5.88952 12.754286,-0.2478 12.754286,-5.14064 12.754286,8.19781 12.754285,1.85181 12.754286,5.06992 12.754286,1.85395 12.754285,-8.10735 12.754286,-9.99455 12.754286,5.46047 L 46.491429,121.8254 59.245714,121.63693 72,125.80992 l 12.754286,12.04513 12.754285,20.8843 12.754289,1.90619 12.75428,-18.66345 12.75429,10.53768 12.75428,-5.3262 12.75429,-15.54784 12.75429,6.53078 12.75428,4.59852 12.75429,-2.5689 12.75428,8.34426 12.75429,-3.44386 12.75428,10.85061 12.75429,10.67954 12.75429,-14.42503 12.75428,10.68565 12.75429,3.60861 12.75428,-18.28878 12.75429,-0.0718 12.75428,0.35454 12.75429,-0.62645 12.75429,-8.94483 12.75428,8.69156 12.75429,4.1404 12.75428,-21.05995 12.75429,2.8367 12.75428,7.16177 12.75429,-2.54727 12.75429,1.42931 12.75428,5.29631 12.75429,2.33276 12.75428,3.07985 12.75429,-6.94593 12.75428,-13.68333 12.75429,10.64686 12.75429,0.1295 12.75428,5.52979 12.75429,-4.55804 12.75428,-4.8 12.75429,-5.86983 12.75428,5.71729 12.75429,1.3623 12.75429,8.81816 12.75428,6.68865 12.75429,-9.55626 12.75428,4.94271 12.75429,3.47239 12.75428,18.60824 12.75429,-27.28524 12.75429,-5.58415 12.75428,-0.31665 12.75429,1.0326 12.75428,12.04688 12.75429,-14.04883 12.75428,-2.76697 12.75429,-1.72872 12.75429,13.48382 12.75428,15.06135 12.75429,-57.78593 12.75428,-311.16759 12.75429,-148.64803 12.75428,293.152285 12.75429,146.033459 12.75429,62.172756 12.75428,40.12336 12.75429,4.85258 12.75428,-8.06252 12.75429,-22.0997 12.75428,-0.99194 12.75429,6.69968 v -15.91071 0 l -12.75429,-7.93971 -12.75428,-2.19563 -12.75429,27.24197 -12.75428,11.10413 L 901.02857,170.7283 888.27429,126.69452 875.52,49.545692 862.76571,-99.577196 850.01143,-422.1743 837.25714,-267.89509 824.50286,74.584634 811.74857,142.79494 798.99429,130.31127 786.24,117.15803 l -12.75429,-0.72609 -12.75428,8.85382 -12.75429,9.59676 -12.75428,-11.63724 -12.75429,-3.96485 -12.75428,5.10993 -12.75429,3.30141 -12.75429,23.05101 -12.75428,-13.373 -12.75429,-6.26243 -12.75428,-6.57833 -12.75429,12.58441 -12.75428,-8.93008 -12.75429,-11.55901 -12.75429,3.72354 -12.75428,-7.08164 -12.75429,5.72747 -12.75428,3.36723 -12.75429,5.67783 -12.75428,1.60789 -12.75429,-4.08844 -12.75429,-6.03721 -12.75428,12.77835 -12.75429,-2.38698 -12.75428,4.38732 -12.75429,3.05871 -12.75428,-12.09334 -12.75429,-8.27354 -12.75429,4.19079 -12.75428,-11.6473 -12.75429,7.34014 -12.75428,12.55073 -12.75429,-1.63713 -12.75428,-4.57934 -12.75429,4.84261 -12.75429,0.25009 -12.75428,2.23247 -12.75429,2.07314 -12.75428,17.60144 -12.75429,-3.86614 -12.75428,-8.39697 -12.75429,14.235 -12.75429,-14.46751 -12.75428,-12.99938 -12.75429,6.15433 -12.75428,-4.48747 -12.75429,0.77338 -12.75428,-11.93606 -12.75429,-0.85262 -12.75429,17.53718 -12.75428,5.11158 -12.75429,-11.8903 -12.75428,19.94748 L 97.508571,144.93535 84.754286,123.70644 72,112.55692 59.245714,99.78636 46.491429,107.44887 33.737143,130.34158 20.982857,125.59069 8.228571,132.42986 -4.525714,143.92385 -17.28,153.06308 l -12.754286,-14.13275 -12.754285,-1.99235 -12.754286,-3.65318 -12.754286,-0.61869 -12.754286,0.82493 -12.754285,-6.14356 -12.754286,-9.00727 -12.75429,-5.63977 -12.75428,-3.00666 -12.75429,9.9403 -12.75428,8.68083 -12.75429,-337.90355 -12.75428,47.17154 -12.75429,317.87757 -12.75429,-117.806492 -12.75428,34.204335 -12.75429,-73.933663 -12.75428,63.052377 -12.75429,156.419833 -12.75428,-21.75104 -12.75429,-62.02294 -12.75429,-0.5626 z"
         clip-path="url(#p109f7f594c)"
         style="fill:#d37014;fill-opacity:0.2;stroke:#d37014;stroke-linecap:butt;stroke-linejoin:round;stroke-opacity:0.2"
         id="path6"
         transform="matrix(0.35277777,0,0,0.35277777,-28.79129,315.99933)" />
      <path
         d="m -1,148.37053 9.228571,-0.27981 12.754286,9.53063 12.754286,-7.83883 12.754286,-10.23444 12.754285,-1.07873 L 72,137.93447 l 12.754286,4.69177 12.754285,-0.86838 12.754289,-3.76965 12.75428,1.99778 12.75429,-2.92556 12.75428,-4.92838 12.75429,0.17865 12.75429,0.94595 12.75428,-1.30085 12.75429,3.22352 12.75428,-3.52851 12.75429,0.0318 12.75428,6.97868 12.75429,-1.1012 12.75429,-0.90536 12.75428,1.14349 12.75429,-4.63081 12.75428,-1.20597 12.75429,4.87886 12.75428,-1.26873 12.75429,0.48559 12.75429,-0.97192 12.75428,-4.5408 12.75429,-1.76589 12.75428,2.3233 12.75429,-3.78601 12.75428,-0.31471 12.75429,0.0105 12.75429,3.56703 12.75428,0.69799 12.75429,5.50236 12.75428,-1.34909 12.75429,0.4984 12.75428,-5.23067 12.75429,2.75004 12.75429,-0.003 12.75428,-2.66837 12.75429,0.46873 12.75428,-3.09252 7.58286,-0.9544"
         clip-path="url(#p109f7f594c)"
         style="fill:none;stroke:#31cc0c;stroke-width:1.5;stroke-linecap:square;stroke-linejoin:round"
         id="path111"
         transform="matrix(0.35277777,0,0,0.35277777,-28.79129,315.99933)" />
      <path
         d="m -1,118.2447 9.228571,-12.22185 12.754286,-0.57086 12.754286,6.56263 L 46.491429,88.589848 59.245714,100.23839 72,124.89419 l 12.754286,17.91616 12.754285,7.44466 12.754289,-0.32129 12.75428,-17.4419 12.75429,-36.003434 12.75428,-16.734417 12.75429,33.065851 12.75429,12.87283 12.75428,10.85578 12.75429,38.41521 12.75428,61.08268 12.75429,0.11368 h 12.75428 12.75429 12.75429 12.75428 12.75429 12.75428 12.75429 12.75428 12.75429 12.75429 12.75428 12.75429 12.75428 l 12.75429,-30.31182 12.75428,-83.45288 12.75429,6.2845 12.75429,16.18747 12.75428,13.89415 12.75429,-1.51431 12.75428,-8.23921 12.75429,-1.39274 12.75428,2.91919 12.75429,4.71915 12.75429,13.8787 12.75428,-1.5812 12.75429,-5.77047 12.75428,-11.08888 L 577,135.4492"
         clip-path="url(#p109f7f594c)"
         style="fill:none;stroke:#1fa1d5;stroke-width:1.5;stroke-linecap:square;stroke-linejoin:round"
         id="path112"
         transform="matrix(0.35277777,0,0,0.35277777,-28.79129,315.99933)" />
      <path
         d="m -1,152.09942 9.228571,-8.7701 12.754286,45.48676 12.754286,-11.90443 12.754286,-47.27563 12.754285,11.81072 L 72,138.82412 l 12.754286,1.89675 12.754285,-13.44457 12.754289,30.73149 12.75428,-1.13701 12.75429,-7.69827 12.75428,-13.12905 12.75429,12.86961 12.75429,3.71517 12.75428,-5.06312 12.75429,21.12851 12.75428,67.23085 12.75429,0.23552 h 12.75428 12.75429 12.75429 12.75428 12.75429 12.75428 12.75429 12.75428 12.75429 12.75429 12.75428 12.75429 12.75428 l 12.75429,-35.05201 12.75428,-59.40009 12.75429,-2.13596 12.75429,-15.05496 12.75428,10.909 12.75429,14.66215 12.75428,-17.93866 12.75429,0.46177 12.75428,-18.62636 12.75429,1.98158 12.75429,12.44244 12.75428,-3.47428 12.75429,-27.916681 12.75428,3.904191 L 577,111.70218"
         clip-path="url(#p109f7f594c)"
         style="fill:none;stroke:#604bb6;stroke-width:1.5;stroke-linecap:square;stroke-linejoin:round"
         id="path113"
         transform="matrix(0.35277777,0,0,0.35277777,-28.79129,315.99933)" />
      <path
         d="m -1,150.28381 9.228571,-6.85544 12.754286,-8.99802 12.754286,5.55618 12.754286,-25.04424 12.754285,-3.31452 12.754286,7.0537 12.754286,12.07755 12.754285,20.24029 12.754289,1.88856 12.75428,-18.97207 12.75429,12.04274 12.75428,-5.93353 12.75429,-17.33029 12.75429,4.48448 12.75428,8.04053 12.75429,-2.1651 12.75428,7.80411 12.75429,-5.65944 12.75428,12.28082 12.75429,12.27071 12.75429,-14.3938 12.75428,10.24439 12.75429,3.29077 12.75428,-17.91982 12.75429,-0.90131 12.75428,-1.00514 12.75429,-0.92264 12.75429,-7.0691 12.75428,6.37501 12.75429,3.13826 12.75428,-16.39415 12.75429,-2.07455 12.75428,8.80462 12.75429,-2.79905 12.75429,4.28606 12.75428,8.7442 12.75429,-0.36959 12.75428,0.19534 12.75429,-3.04475 12.75428,-13.72924 12.75429,8.21623 12.75429,3.11406 12.75428,0.76068 12.75429,-4.2748 12.75428,-4.28334 L 577,124.39648"
         clip-path="url(#p109f7f594c)"
         style="fill:none;stroke:#d37014;stroke-width:1.5;stroke-linecap:square;stroke-linejoin:round"
         id="path114"
         transform="matrix(0.35277777,0,0,0.35277777,-28.79129,315.99933)" />
      <path
         d="M 72,135.36 H 518.4"
         clip-path="url(#p109f7f594c)"
         style="fill:none;stroke:#808080;stroke-width:1.5;stroke-linecap:butt;stroke-linejoin:round;stroke-dasharray:5.55, 2.4;stroke-dashoffset:0"
         id="path115"
         transform="matrix(0.35277777,0,0,0.35277777,-28.79129,315.99933)" />
    </g>
    <g
       id="line2d_27"
       style="display:inline;stroke-linecap:butt;stroke-linejoin:round"
       transform="matrix(0.35277777,0,0,0.35277777,90.557638,-63.709836)">
      <path
         d="m 81,197.70594 h 10 10"
         style="fill:none;stroke:#31cc0c;stroke-width:1.5;stroke-linecap:square;stroke-linejoin:round"
         id="path126" />
    </g>
    <g
       id="line2d_28"
       style="display:inline;stroke-linecap:butt;stroke-linejoin:round"
       transform="matrix(0.35277777,0,0,0.35277777,90.557638,-64.239005)">
      <path
         d="m 81,212.38406 h 10 10"
         style="fill:none;stroke:#1fa1d5;stroke-width:1.5;stroke-linecap:square;stroke-linejoin:round"
         id="path136" />
    </g>
    <g
       id="line2d_29"
       style="display:inline;stroke-linecap:butt;stroke-linejoin:round"
       transform="matrix(0.35277777,0,0,0.35277777,90.557638,-64.768174)">
      <path
         d="m 81,227.06219 h 10 10"
         style="fill:none;stroke:#604bb6;stroke-width:1.5;stroke-linecap:square;stroke-linejoin:round"
         id="path147" />
    </g>
    <g
       id="line2d_30"
       style="display:inline;stroke-linecap:butt;stroke-linejoin:round"
       transform="matrix(0.35277777,0,0,0.35277777,90.557638,-65.297346)">
      <path
         d="m 81,241.74031 h 10 10"
         style="fill:none;stroke:#d37014;stroke-width:1.5;stroke-linecap:square;stroke-linejoin:round"
         id="path160" />
    </g>
    <text
       xml:space="preserve"
       style="font-size:3.84314px;line-height:1.25;font-family:sans-serif;display:inline;stroke-width:0.144118;stroke-linecap:butt;stroke-linejoin:round"
       x="145.41991"
       y="188.24294"
       id="text112-8-5"
       transform="translate(-16.562403,-171.62314)"><tspan
         sodipodi:role="line"
         style="font-style:italic;font-variant:normal;font-weight:normal;font-stretch:normal;font-family:'DIN Next W1G';-inkscape-font-specification:'DIN Next W1G Italic';stroke-width:0.144118"
         x="145.41991"
         y="188.24294"
         id="tspan17-5-8">Bison bonasus</tspan></text>
    <text
       xml:space="preserve"
       style="font-size:3.84314px;line-height:1.25;font-family:sans-serif;display:inline;stroke-width:0.144118;stroke-linecap:butt;stroke-linejoin:round"
       x="145.41991"
       y="192.89189"
       id="text112-8-0"
       transform="translate(-16.562403,-171.62314)"><tspan
         sodipodi:role="line"
         style="font-style:italic;font-variant:normal;font-weight:normal;font-stretch:normal;font-family:'DIN Next W1G';-inkscape-font-specification:'DIN Next W1G Italic';stroke-width:0.144118"
         x="145.41991"
         y="192.89189"
         id="tspan17-5-9">Bubalus bubalis</tspan></text>
    <path
       d="m -310.62857,141.91165 v 27.42168 l 12.75428,-25.39862 12.75429,-29.38362 12.75429,10.26402 12.75428,-28.320557 12.75429,-131.322951 12.75428,23.1041 12.75429,167.152868 12.75428,-38.61036 12.75429,-38.178459 12.75429,-92.199286 12.75428,-3.241651 12.75429,145.294536 12.75428,24.86769 12.75429,10.8392 12.75428,3.62994 12.75429,-0.86916 12.754286,-21.68863 12.754285,-17.69094 12.754286,-4.42138 12.754286,15.36255 12.754286,10.40252 12.754285,3.91623 12.754286,0.53585 12.754286,-9.08515 12.754285,-10.01244 12.754286,-8.00628 12.754286,3.66874 12.754286,-15.70492 12.754285,5.9339 L 72,139.69352 l 12.754286,12.44982 12.754285,9.82147 12.754289,-4.73899 12.75428,-15.17676 12.75429,-24.9908 12.75428,-9.65634 12.75429,20.30572 12.75429,9.2493 12.75428,14.33655 12.75429,34.22751 12.75428,50.639 h 12.75429 12.75428 12.75429 12.75429 12.75428 12.75429 12.75428 12.75429 12.75428 12.75429 12.75429 12.75428 12.75429 12.75428 l 12.75429,-25.50637 12.75428,-72.59245 12.75429,2.69545 12.75429,16.91174 12.75428,12.22735 12.75429,-1.89017 12.75428,-5.95167 12.75429,-1.40393 12.75428,0.4079 12.75429,4.83657 12.75429,16.69587 12.75428,-1.63334 12.75429,-2.94843 12.75428,-11.59241 12.75429,-30.65491 12.75428,-16.31921 12.75429,0.89233 12.75429,18.17171 12.75428,10.73706 12.75429,2.37499 12.75428,0.55417 12.75429,2.31705 12.75428,-3.52507 12.75429,-9.86789 12.75429,2.35749 12.75428,11.25993 12.75429,-6.34741 12.75428,10.43298 12.75429,15.76632 12.75428,3.48036 12.75429,-0.65856 12.75429,-7.05325 12.75428,-1.99053 12.75429,-30.0641 12.75428,-99.715849 12.75429,-271.242591 12.75428,139.604045 L 875.52,105.764 l 12.75429,49.54056 12.75428,-2.44462 12.75429,-11.06144 12.75428,8.76306 12.75429,-11.69798 12.75428,0.22867 12.75429,6.22662 v -29.93419 0 l -12.75429,4.29938 -12.75428,3.781 -12.75429,4.21184 -12.75428,-11.33715 -12.75429,17.14255 -12.75428,-0.74396 L 875.52,73.328725 862.76571,-229.31038 850.01143,-508.56183 837.25714,-111.3924 824.50286,93.996367 l -12.75429,52.179553 -12.75428,4.40642 -12.75429,0.86981 -12.75429,-4.50384 -12.75428,-2.01991 -12.75429,-8.42263 -12.75428,-6.58749 -12.75429,3.5553 -12.75428,-9.98362 -12.75429,-10.23904 -12.75429,16.13845 -12.75428,3.97053 -12.75429,-3.01664 -12.75428,1.65288 -12.75429,-2.23564 -12.75428,-7.63937 -12.75429,-22.131962 -12.75429,-7.169676 -12.75428,22.886338 -12.75429,19.05701 -12.75428,9.94155 -12.75429,9.64814 -12.75428,1.58991 -12.75429,-11.82202 -12.75429,-3.65487 -12.75428,-5.02262 -12.75429,1.63268 -12.75428,10.71125 -12.75429,-0.53218 L 441.87429,131.33891 429.12,115.95485 416.36571,107.55658 403.61143,200.5143 390.85714,236.16 H 378.10286 365.34857 352.59429 339.84 327.08571 314.33143 301.57714 288.82286 276.06857 263.31429 250.56 237.80571 225.05143 L 212.29714,235.82915 199.54286,165.21686 186.78857,123.70795 174.03429,113.5253 161.28,96.548155 148.52571,48.990323 135.77143,72.594312 123.01714,122.09224 110.26286,142.12577 97.508571,136.32583 84.754286,133.08856 72,111.31984 59.245714,80.631641 46.491429,60.892825 33.737143,93.09319 20.982857,85.078542 8.228571,78.876449 -4.525714,99.546653 -17.28,116.62488 l -12.754286,7.60055 -12.754285,6.37949 -12.754286,-17.02185 -12.754286,-29.926244 -12.754286,0.230237 -12.754285,29.989227 -12.754286,26.05189 -12.75429,-2.36585 -12.75428,5.66065 -12.75429,-8.90686 -12.75428,-25.23602 -12.75429,-260.72219 -12.75428,-52.47436 -12.75429,150.690307 -12.75429,72.860822 -12.75428,58.574284 -12.75429,-346.357143 -12.75428,-65.37327 -12.75429,328.771429 -12.75428,68.415327 -12.75429,2.867417 -12.75429,54.730287 z"
       clip-path="url(#clipPath9)"
       style="display:inline;fill:#1fa1d5;fill-opacity:0.2;stroke:#1fa1d5;stroke-linecap:butt;stroke-linejoin:round;stroke-opacity:0.2"
       id="path4"
       transform="matrix(0.12011305,0,0,0.12011305,52.234187,-4.1511053)" />
  </g>
</svg>
